<?xml version="1.0" standalone="no"?>
<!DOCTYPE svg PUBLIC "-//W3C//DTD SVG 20010904//EN"
 "http://www.w3.org/TR/2001/REC-SVG-20010904/DTD/svg10.dtd">
<svg version="1.0" xmlns="http://www.w3.org/2000/svg"
 width="412.000000pt" height="412.000000pt" viewBox="0 0 412.000000 412.000000"
 preserveAspectRatio="xMidYMid meet">
<metadata>
Created by potrace 1.11, written by Peter Selinger 2001-2013
</metadata>
<g transform="translate(0.000000,412.000000) scale(0.100000,-0.100000)"
fill="#000000" stroke="none">
<path d="M2008 4055 c-2 -1 -55 -5 -118 -8 -855 -44 -1601 -669 -1810 -1517
-56 -227 -71 -562 -35 -775 60 -352 186 -647 393 -915 92 -120 300 -323 409
-400 271 -190 542 -303 858 -356 116 -19 423 -27 535 -13 381 47 728 190 1015
418 434 344 701 835 753 1386 9 91 8 360 -2 393 -3 9 -8 42 -11 72 -37 316
-190 674 -410 955 -339 433 -883 722 -1415 751 -52 3 -109 7 -127 8 -18 2 -33
3 -35 1z"/>
</g>
</svg>
