<svg xmlns="http://www.w3.org/2000/svg" width="255.413" height="241.653" viewBox="0 0 255.413 241.653">
  <g id="Group_1197" data-name="Group 1197" transform="translate(-1171.597 -6960.292)">
    <path id="Path_951" data-name="Path 951" d="M102.555,335.725s-180.687-38.858-62.391-158.8,122.07,64.121,122.07,64.121S175.277,350.365,102.555,335.725Z" transform="translate(1135.095 7270.114) rotate(-120)" fill="#fbf8fb"/>
    <g id="pirkiniu_krepsys-06" data-name="pirkiniu krepsys-06" transform="translate(1217.567 6998.845)">
      <g id="Group_695" data-name="Group 695" transform="translate(0 0)">
        <path id="Path_531" data-name="Path 531" d="M37.22,93.175h0a14.282,14.282,0,0,1-17.575-9.951L2.022,19.6A14.282,14.282,0,0,1,11.973,2.022h0a14.282,14.282,0,0,1,17.575,9.951L47.171,75.6A14.282,14.282,0,0,1,37.22,93.175Z" transform="translate(-1.5 -1.5)" fill="#f5e9ed" stroke="#392860" stroke-miterlimit="10" stroke-width="2"/>
        <path id="Path_532" data-name="Path 532" d="M4.929,29.825,19.807,16.709,8.768,40.917" transform="translate(-1.173 -0.051)" fill="none" stroke="#392860" stroke-linecap="round" stroke-linejoin="round" stroke-miterlimit="10" stroke-width="2"/>
        <path id="Path_533" data-name="Path 533" d="M11.379,50.83,27.007,37.052,15.967,61.26" transform="translate(-0.559 1.886)" fill="none" stroke="#392860" stroke-linecap="round" stroke-linejoin="round" stroke-miterlimit="10" stroke-width="2"/>
      </g>
      <path id="Path_534" data-name="Path 534" d="M121.932,47.021l2.642-8.808-5.85-3.46-.755-8.995-7.548-.943-5.283-5.1-5.284,5.1-7.548.943-.755,8.995-5.85,3.46,2.642,8.808-5.1,5.911,5.1,10.316h33.59l5.1-10.316Z" transform="translate(5.191 -9.622)" fill="#8aac59" stroke="#392860" stroke-linecap="round" stroke-linejoin="round" stroke-miterlimit="10" stroke-width="2"/>
      <path id="Path_535" data-name="Path 535" d="M106.22,61.053l2.359-5.306-5.224-3.089-.674-8.032-6.74-.842-4.718-4.55-4.718,4.55-6.74.842-.674,8.032-5.224,3.089,2.359,5.306Z" transform="translate(4.298 -7.763)" fill="#e5f4d0" stroke="#392860" stroke-linecap="round" stroke-linejoin="round" stroke-miterlimit="10" stroke-width="2"/>
      <g id="Group_696" data-name="Group 696" transform="translate(31.931 22.341)">
        <rect id="Rectangle_493" data-name="Rectangle 493" width="23.253" height="5.954" transform="translate(6.3)" stroke-width="2" stroke="#392860" stroke-linecap="round" stroke-linejoin="round" stroke-miterlimit="10" fill="#c1c7d0"/>
        <path id="Path_536" data-name="Path 536" d="M60.937,36.334H38.226L31.654,48.129H67.508Z" transform="translate(-31.654 -30.38)" fill="#c1c7d0" stroke="#392860" stroke-linecap="round" stroke-linejoin="round" stroke-miterlimit="10" stroke-width="2"/>
        <rect id="Rectangle_494" data-name="Rectangle 494" width="35.854" height="84.587" transform="translate(0 17.749)" stroke-width="2" stroke="#392860" stroke-linecap="round" stroke-linejoin="round" stroke-miterlimit="10" fill="#c1c7d0"/>
      </g>
      <g id="Group_697" data-name="Group 697" transform="translate(3.26 3.581)">
        <path id="Path_537" data-name="Path 537" d="M140.669,73.936H10.25a4.774,4.774,0,0,1-4.774-4.774V65.006a4.774,4.774,0,0,1,4.774-4.774H140.67a4.774,4.774,0,0,1,4.774,4.774v4.156A4.774,4.774,0,0,1,140.669,73.936Z" transform="translate(-5.476 -9.345)" fill="#f2ecff" stroke="#392860" stroke-miterlimit="10" stroke-width="2"/>
        <path id="Path_538" data-name="Path 538" d="M69.8,13.77h0a5.151,5.151,0,0,0-4.922,5.353V63.677a5.825,5.825,0,0,0,.091.98h9.662a5.824,5.824,0,0,0,.091-.98V19.123A5.151,5.151,0,0,0,69.8,13.77Z" transform="translate(0.182 -13.77)" fill="#f2ecff" stroke="#392860" stroke-miterlimit="10" stroke-width="2"/>
        <path id="Path_539" data-name="Path 539" d="M13.066,72.744l14.753,55.1c1.479,5.523,6.1,9.351,11.33,9.266l.09,0,35.5,0,35.5,0,.09,0c5.23.085,9.851-3.743,11.33-9.266l14.753-55.1H13.066Zm40.476,51.582a4.922,4.922,0,0,1-9.843,0V88a4.922,4.922,0,0,1,9.843,0Zm26.116,0a4.922,4.922,0,0,1-9.843,0V88a4.922,4.922,0,1,1,9.843,0Zm26.225,0a4.922,4.922,0,0,1-9.843,0V88a4.922,4.922,0,0,1,9.843,0Z" transform="translate(-4.753 -8.153)" fill="#f2ecff" stroke="#392860" stroke-miterlimit="10" stroke-width="2"/>
      </g>
    </g>
  </g>
</svg>
