<svg xmlns="http://www.w3.org/2000/svg" width="200.735" height="164.615" viewBox="0 0 200.735 164.615">
  <g id="Group_1196" data-name="Group 1196" transform="translate(-913.935 -6989.546)">
    <path id="Path_950" data-name="Path 950" d="M102.555,335.725s-180.687-38.858-62.391-158.8,122.07,64.121,122.07,64.121S175.277,350.365,102.555,335.725Z" transform="translate(1251.01 6989.546) rotate(90)" fill="#fbf8fb"/>
    <g id="nuolaidos-06" transform="translate(938.073 7009.545)">
      <path id="Path_554" data-name="Path 554" d="M124.134,58.766l-3.609-42.449a7.357,7.357,0,0,0-7.676-6.662L70.586,12.034a9.835,9.835,0,0,0-6.877,3.343L3.542,84.4A8.553,8.553,0,0,0,4.515,96.45L49.534,135.7a8.553,8.553,0,0,0,12.074-.68L121.8,65.97A9.691,9.691,0,0,0,124.134,58.766ZM88.73,45.29a11.333,11.333,0,1,1,15.99-1.1A11.333,11.333,0,0,1,88.73,45.29Z" transform="translate(-1.5 0.07)" fill="#e5f4d0" stroke="#392860" stroke-miterlimit="10" stroke-width="2"/>
      <path id="Path_555" data-name="Path 555" d="M120.074,5.628s-29.686-22.158-39.2,36.2" transform="translate(13.804 -1.5)" fill="none" stroke="#392860" stroke-linecap="round" stroke-miterlimit="10" stroke-width="2"/>
      <path id="Path_557" data-name="Path 557" d="M88.795,126.1l-10.933,5.732a5.2,5.2,0,0,1-7.542-3.526l-2.2-11.873a5.049,5.049,0,0,0-3.062-3.728l-11.433-4.725a4.949,4.949,0,0,1-1.863-7.924l8.189-9.073a4.91,4.91,0,0,0,1.093-4.649L57.72,74.713a5.058,5.058,0,0,1,5.219-6.354l12.412.559a5.226,5.226,0,0,0,4.425-2.069l7.289-9.77a5.26,5.26,0,0,1,8.371,0l7.289,9.77a5.226,5.226,0,0,0,4.425,2.069l12.412-.559a5.058,5.058,0,0,1,5.219,6.354l-3.323,11.624a4.91,4.91,0,0,0,1.093,4.649l8.189,9.073a4.949,4.949,0,0,1-1.863,7.924l-11.432,4.725a5.049,5.049,0,0,0-3.062,3.728l-2.2,11.873a5.2,5.2,0,0,1-7.542,3.526L93.706,126.1A5.3,5.3,0,0,0,88.795,126.1Z" transform="translate(1.98 8.816)" fill="#ff6854"/>
      <path id="Path_556" data-name="Path 556" d="M88.795,128.234l-10.933,5.9a5.168,5.168,0,0,1-7.542-3.632l-2.2-12.229a5.168,5.168,0,0,0-3.062-3.84l-11.433-4.867a5.168,5.168,0,0,1-1.863-8.161l8.189-9.345a5.168,5.168,0,0,0,1.093-4.788L57.72,75.3a5.168,5.168,0,0,1,5.219-6.545l12.412.576A5.168,5.168,0,0,0,79.776,67.2l7.289-10.063a5.168,5.168,0,0,1,8.371,0L102.725,67.2a5.168,5.168,0,0,0,4.425,2.131l12.412-.576a5.168,5.168,0,0,1,5.219,6.545l-3.323,11.973a5.168,5.168,0,0,0,1.093,4.788l8.189,9.345a5.168,5.168,0,0,1-1.863,8.161l-11.432,4.867a5.168,5.168,0,0,0-3.062,3.84l-2.2,12.229a5.168,5.168,0,0,1-7.542,3.632l-10.933-5.9A5.167,5.167,0,0,0,88.795,128.234Z" transform="translate(7.944 8.816)" fill="#f2ecff" stroke="#392860" stroke-miterlimit="10" stroke-width="2"/>
      <g id="Group_701" data-name="Group 701" transform="translate(85.749 88.982)">
        <line id="Line_47" data-name="Line 47" y1="28.781" x2="28.781" transform="translate(0 0.347)" fill="none" stroke="#392860" stroke-linecap="round" stroke-miterlimit="10" stroke-width="2"/>
        <ellipse id="Ellipse_34" data-name="Ellipse 34" cx="5.79" cy="5.79" rx="5.79" ry="5.79" transform="translate(17.201 17.857)" fill="none" stroke="#392860" stroke-miterlimit="10" stroke-width="2"/>
        <ellipse id="Ellipse_35" data-name="Ellipse 35" cx="5.79" cy="5.79" rx="5.79" ry="5.79" transform="translate(0.454)" fill="none" stroke="#392860" stroke-miterlimit="10" stroke-width="2"/>
      </g>
    </g>
  </g>
</svg>
