<svg xmlns="http://www.w3.org/2000/svg" width="155.926" height="41.5" viewBox="0 0 155.926 41.5"><defs><style>.a{fill:#ff6854;}</style></defs><path class="a" d="M.057,40.417v-.569l.739-.17A3.33,3.33,0,0,0,2.5,38.684a2.7,2.7,0,0,0,.625-1.848q0-2.1.029-4.178t.029-4.178V14.211H0v-.625l1.251-.227a2.221,2.221,0,0,0,1.648-.8,4.516,4.516,0,0,0,.739-1.876A12.707,12.707,0,0,1,5.315,6.793a19.82,19.82,0,0,1,2.53-3.1A12.575,12.575,0,0,1,12.421.824,14.649,14.649,0,0,1,17.167,0a9.149,9.149,0,0,1,4.15.938,3.21,3.21,0,0,1,1.876,3.1,3.208,3.208,0,0,1-.91,2.416,3.521,3.521,0,0,1-2.557.881,4.493,4.493,0,0,1-2.5-.739,7.519,7.519,0,0,1-2.217-2.615l-.8-.966a1.593,1.593,0,0,0-1.251-.768q-.626.03-.91.938a38.762,38.762,0,0,0-.6,4.662q-.2,2.673-.2,5.23h6.367v1.137H11.255V36.722a2.705,2.705,0,0,0,2.274,2.786l1.422.341v.569H.057Z" transform="translate(0 0)"/><path class="a" d="M58.73,47a15.054,15.054,0,0,1-6.572,4.04,12.24,12.24,0,0,1-7.075-.12,16.384,16.384,0,0,1-6.692-4.241,15.233,15.233,0,0,1-4.12-6.733,12.838,12.838,0,0,1,.04-7.115A15.841,15.841,0,0,1,44.52,22.586a12.7,12.7,0,0,1,7.075-.04,15.362,15.362,0,0,1,6.773,4.16,16.34,16.34,0,0,1,4.26,6.713,12.336,12.336,0,0,1,.12,7.035A14.9,14.9,0,0,1,58.73,47Zm-.8-.8a4.424,4.424,0,0,0,1.447-3.055,7.436,7.436,0,0,0-1.629-4.08,47.429,47.429,0,0,0-5.406-6.17,47.884,47.884,0,0,0-6.211-5.446,7.439,7.439,0,0,0-4.079-1.628,4.427,4.427,0,0,0-3.055,1.447,4.529,4.529,0,0,0-1.467,3.075,7.291,7.291,0,0,0,1.608,4.1,47.805,47.805,0,0,0,5.446,6.211,47.351,47.351,0,0,0,6.17,5.406,7.289,7.289,0,0,0,4.1,1.608A4.526,4.526,0,0,0,57.926,46.2Z" transform="translate(-15.327 -10.008)"/><path class="a" d="M116.056,47a15.054,15.054,0,0,1-6.572,4.04,12.235,12.235,0,0,1-7.075-.12,16.375,16.375,0,0,1-6.693-4.241,15.233,15.233,0,0,1-4.12-6.733,12.836,12.836,0,0,1,.04-7.114,15.843,15.843,0,0,1,10.21-10.25,12.706,12.706,0,0,1,7.075-.04,15.362,15.362,0,0,1,6.773,4.16,16.35,16.35,0,0,1,4.261,6.712,12.336,12.336,0,0,1,.12,7.035A14.9,14.9,0,0,1,116.056,47Zm-.8-.8a4.425,4.425,0,0,0,1.447-3.055,7.436,7.436,0,0,0-1.629-4.08,47.43,47.43,0,0,0-5.406-6.17,47.884,47.884,0,0,0-6.211-5.446,7.439,7.439,0,0,0-4.079-1.628,4.428,4.428,0,0,0-3.055,1.447,4.527,4.527,0,0,0-1.467,3.075,7.291,7.291,0,0,0,1.608,4.1,47.805,47.805,0,0,0,5.446,6.211,47.351,47.351,0,0,0,6.17,5.406,7.288,7.288,0,0,0,4.1,1.608A4.524,4.524,0,0,0,115.253,46.2Z" transform="translate(-41.332 -10.008)"/><path class="a" d="M161.228,41.742a12.053,12.053,0,0,1-6.026-1.507,10.5,10.5,0,0,1-4.235-4.661,18.249,18.249,0,0,1-1.564-8.1,17.309,17.309,0,0,1,1.763-8.271,11.87,11.87,0,0,1,4.662-4.889,12.72,12.72,0,0,1,6.31-1.62,17.807,17.807,0,0,1,3.808.4,11.735,11.735,0,0,1,3.241,1.194V6.9a3.3,3.3,0,0,0-.369-1.762,2.305,2.305,0,0,0-1.564-.8l-1.08-.227V3.541l10.346-2.5.625.512-.227,7.958v27.8a3.752,3.752,0,0,0,.4,1.848,2.231,2.231,0,0,0,1.478.995l.511.17v.569l-9.72.625-.512-2.046a13.842,13.842,0,0,1-3.5,1.648A14.286,14.286,0,0,1,161.228,41.742Zm3.3-2.1a7.364,7.364,0,0,0,4.377-1.421V15.65a7.843,7.843,0,0,0-4.32-1.364q-2.728,0-4.662,3.155t-1.933,9.92q0,6.766,1.82,9.522A5.46,5.46,0,0,0,164.524,39.638Z" transform="translate(-67.774 -0.472)"/><path class="a" d="M208.915,40.936v-.569l.8-.227a2.645,2.645,0,0,0,1.564-1.024A3.4,3.4,0,0,0,211.7,37.3V19.506a3.086,3.086,0,0,0-.426-1.791,2.421,2.421,0,0,0-1.564-.824l-.8-.17v-.569l10.4-3.354.569.569-.171,8.072V37.355a3.4,3.4,0,0,0,.426,1.819,2.613,2.613,0,0,0,1.507,1.023l.568.17v.569h-13.3Zm6.708-31.151a4.659,4.659,0,0,1-3.268-1.222,4.015,4.015,0,0,1-1.336-3.1,3.993,3.993,0,0,1,1.336-3.126,4.727,4.727,0,0,1,3.268-1.194,4.628,4.628,0,0,1,3.24,1.194,4.035,4.035,0,0,1,1.308,3.126,4.057,4.057,0,0,1-1.308,3.1A4.564,4.564,0,0,1,215.623,9.785Z" transform="translate(-94.77 -0.519)"/><path class="a" d="M252.3,22.369a12.45,12.45,0,0,1,6.31,1.506,10.289,10.289,0,0,1,4.008,4.093,12.218,12.218,0,0,1,1.392,5.884q0,.626-.056,1.279a5.138,5.138,0,0,1-.227,1.165h-16.94q.055,6.139,2.188,8.839a7.584,7.584,0,0,0,6.339,2.7,10.051,10.051,0,0,0,4.6-.909,11.25,11.25,0,0,0,3.3-2.672l.568.512a13.069,13.069,0,0,1-4.689,4.889,13.372,13.372,0,0,1-7.021,1.762,14.517,14.517,0,0,1-7.162-1.734,12.231,12.231,0,0,1-4.889-4.974,15.953,15.953,0,0,1-1.763-7.731,14.651,14.651,0,0,1,2.047-7.93,13.76,13.76,0,0,1,5.258-4.974A14.16,14.16,0,0,1,252.3,22.369Zm-.17,1.137a4.189,4.189,0,0,0-2.813.995,6.8,6.8,0,0,0-1.82,3.525,31.584,31.584,0,0,0-.71,7.134h9.72q.568-6.195-.455-8.925A3.861,3.861,0,0,0,252.125,23.506Z" transform="translate(-108.08 -10.147)"/></svg>