<svg xmlns="http://www.w3.org/2000/svg" width="221.678" height="59" viewBox="0 0 221.678 59"><defs><style>.a{fill:#ff6854;}</style></defs><path class="a" d="M.081,57.461v-.808l1.05-.242A4.734,4.734,0,0,0,3.556,55a3.832,3.832,0,0,0,.889-2.627q0-2.988.041-5.94t.041-5.94V20.2H0v-.889l1.778-.323a3.157,3.157,0,0,0,2.344-1.131,6.42,6.42,0,0,0,1.051-2.667A18.065,18.065,0,0,1,7.557,9.658a28.178,28.178,0,0,1,3.6-4.4,17.878,17.878,0,0,1,6.506-4.081A20.827,20.827,0,0,1,24.407,0a13.008,13.008,0,0,1,5.9,1.333,4.564,4.564,0,0,1,2.667,4.4A4.561,4.561,0,0,1,31.68,9.173a5.006,5.006,0,0,1-3.636,1.253,6.388,6.388,0,0,1-3.556-1.051,10.69,10.69,0,0,1-3.153-3.718L20.2,4.283a2.265,2.265,0,0,0-1.778-1.091q-.889.042-1.293,1.333a55.107,55.107,0,0,0-.848,6.627Q16,14.953,16,18.588h9.052V20.2H16v32q0,3.072,3.233,3.96l2.021.484v.808H.081Z" transform="translate(0 0)"/><path class="a" d="M69.248,57.522A21.4,21.4,0,0,1,59.9,63.265a17.4,17.4,0,0,1-10.058-.171,23.293,23.293,0,0,1-9.514-6.029,21.657,21.657,0,0,1-5.858-9.572,18.251,18.251,0,0,1,.057-10.115,21.064,21.064,0,0,1,5.514-9.057,21.117,21.117,0,0,1,9-5.514A18.051,18.051,0,0,1,59.1,22.749a21.841,21.841,0,0,1,9.63,5.914,23.231,23.231,0,0,1,6.057,9.543,17.538,17.538,0,0,1,.171,10A21.179,21.179,0,0,1,69.248,57.522ZM68.1,56.379a6.289,6.289,0,0,0,2.058-4.343q.057-2.343-2.315-5.8a67.43,67.43,0,0,0-7.685-8.772,68.076,68.076,0,0,0-8.83-7.743q-3.457-2.371-5.8-2.315a6.293,6.293,0,0,0-4.343,2.057A6.438,6.438,0,0,0,39.1,33.835q-.085,2.373,2.286,5.828a67.964,67.964,0,0,0,7.743,8.83A67.318,67.318,0,0,0,57.9,56.179q3.457,2.373,5.829,2.287A6.434,6.434,0,0,0,68.1,56.379Z" transform="translate(-7.543 -4.925)"/><path class="a" d="M126.574,57.521a21.4,21.4,0,0,1-9.343,5.743,17.4,17.4,0,0,1-10.058-.171,23.28,23.28,0,0,1-9.515-6.029A21.657,21.657,0,0,1,91.8,47.492a18.248,18.248,0,0,1,.057-10.114,21.071,21.071,0,0,1,5.515-9.058,21.117,21.117,0,0,1,9-5.514,18.064,18.064,0,0,1,10.058-.057,21.84,21.84,0,0,1,9.629,5.915,23.244,23.244,0,0,1,6.058,9.543,17.538,17.538,0,0,1,.171,10A21.176,21.176,0,0,1,126.574,57.521Zm-1.143-1.143a6.291,6.291,0,0,0,2.058-4.343q.057-2.343-2.315-5.8a67.429,67.429,0,0,0-7.685-8.772,68.076,68.076,0,0,0-8.83-7.743q-3.457-2.371-5.8-2.315a6.3,6.3,0,0,0-4.343,2.057,6.436,6.436,0,0,0-2.086,4.372q-.085,2.373,2.286,5.828a67.965,67.965,0,0,0,7.743,8.83,67.318,67.318,0,0,0,8.772,7.685q3.457,2.373,5.829,2.286A6.431,6.431,0,0,0,125.431,56.378Z" transform="translate(-20.34 -4.925)"/><path class="a" d="M166.214,58.905a17.135,17.135,0,0,1-8.566-2.142,14.924,14.924,0,0,1-6.021-6.627A25.945,25.945,0,0,1,149.4,38.62a24.608,24.608,0,0,1,2.506-11.758,16.876,16.876,0,0,1,6.627-6.951,18.083,18.083,0,0,1,8.971-2.3,25.316,25.316,0,0,1,5.414.566,16.684,16.684,0,0,1,4.607,1.7V9.364A4.7,4.7,0,0,0,177,6.859a3.278,3.278,0,0,0-2.223-1.131L173.244,5.4V4.6L187.954,1.04l.889.727-.323,11.314V52.6a5.334,5.334,0,0,0,.566,2.627,3.172,3.172,0,0,0,2.1,1.414l.727.242v.808l-13.819.889-.728-2.909a19.679,19.679,0,0,1-4.97,2.344A20.31,20.31,0,0,1,166.214,58.905Zm4.687-2.99a10.47,10.47,0,0,0,6.223-2.02V21.81a11.15,11.15,0,0,0-6.142-1.94q-3.879,0-6.627,4.485t-2.748,14.1q0,9.619,2.587,13.537A7.762,7.762,0,0,0,170.9,55.915Z" transform="translate(-33.352 -0.232)"/><path class="a" d="M208.915,57.716v-.808l1.131-.323a3.76,3.76,0,0,0,2.223-1.455,4.838,4.838,0,0,0,.606-2.586v-25.3a4.388,4.388,0,0,0-.606-2.546,3.442,3.442,0,0,0-2.223-1.172l-1.131-.242V22.48L223.7,17.712l.809.808L224.27,30V52.625a4.84,4.84,0,0,0,.606,2.586,3.715,3.715,0,0,0,2.142,1.455l.808.242v.808H208.915Zm9.537-44.288a6.624,6.624,0,0,1-4.647-1.737,5.708,5.708,0,0,1-1.9-4.4,5.677,5.677,0,0,1,1.9-4.445,6.72,6.72,0,0,1,4.647-1.7,6.579,6.579,0,0,1,4.606,1.7,5.736,5.736,0,0,1,1.859,4.445,5.767,5.767,0,0,1-1.859,4.4A6.488,6.488,0,0,1,218.452,13.428Z" transform="translate(-46.637 -0.255)"/><path class="a" d="M258.216,22.369a17.7,17.7,0,0,1,8.971,2.141,14.628,14.628,0,0,1,5.7,5.819,17.372,17.372,0,0,1,1.98,8.365q0,.89-.08,1.818a7.307,7.307,0,0,1-.323,1.657H250.378q.079,8.728,3.111,12.567t9.011,3.839a14.29,14.29,0,0,0,6.546-1.293,15.994,15.994,0,0,0,4.687-3.8l.808.727a18.58,18.58,0,0,1-6.667,6.951,19.011,19.011,0,0,1-9.982,2.505A20.639,20.639,0,0,1,247.711,61.2a17.388,17.388,0,0,1-6.951-7.071,22.681,22.681,0,0,1-2.506-10.991,20.829,20.829,0,0,1,2.91-11.274,19.562,19.562,0,0,1,7.476-7.071A20.131,20.131,0,0,1,258.216,22.369Zm-.242,1.616a5.955,5.955,0,0,0-4,1.414,9.674,9.674,0,0,0-2.587,5.011,44.9,44.9,0,0,0-1.01,10.142H264.2q.807-8.807-.647-12.688A5.488,5.488,0,0,0,257.974,23.985Z" transform="translate(-53.187 -4.994)"/></svg>