<svg xmlns="http://www.w3.org/2000/svg" width="75.145" height="20" viewBox="0 0 75.145 20"><defs><style>.a{fill:#ff6854;}</style></defs><path class="a" d="M.027,19.478V19.2l.356-.082a1.6,1.6,0,0,0,.822-.479,1.3,1.3,0,0,0,.3-.89q0-1.013.014-2.014t.014-2.014V6.849H0v-.3l.6-.11A1.07,1.07,0,0,0,1.4,6.054a2.176,2.176,0,0,0,.356-.9,6.124,6.124,0,0,1,.808-1.877A9.552,9.552,0,0,1,3.781,1.781,6.06,6.06,0,0,1,5.986.4,7.06,7.06,0,0,1,8.273,0a4.409,4.409,0,0,1,2,.452,1.547,1.547,0,0,1,.9,1.493,1.546,1.546,0,0,1-.438,1.164,1.7,1.7,0,0,1-1.233.425A2.165,2.165,0,0,1,8.3,3.178a3.624,3.624,0,0,1-1.069-1.26l-.383-.466a.768.768,0,0,0-.6-.37q-.3.014-.438.452A18.68,18.68,0,0,0,5.52,3.781q-.1,1.288-.1,2.52H8.493v.548H5.424V17.7a1.3,1.3,0,0,0,1.1,1.343l.685.164v.274H.027Z" transform="translate(0 0)"/><path class="a" d="M45.808,34.083a7.255,7.255,0,0,1-3.167,1.947,5.9,5.9,0,0,1-3.41-.058,7.9,7.9,0,0,1-3.225-2.044,7.341,7.341,0,0,1-1.986-3.245,6.187,6.187,0,0,1,.019-3.429,7.634,7.634,0,0,1,4.92-4.94A6.119,6.119,0,0,1,42.37,22.3a7.4,7.4,0,0,1,3.264,2,7.875,7.875,0,0,1,2.053,3.235,5.945,5.945,0,0,1,.058,3.39A7.179,7.179,0,0,1,45.808,34.083Zm-.387-.387a2.132,2.132,0,0,0,.7-1.472,3.584,3.584,0,0,0-.785-1.966,22.857,22.857,0,0,0-2.605-2.974,23.076,23.076,0,0,0-2.993-2.625,3.585,3.585,0,0,0-1.966-.785,2.133,2.133,0,0,0-1.472.7,2.182,2.182,0,0,0-.707,1.482,3.514,3.514,0,0,0,.775,1.976,23.039,23.039,0,0,0,2.625,2.993,22.82,22.82,0,0,0,2.974,2.605,3.513,3.513,0,0,0,1.976.775A2.181,2.181,0,0,0,45.421,33.7Z" transform="translate(-24.891 -16.253)"/><path class="a" d="M103.134,34.082a7.255,7.255,0,0,1-3.167,1.947,5.9,5.9,0,0,1-3.41-.058,7.891,7.891,0,0,1-3.225-2.044,7.341,7.341,0,0,1-1.985-3.245,6.186,6.186,0,0,1,.019-3.429,7.635,7.635,0,0,1,4.92-4.94,6.124,6.124,0,0,1,3.41-.019,7.4,7.4,0,0,1,3.264,2,7.879,7.879,0,0,1,2.053,3.235,5.945,5.945,0,0,1,.058,3.39A7.178,7.178,0,0,1,103.134,34.082Zm-.387-.387a2.132,2.132,0,0,0,.7-1.472,3.584,3.584,0,0,0-.785-1.966,22.858,22.858,0,0,0-2.605-2.974,23.077,23.077,0,0,0-2.993-2.625,3.585,3.585,0,0,0-1.966-.785,2.134,2.134,0,0,0-1.472.7,2.182,2.182,0,0,0-.707,1.482,3.514,3.514,0,0,0,.775,1.976,23.039,23.039,0,0,0,2.625,2.993,22.819,22.819,0,0,0,2.974,2.605,3.512,3.512,0,0,0,1.976.775A2.18,2.18,0,0,0,102.747,33.7Z" transform="translate(-67.123 -16.253)"/><path class="a" d="M155.1,20.655a5.809,5.809,0,0,1-2.9-.726,5.059,5.059,0,0,1-2.041-2.246,8.8,8.8,0,0,1-.754-3.9,8.341,8.341,0,0,1,.849-3.986A5.72,5.72,0,0,1,152.5,7.437a6.13,6.13,0,0,1,3.041-.781,8.582,8.582,0,0,1,1.835.192,5.655,5.655,0,0,1,1.562.575V3.862a1.592,1.592,0,0,0-.178-.849,1.111,1.111,0,0,0-.754-.383l-.521-.11V2.245l4.986-1.205.3.247-.11,3.835v13.4a1.808,1.808,0,0,0,.192.89,1.075,1.075,0,0,0,.712.479l.246.082v.274l-4.684.3-.247-.986a6.671,6.671,0,0,1-1.685.794A6.885,6.885,0,0,1,155.1,20.655Zm1.589-1.014a3.549,3.549,0,0,0,2.109-.685V8.081a3.78,3.78,0,0,0-2.082-.658,2.659,2.659,0,0,0-2.247,1.52,9.442,9.442,0,0,0-.932,4.781,8.77,8.77,0,0,0,.877,4.589A2.631,2.631,0,0,0,156.691,19.642Z" transform="translate(-110.064 -0.766)"/><path class="a" d="M208.915,20.321v-.274l.383-.109a1.275,1.275,0,0,0,.754-.493,1.64,1.64,0,0,0,.205-.877V9.993a1.487,1.487,0,0,0-.205-.863,1.167,1.167,0,0,0-.754-.4l-.383-.082V8.377l5.013-1.616.274.274-.082,3.89V18.6a1.641,1.641,0,0,0,.206.877,1.259,1.259,0,0,0,.726.493l.274.082v.274h-6.41Zm3.233-15.013a2.245,2.245,0,0,1-1.575-.589,1.935,1.935,0,0,1-.644-1.493,1.924,1.924,0,0,1,.644-1.507,2.278,2.278,0,0,1,1.575-.575,2.23,2.23,0,0,1,1.561.575,1.944,1.944,0,0,1,.63,1.507,1.955,1.955,0,0,1-.63,1.493A2.2,2.2,0,0,1,212.148,5.309Z" transform="translate(-153.906 -0.843)"/><path class="a" d="M245.021,22.369a6,6,0,0,1,3.041.726,4.959,4.959,0,0,1,1.931,1.973,5.888,5.888,0,0,1,.671,2.835q0,.3-.027.616a2.476,2.476,0,0,1-.11.562h-8.164a7.04,7.04,0,0,0,1.055,4.26,3.655,3.655,0,0,0,3.055,1.3,4.844,4.844,0,0,0,2.219-.438,5.422,5.422,0,0,0,1.589-1.288l.274.247a6.3,6.3,0,0,1-2.26,2.356,6.444,6.444,0,0,1-3.384.849,7,7,0,0,1-3.452-.836,5.894,5.894,0,0,1-2.356-2.4,7.688,7.688,0,0,1-.849-3.726,7.061,7.061,0,0,1,.987-3.822,6.631,6.631,0,0,1,2.534-2.4A6.824,6.824,0,0,1,245.021,22.369Zm-.082.548a2.019,2.019,0,0,0-1.356.479,3.279,3.279,0,0,0-.877,1.7,15.222,15.222,0,0,0-.342,3.438h4.684a10.621,10.621,0,0,0-.219-4.3A1.861,1.861,0,0,0,244.939,22.917Z" transform="translate(-175.519 -16.479)"/></svg>