<svg xmlns="http://www.w3.org/2000/svg" width="385.11" height="50" viewBox="0 0 385.11 50">
  <g id="Group_1216" data-name="Group 1216" transform="translate(-1081.145 -6851)">
    <path id="Union_2" data-name="Union 2" d="M26.542,31.62H5a5,5,0,0,1-5-5V5A5,5,0,0,1,5,0H41a5,5,0,0,1,5,5V26.619a5,5,0,0,1-5,5H35.1L30.82,38Z" transform="translate(1356.145 6858)" fill="#f2ecff"/>
    <g id="Ellipse_9" data-name="Ellipse 9" transform="translate(1081.145 6851)" fill="#fff" stroke="#9883c7" stroke-width="3">
      <circle cx="25" cy="25" r="25" stroke="none"/>
      <circle cx="25" cy="25" r="23.5" fill="none"/>
    </g>
    <g id="Group_64" data-name="Group 64" transform="translate(1105.424 6863.319)">
      <line id="Line_13" data-name="Line 13" y1="16.509" transform="translate(0 0)" fill="none" stroke="#9883c7" stroke-linecap="round" stroke-width="3"/>
      <line id="Line_14" data-name="Line 14" y1="3.884" x2="9.905" transform="translate(0 12.625)" fill="none" stroke="#9883c7" stroke-linecap="round" stroke-width="3"/>
    </g>
    <g id="Group_140" data-name="Group 140" transform="translate(1180.924 6851)">
      <g id="Ellipse_8" data-name="Ellipse 8" transform="translate(10.221)" fill="none" stroke="#9883c7" stroke-width="3">
        <circle cx="13.5" cy="13.5" r="13.5" stroke="none"/>
        <circle cx="13.5" cy="13.5" r="12" fill="none"/>
      </g>
      <g id="Subtraction_4" data-name="Subtraction 4" transform="translate(0 28.289)" fill="none">
        <path d="M48.608,16.913H0A16.882,16.882,0,0,1,2.746,10.24a21.146,21.146,0,0,1,5.37-5.366A26.2,26.2,0,0,1,15.5,1.3a30.457,30.457,0,0,1,17.6,0,26.2,26.2,0,0,1,7.388,3.575,21.146,21.146,0,0,1,5.37,5.366,16.882,16.882,0,0,1,2.746,6.673Z" stroke="none"/>
        <path d="M 44.52761077880859 13.91294097900391 C 44.20447540283203 13.2361888885498 43.82257461547852 12.57405185699463 43.38315200805664 11.92951107025146 C 42.20325088500977 10.19879150390625 40.65043258666992 8.65084171295166 38.76786041259766 7.328661441802979 C 36.83438110351563 5.970751285552979 34.63243103027344 4.906951427459717 32.22318267822266 4.166831493377686 C 29.70281219482422 3.392581462860107 27.03837203979492 3.000001430511475 24.30390167236328 3.000001430511475 C 21.56940269470215 3.000001430511475 18.90498161315918 3.392581462860107 16.38464164733887 4.166821479797363 C 13.97543144226074 4.906931400299072 11.7735013961792 5.970721244812012 9.840042114257813 7.328641414642334 C 7.957491874694824 8.650821685791016 6.404691696166992 10.19877147674561 5.224771976470947 11.92951107025146 C 4.785330772399902 12.57409286499023 4.403464794158936 13.23616600036621 4.080328941345215 13.91294097900391 L 44.52761077880859 13.91294097900391 M 48.60796356201172 16.91294097900391 L 1.781005835255201e-06 16.91294097900391 C 0.4037017822265625 14.56525135040283 1.327651739120483 12.32009124755859 2.746001720428467 10.23962116241455 C 4.130051612854004 8.209461212158203 5.93671178817749 6.404091358184814 8.115811347961426 4.873641490936279 C 10.30735206604004 3.334471464157104 12.79299163818359 2.131811380386353 15.50368213653564 1.299091458320618 C 18.30970191955566 0.4370814561843872 21.27053260803223 1.443176302018401e-06 24.30390167236328 1.443176302018401e-06 C 27.33725166320801 1.443176302018401e-06 30.29808235168457 0.4370814561843872 33.10414123535156 1.299091458320618 C 35.81484222412109 2.131821393966675 38.30050277709961 3.334471464157104 40.49206161499023 4.873641490936279 C 42.67118072509766 6.404091358184814 44.47787094116211 8.209461212158203 45.86192321777344 10.23962116241455 C 47.28031158447266 12.32010173797607 48.20419311523438 14.56526184082031 48.60793304443359 16.91272163391113 L 48.60796356201172 16.91294097900391 Z" stroke="none" fill="#9883c7"/>
      </g>
    </g>
    <g id="Group_1162" data-name="Group 1162" transform="translate(1270.875 6858.077)">
      <path id="Path_930" data-name="Path 930" d="M271.59,125.547v3.41h10.163V117.332Z" transform="translate(-271.59 -92.688)" fill="#9883c7" stroke="#9883c7" stroke-linejoin="round" stroke-width="2"/>
      <path id="Path_931" data-name="Path 931" d="M282.112,118.118v14.968h10.163V109.052Z" transform="translate(-265.384 -96.816)" fill="#9883c7" stroke="#9883c7" stroke-linejoin="round" stroke-width="2"/>
      <path id="Path_932" data-name="Path 932" d="M292.635,109.932v26.983H302.8v-36.27Z" transform="translate(-259.179 -100.646)" fill="#f2ecff" stroke="#f2ecff" stroke-linejoin="round" stroke-width="2"/>
    </g>
    <g id="Group_1183" data-name="Group 1183" transform="translate(1434.99 6858.095)">
      <g id="Ellipse_4" data-name="Ellipse 4" transform="translate(0.155 -0.095)" fill="none" stroke="#9883c7" stroke-width="3">
        <circle cx="10.5" cy="10.5" r="10.5" stroke="none"/>
        <circle cx="10.5" cy="10.5" r="9" fill="none"/>
      </g>
      <line id="Line_8" data-name="Line 8" x2="8.445" y2="10.395" transform="translate(20.711 21.935)" fill="none" stroke="#9883c7" stroke-linecap="round" stroke-width="3"/>
    </g>
  </g>
</svg>
