<svg xmlns="http://www.w3.org/2000/svg" width="513.145" height="60" viewBox="0 0 513.145 60">
  <g id="Group_1215" data-name="Group 1215" transform="translate(-456 -6842)">
    <g id="foodie_logo_4-03" transform="translate(456 6842)">
      <path id="Path_938" data-name="Path 938" d="M.081,57.461v-.808l1.05-.242A4.734,4.734,0,0,0,3.556,55a3.832,3.832,0,0,0,.889-2.627q0-2.988.041-5.94t.041-5.94V20.2H0v-.889l1.778-.323a3.157,3.157,0,0,0,2.344-1.131,6.42,6.42,0,0,0,1.051-2.667A18.065,18.065,0,0,1,7.557,9.658a28.178,28.178,0,0,1,3.6-4.4,17.878,17.878,0,0,1,6.506-4.081A20.827,20.827,0,0,1,24.407,0a13.008,13.008,0,0,1,5.9,1.333,4.564,4.564,0,0,1,2.667,4.4A4.561,4.561,0,0,1,31.68,9.173a5.006,5.006,0,0,1-3.636,1.253,6.388,6.388,0,0,1-3.556-1.051,10.69,10.69,0,0,1-3.153-3.718L20.2,4.283a2.265,2.265,0,0,0-1.778-1.091q-.889.042-1.293,1.333a55.107,55.107,0,0,0-.848,6.627Q16,14.953,16,18.588h9.052V20.2H16v32q0,3.072,3.233,3.96l2.021.484v.808H.081Z" transform="translate(0 0)" fill="#ff6854"/>
      <path id="Path_939" data-name="Path 939" d="M69.248,57.522A21.4,21.4,0,0,1,59.9,63.265a17.4,17.4,0,0,1-10.058-.171,23.293,23.293,0,0,1-9.514-6.029,21.657,21.657,0,0,1-5.858-9.572,18.251,18.251,0,0,1,.057-10.115,21.064,21.064,0,0,1,5.514-9.057,21.117,21.117,0,0,1,9-5.514A18.051,18.051,0,0,1,59.1,22.749a21.841,21.841,0,0,1,9.63,5.914,23.231,23.231,0,0,1,6.057,9.543,17.538,17.538,0,0,1,.171,10A21.179,21.179,0,0,1,69.248,57.522ZM68.1,56.379a6.289,6.289,0,0,0,2.058-4.343q.057-2.343-2.315-5.8a67.43,67.43,0,0,0-7.685-8.772,68.076,68.076,0,0,0-8.83-7.743q-3.457-2.371-5.8-2.315a6.293,6.293,0,0,0-4.343,2.057A6.438,6.438,0,0,0,39.1,33.835q-.085,2.373,2.286,5.828a67.964,67.964,0,0,0,7.743,8.83A67.318,67.318,0,0,0,57.9,56.179q3.457,2.373,5.829,2.287A6.434,6.434,0,0,0,68.1,56.379Z" transform="translate(-7.543 -4.925)" fill="#ff6854"/>
      <path id="Path_940" data-name="Path 940" d="M126.574,57.521a21.4,21.4,0,0,1-9.343,5.743,17.4,17.4,0,0,1-10.058-.171,23.28,23.28,0,0,1-9.515-6.029A21.657,21.657,0,0,1,91.8,47.492a18.248,18.248,0,0,1,.057-10.114,21.071,21.071,0,0,1,5.515-9.058,21.117,21.117,0,0,1,9-5.514,18.064,18.064,0,0,1,10.058-.057,21.84,21.84,0,0,1,9.629,5.915,23.244,23.244,0,0,1,6.058,9.543,17.538,17.538,0,0,1,.171,10A21.176,21.176,0,0,1,126.574,57.521Zm-1.143-1.143a6.291,6.291,0,0,0,2.058-4.343q.057-2.343-2.315-5.8a67.429,67.429,0,0,0-7.685-8.772,68.076,68.076,0,0,0-8.83-7.743q-3.457-2.371-5.8-2.315a6.3,6.3,0,0,0-4.343,2.057,6.436,6.436,0,0,0-2.086,4.372q-.085,2.373,2.286,5.828a67.965,67.965,0,0,0,7.743,8.83,67.318,67.318,0,0,0,8.772,7.685q3.457,2.373,5.829,2.286A6.431,6.431,0,0,0,125.431,56.378Z" transform="translate(-20.34 -4.925)" fill="#ff6854"/>
      <path id="Path_941" data-name="Path 941" d="M166.214,58.905a17.135,17.135,0,0,1-8.566-2.142,14.924,14.924,0,0,1-6.021-6.627A25.945,25.945,0,0,1,149.4,38.62a24.608,24.608,0,0,1,2.506-11.758,16.876,16.876,0,0,1,6.627-6.951,18.083,18.083,0,0,1,8.971-2.3,25.316,25.316,0,0,1,5.414.566,16.684,16.684,0,0,1,4.607,1.7V9.364A4.7,4.7,0,0,0,177,6.859a3.278,3.278,0,0,0-2.223-1.131L173.244,5.4V4.6L187.954,1.04l.889.727-.323,11.314V52.6a5.334,5.334,0,0,0,.566,2.627,3.172,3.172,0,0,0,2.1,1.414l.727.242v.808l-13.819.889-.728-2.909a19.679,19.679,0,0,1-4.97,2.344A20.31,20.31,0,0,1,166.214,58.905Zm4.687-2.99a10.47,10.47,0,0,0,6.223-2.02V21.81a11.15,11.15,0,0,0-6.142-1.94q-3.879,0-6.627,4.485t-2.748,14.1q0,9.619,2.587,13.537A7.762,7.762,0,0,0,170.9,55.915Z" transform="translate(-33.352 -0.232)" fill="#ff6854"/>
      <path id="Path_942" data-name="Path 942" d="M208.915,57.716v-.808l1.131-.323a3.76,3.76,0,0,0,2.223-1.455,4.838,4.838,0,0,0,.606-2.586v-25.3a4.388,4.388,0,0,0-.606-2.546,3.442,3.442,0,0,0-2.223-1.172l-1.131-.242V22.48L223.7,17.712l.809.808L224.27,30V52.625a4.84,4.84,0,0,0,.606,2.586,3.715,3.715,0,0,0,2.142,1.455l.808.242v.808H208.915Zm9.537-44.288a6.624,6.624,0,0,1-4.647-1.737,5.708,5.708,0,0,1-1.9-4.4,5.677,5.677,0,0,1,1.9-4.445,6.72,6.72,0,0,1,4.647-1.7,6.579,6.579,0,0,1,4.606,1.7,5.736,5.736,0,0,1,1.859,4.445,5.767,5.767,0,0,1-1.859,4.4A6.488,6.488,0,0,1,218.452,13.428Z" transform="translate(-46.637 -0.255)" fill="#ff6854"/>
      <path id="Path_943" data-name="Path 943" d="M258.216,22.369a17.7,17.7,0,0,1,8.971,2.141,14.628,14.628,0,0,1,5.7,5.819,17.372,17.372,0,0,1,1.98,8.365q0,.89-.08,1.818a7.307,7.307,0,0,1-.323,1.657H250.378q.079,8.728,3.111,12.567t9.011,3.839a14.29,14.29,0,0,0,6.546-1.293,15.994,15.994,0,0,0,4.687-3.8l.808.727a18.58,18.58,0,0,1-6.667,6.951,19.011,19.011,0,0,1-9.982,2.505A20.639,20.639,0,0,1,247.711,61.2a17.388,17.388,0,0,1-6.951-7.071,22.681,22.681,0,0,1-2.506-10.991,20.829,20.829,0,0,1,2.91-11.274,19.562,19.562,0,0,1,7.476-7.071A20.131,20.131,0,0,1,258.216,22.369Zm-.242,1.616a5.955,5.955,0,0,0-4,1.414,9.674,9.674,0,0,0-2.587,5.011,44.9,44.9,0,0,0-1.01,10.142H264.2q.807-8.807-.647-12.688A5.488,5.488,0,0,0,257.974,23.985Z" transform="translate(-53.187 -4.994)" fill="#ff6854"/>
    </g>
    <g id="foodie_logo_4-03-2" data-name="foodie_logo_4-03" transform="translate(708 6860)">
      <path id="Path_938-2" data-name="Path 938" d="M.057,40.417v-.569l.739-.17A3.33,3.33,0,0,0,2.5,38.684a2.7,2.7,0,0,0,.625-1.848q0-2.1.029-4.178t.029-4.178V14.211H0v-.625l1.251-.227a2.221,2.221,0,0,0,1.648-.8,4.516,4.516,0,0,0,.739-1.876A12.707,12.707,0,0,1,5.315,6.793a19.82,19.82,0,0,1,2.53-3.1A12.575,12.575,0,0,1,12.421.824,14.649,14.649,0,0,1,17.167,0a9.149,9.149,0,0,1,4.15.938,3.21,3.21,0,0,1,1.876,3.1,3.208,3.208,0,0,1-.91,2.416,3.521,3.521,0,0,1-2.557.881,4.493,4.493,0,0,1-2.5-.739,7.519,7.519,0,0,1-2.217-2.615l-.8-.966a1.593,1.593,0,0,0-1.251-.768q-.626.03-.91.938a38.762,38.762,0,0,0-.6,4.662q-.2,2.673-.2,5.23h6.367v1.137H11.255V36.722a2.705,2.705,0,0,0,2.274,2.786l1.422.341v.569H.057Z" transform="translate(0 0)" fill="#ff6854"/>
      <path id="Path_939-2" data-name="Path 939" d="M58.73,47a15.054,15.054,0,0,1-6.572,4.04,12.24,12.24,0,0,1-7.075-.12,16.384,16.384,0,0,1-6.692-4.241,15.233,15.233,0,0,1-4.12-6.733,12.838,12.838,0,0,1,.04-7.115A15.841,15.841,0,0,1,44.52,22.586a12.7,12.7,0,0,1,7.075-.04,15.362,15.362,0,0,1,6.773,4.16,16.34,16.34,0,0,1,4.26,6.713,12.336,12.336,0,0,1,.12,7.035A14.9,14.9,0,0,1,58.73,47Zm-.8-.8a4.424,4.424,0,0,0,1.447-3.055,7.436,7.436,0,0,0-1.629-4.08,47.429,47.429,0,0,0-5.406-6.17,47.884,47.884,0,0,0-6.211-5.446,7.439,7.439,0,0,0-4.079-1.628,4.427,4.427,0,0,0-3.055,1.447,4.529,4.529,0,0,0-1.467,3.075,7.291,7.291,0,0,0,1.608,4.1,47.805,47.805,0,0,0,5.446,6.211,47.351,47.351,0,0,0,6.17,5.406,7.289,7.289,0,0,0,4.1,1.608A4.526,4.526,0,0,0,57.926,46.2Z" transform="translate(-15.327 -10.008)" fill="#ff6854"/>
      <path id="Path_940-2" data-name="Path 940" d="M116.056,47a15.054,15.054,0,0,1-6.572,4.04,12.235,12.235,0,0,1-7.075-.12,16.375,16.375,0,0,1-6.693-4.241,15.233,15.233,0,0,1-4.12-6.733,12.836,12.836,0,0,1,.04-7.114,15.843,15.843,0,0,1,10.21-10.25,12.706,12.706,0,0,1,7.075-.04,15.362,15.362,0,0,1,6.773,4.16,16.35,16.35,0,0,1,4.261,6.712,12.336,12.336,0,0,1,.12,7.035A14.9,14.9,0,0,1,116.056,47Zm-.8-.8a4.425,4.425,0,0,0,1.447-3.055,7.436,7.436,0,0,0-1.629-4.08,47.43,47.43,0,0,0-5.406-6.17,47.884,47.884,0,0,0-6.211-5.446,7.439,7.439,0,0,0-4.079-1.628,4.428,4.428,0,0,0-3.055,1.447,4.527,4.527,0,0,0-1.467,3.075,7.291,7.291,0,0,0,1.608,4.1,47.805,47.805,0,0,0,5.446,6.211,47.351,47.351,0,0,0,6.17,5.406,7.288,7.288,0,0,0,4.1,1.608A4.524,4.524,0,0,0,115.253,46.2Z" transform="translate(-41.332 -10.008)" fill="#ff6854"/>
      <path id="Path_941-2" data-name="Path 941" d="M161.228,41.742a12.053,12.053,0,0,1-6.026-1.507,10.5,10.5,0,0,1-4.235-4.661,18.249,18.249,0,0,1-1.564-8.1,17.309,17.309,0,0,1,1.763-8.271,11.87,11.87,0,0,1,4.662-4.889,12.72,12.72,0,0,1,6.31-1.62,17.807,17.807,0,0,1,3.808.4,11.735,11.735,0,0,1,3.241,1.194V6.9a3.3,3.3,0,0,0-.369-1.762,2.305,2.305,0,0,0-1.564-.8l-1.08-.227V3.541l10.346-2.5.625.512-.227,7.958v27.8a3.752,3.752,0,0,0,.4,1.848,2.231,2.231,0,0,0,1.478.995l.511.17v.569l-9.72.625-.512-2.046a13.842,13.842,0,0,1-3.5,1.648A14.286,14.286,0,0,1,161.228,41.742Zm3.3-2.1a7.364,7.364,0,0,0,4.377-1.421V15.65a7.843,7.843,0,0,0-4.32-1.364q-2.728,0-4.662,3.155t-1.933,9.92q0,6.766,1.82,9.522A5.46,5.46,0,0,0,164.524,39.638Z" transform="translate(-67.774 -0.472)" fill="#ff6854"/>
      <path id="Path_942-2" data-name="Path 942" d="M208.915,40.936v-.569l.8-.227a2.645,2.645,0,0,0,1.564-1.024A3.4,3.4,0,0,0,211.7,37.3V19.506a3.086,3.086,0,0,0-.426-1.791,2.421,2.421,0,0,0-1.564-.824l-.8-.17v-.569l10.4-3.354.569.569-.171,8.072V37.355a3.4,3.4,0,0,0,.426,1.819,2.613,2.613,0,0,0,1.507,1.023l.568.17v.569h-13.3Zm6.708-31.151a4.659,4.659,0,0,1-3.268-1.222,4.015,4.015,0,0,1-1.336-3.1,3.993,3.993,0,0,1,1.336-3.126,4.727,4.727,0,0,1,3.268-1.194,4.628,4.628,0,0,1,3.24,1.194,4.035,4.035,0,0,1,1.308,3.126,4.057,4.057,0,0,1-1.308,3.1A4.564,4.564,0,0,1,215.623,9.785Z" transform="translate(-94.77 -0.519)" fill="#ff6854"/>
      <path id="Path_943-2" data-name="Path 943" d="M252.3,22.369a12.45,12.45,0,0,1,6.31,1.506,10.289,10.289,0,0,1,4.008,4.093,12.218,12.218,0,0,1,1.392,5.884q0,.626-.056,1.279a5.138,5.138,0,0,1-.227,1.165h-16.94q.055,6.139,2.188,8.839a7.584,7.584,0,0,0,6.339,2.7,10.051,10.051,0,0,0,4.6-.909,11.25,11.25,0,0,0,3.3-2.672l.568.512a13.069,13.069,0,0,1-4.689,4.889,13.372,13.372,0,0,1-7.021,1.762,14.517,14.517,0,0,1-7.162-1.734,12.231,12.231,0,0,1-4.889-4.974,15.953,15.953,0,0,1-1.763-7.731,14.651,14.651,0,0,1,2.047-7.93,13.76,13.76,0,0,1,5.258-4.974A14.16,14.16,0,0,1,252.3,22.369Zm-.17,1.137a4.189,4.189,0,0,0-2.813.995,6.8,6.8,0,0,0-1.82,3.525,31.584,31.584,0,0,0-.71,7.134h9.72q.568-6.195-.455-8.925A3.861,3.861,0,0,0,252.125,23.506Z" transform="translate(-108.08 -10.147)" fill="#ff6854"/>
    </g>
    <g id="foodie_logo_4-03-3" data-name="foodie_logo_4-03" transform="translate(894 6882)">
      <path id="Path_938-3" data-name="Path 938" d="M.027,19.478V19.2l.356-.082a1.6,1.6,0,0,0,.822-.479,1.3,1.3,0,0,0,.3-.89q0-1.013.014-2.014t.014-2.014V6.849H0v-.3l.6-.11A1.07,1.07,0,0,0,1.4,6.054a2.176,2.176,0,0,0,.356-.9,6.124,6.124,0,0,1,.808-1.877A9.552,9.552,0,0,1,3.781,1.781,6.06,6.06,0,0,1,5.986.4,7.06,7.06,0,0,1,8.273,0a4.409,4.409,0,0,1,2,.452,1.547,1.547,0,0,1,.9,1.493,1.546,1.546,0,0,1-.438,1.164,1.7,1.7,0,0,1-1.233.425A2.165,2.165,0,0,1,8.3,3.178a3.624,3.624,0,0,1-1.069-1.26l-.383-.466a.768.768,0,0,0-.6-.37q-.3.014-.438.452A18.68,18.68,0,0,0,5.52,3.781q-.1,1.288-.1,2.52H8.493v.548H5.424V17.7a1.3,1.3,0,0,0,1.1,1.343l.685.164v.274H.027Z" transform="translate(0 0)" fill="#ff6854"/>
      <path id="Path_939-3" data-name="Path 939" d="M45.808,34.083a7.255,7.255,0,0,1-3.167,1.947,5.9,5.9,0,0,1-3.41-.058,7.9,7.9,0,0,1-3.225-2.044,7.341,7.341,0,0,1-1.986-3.245,6.187,6.187,0,0,1,.019-3.429,7.634,7.634,0,0,1,4.92-4.94A6.119,6.119,0,0,1,42.37,22.3a7.4,7.4,0,0,1,3.264,2,7.875,7.875,0,0,1,2.053,3.235,5.945,5.945,0,0,1,.058,3.39A7.179,7.179,0,0,1,45.808,34.083Zm-.387-.387a2.132,2.132,0,0,0,.7-1.472,3.584,3.584,0,0,0-.785-1.966,22.857,22.857,0,0,0-2.605-2.974,23.076,23.076,0,0,0-2.993-2.625,3.585,3.585,0,0,0-1.966-.785,2.133,2.133,0,0,0-1.472.7,2.182,2.182,0,0,0-.707,1.482,3.514,3.514,0,0,0,.775,1.976,23.039,23.039,0,0,0,2.625,2.993,22.82,22.82,0,0,0,2.974,2.605,3.513,3.513,0,0,0,1.976.775A2.181,2.181,0,0,0,45.421,33.7Z" transform="translate(-24.891 -16.253)" fill="#ff6854"/>
      <path id="Path_940-3" data-name="Path 940" d="M103.134,34.082a7.255,7.255,0,0,1-3.167,1.947,5.9,5.9,0,0,1-3.41-.058,7.891,7.891,0,0,1-3.225-2.044,7.341,7.341,0,0,1-1.985-3.245,6.186,6.186,0,0,1,.019-3.429,7.635,7.635,0,0,1,4.92-4.94,6.124,6.124,0,0,1,3.41-.019,7.4,7.4,0,0,1,3.264,2,7.879,7.879,0,0,1,2.053,3.235,5.945,5.945,0,0,1,.058,3.39A7.178,7.178,0,0,1,103.134,34.082Zm-.387-.387a2.132,2.132,0,0,0,.7-1.472,3.584,3.584,0,0,0-.785-1.966,22.858,22.858,0,0,0-2.605-2.974,23.077,23.077,0,0,0-2.993-2.625,3.585,3.585,0,0,0-1.966-.785,2.134,2.134,0,0,0-1.472.7,2.182,2.182,0,0,0-.707,1.482,3.514,3.514,0,0,0,.775,1.976,23.039,23.039,0,0,0,2.625,2.993,22.819,22.819,0,0,0,2.974,2.605,3.512,3.512,0,0,0,1.976.775A2.18,2.18,0,0,0,102.747,33.7Z" transform="translate(-67.123 -16.253)" fill="#ff6854"/>
      <path id="Path_941-3" data-name="Path 941" d="M155.1,20.655a5.809,5.809,0,0,1-2.9-.726,5.059,5.059,0,0,1-2.041-2.246,8.8,8.8,0,0,1-.754-3.9,8.341,8.341,0,0,1,.849-3.986A5.72,5.72,0,0,1,152.5,7.437a6.13,6.13,0,0,1,3.041-.781,8.582,8.582,0,0,1,1.835.192,5.655,5.655,0,0,1,1.562.575V3.862a1.592,1.592,0,0,0-.178-.849,1.111,1.111,0,0,0-.754-.383l-.521-.11V2.245l4.986-1.205.3.247-.11,3.835v13.4a1.808,1.808,0,0,0,.192.89,1.075,1.075,0,0,0,.712.479l.246.082v.274l-4.684.3-.247-.986a6.671,6.671,0,0,1-1.685.794A6.885,6.885,0,0,1,155.1,20.655Zm1.589-1.014a3.549,3.549,0,0,0,2.109-.685V8.081a3.78,3.78,0,0,0-2.082-.658,2.659,2.659,0,0,0-2.247,1.52,9.442,9.442,0,0,0-.932,4.781,8.77,8.77,0,0,0,.877,4.589A2.631,2.631,0,0,0,156.691,19.642Z" transform="translate(-110.064 -0.766)" fill="#ff6854"/>
      <path id="Path_942-3" data-name="Path 942" d="M208.915,20.321v-.274l.383-.109a1.275,1.275,0,0,0,.754-.493,1.64,1.64,0,0,0,.205-.877V9.993a1.487,1.487,0,0,0-.205-.863,1.167,1.167,0,0,0-.754-.4l-.383-.082V8.377l5.013-1.616.274.274-.082,3.89V18.6a1.641,1.641,0,0,0,.206.877,1.259,1.259,0,0,0,.726.493l.274.082v.274h-6.41Zm3.233-15.013a2.245,2.245,0,0,1-1.575-.589,1.935,1.935,0,0,1-.644-1.493,1.924,1.924,0,0,1,.644-1.507,2.278,2.278,0,0,1,1.575-.575,2.23,2.23,0,0,1,1.561.575,1.944,1.944,0,0,1,.63,1.507,1.955,1.955,0,0,1-.63,1.493A2.2,2.2,0,0,1,212.148,5.309Z" transform="translate(-153.906 -0.843)" fill="#ff6854"/>
      <path id="Path_943-3" data-name="Path 943" d="M245.021,22.369a6,6,0,0,1,3.041.726,4.959,4.959,0,0,1,1.931,1.973,5.888,5.888,0,0,1,.671,2.835q0,.3-.027.616a2.476,2.476,0,0,1-.11.562h-8.164a7.04,7.04,0,0,0,1.055,4.26,3.655,3.655,0,0,0,3.055,1.3,4.844,4.844,0,0,0,2.219-.438,5.422,5.422,0,0,0,1.589-1.288l.274.247a6.3,6.3,0,0,1-2.26,2.356,6.444,6.444,0,0,1-3.384.849,7,7,0,0,1-3.452-.836,5.894,5.894,0,0,1-2.356-2.4,7.688,7.688,0,0,1-.849-3.726,7.061,7.061,0,0,1,.987-3.822,6.631,6.631,0,0,1,2.534-2.4A6.824,6.824,0,0,1,245.021,22.369Zm-.082.548a2.019,2.019,0,0,0-1.356.479,3.279,3.279,0,0,0-.877,1.7,15.222,15.222,0,0,0-.342,3.438h4.684a10.621,10.621,0,0,0-.219-4.3A1.861,1.861,0,0,0,244.939,22.917Z" transform="translate(-175.519 -16.479)" fill="#ff6854"/>
    </g>
  </g>
</svg>
