<svg xmlns="http://www.w3.org/2000/svg" width="254.139" height="230.684" viewBox="0 0 254.139 230.684">
  <g id="Group_1195" data-name="Group 1195" transform="translate(-580.435 -6960.776)">
    <path id="Path_949" data-name="Path 949" d="M102.555,335.725s-180.687-38.858-62.391-158.8,122.07,64.121,122.07,64.121S175.277,350.365,102.555,335.725Z" transform="matrix(0.407, -0.914, 0.914, 0.407, 455.883, 7054.359)" fill="#fbf8fb"/>
    <g id="produktu_paieska-06" data-name="produktu paieska-06" transform="translate(607 7007.313)">
      <path id="Path_540" data-name="Path 540" d="M97.989,31.765c-4.465,5.363-4.506,12.091-4.186,15.4a11.561,11.561,0,0,0,.856,3.366l4.506,10.742-17.08,8.911-4.643-8.18a13.184,13.184,0,0,0-4.973-5.075C66.114,53.4,54,53.815,54,53.815s1.54-6.506.644-8.249c-.777-1.512,5.241,1.05,9.273.413,0,0,7.226,3.9,10.447,3.609,1.776-.159,3.119-2.433,2.794-4.318-.282-1.637-4.621-3.463-7.171-5.258a16.891,16.891,0,0,0,1.9-6.9s7.007,3.739,8.2,3.777c0,0,.145,4.139,2.8,6.349a3.108,3.108,0,0,0,4.553-.642c.74-1.136.81-3.623.585-6.894,0,0,2.528-3.532,2.757-4.779Z" transform="translate(3.501 1.303)" fill="#f5e9ed" stroke="#392860" stroke-linecap="round" stroke-linejoin="round" stroke-miterlimit="10" stroke-width="2"/>
      <path id="Path_541" data-name="Path 541" d="M193.3,93.36H41.529A19.546,19.546,0,0,1,21.983,73.815h0A19.546,19.546,0,0,1,41.529,54.269H193.3a19.546,19.546,0,0,1,19.546,19.546h0A19.546,19.546,0,0,1,193.3,93.36Z" transform="translate(0.451 3.526)" fill="#fff" stroke="#392860" stroke-miterlimit="10" stroke-width="2"/>
      <path id="Path_542" data-name="Path 542" d="M181.332,54.269H159.163V93.36h22.169a19.546,19.546,0,0,0,19.546-19.546h0A19.546,19.546,0,0,0,181.332,54.269Z" transform="translate(13.518 3.526)" fill="#ff6854" stroke="#392860" stroke-miterlimit="10" stroke-width="2"/>
      <g id="Group_687_1_" transform="translate(182.579 67.982)">
        <g id="Ellipse_4_1_" transform="translate(0 0)">
          <ellipse id="Ellipse_32" data-name="Ellipse 32" cx="6.572" cy="6.572" rx="6.572" ry="6.572" fill="none"/>
          <ellipse id="Ellipse_33" data-name="Ellipse 33" cx="5.476" cy="5.476" rx="5.476" ry="5.476" transform="translate(1.095 1.095)" fill="none" stroke="#fff" stroke-width="2"/>
        </g>
        <line id="Line_8_1_" x2="5.476" y2="6.571" transform="translate(10.405 11.5)" fill="none" stroke="#fff" stroke-linecap="round" stroke-width="2"/>
      </g>
      <g id="Group_698" data-name="Group 698" transform="translate(0 48.324)">
        <path id="Path_543" data-name="Path 543" d="M39,84.287c-1.422-2.07-2.962-3.857-3.918-5.627a24,24,0,0,1-2.6-7.59c-2.547-15.837-13.6-14.2-15.672-13.9-2.019.293-13.2,1.446-11.65,17.411a23.963,23.963,0,0,1-.6,8c-.478,1.954-1.516,4.073-2.369,6.435-2.7,7.476,2.165,25.894,21.647,22.847C43.453,109.886,43.5,90.838,39,84.287Z" transform="translate(-1.5 -44.54)" fill="#e5f4d0" stroke="#392860" stroke-linejoin="round" stroke-miterlimit="10" stroke-width="2"/>
        <path id="Path_544" data-name="Path 544" d="M7.6,50.985s6.143-1.671,8.622,6.763" transform="translate(-0.919 -45.123)" fill="none" stroke="#392860" stroke-linecap="round" stroke-linejoin="round" stroke-miterlimit="10" stroke-width="2"/>
        <path id="Path_545" data-name="Path 545" d="M15.9,58.181s-1.454-10,10.206-12.559C27.911,54.438,18.93,57.956,15.9,58.181Z" transform="translate(-0.134 -45.621)" fill="#8aac59" stroke="#392860" stroke-linecap="round" stroke-linejoin="round" stroke-miterlimit="10" stroke-width="2"/>
      </g>
      <g id="Group_699" data-name="Group 699" transform="translate(152.533 2.301)">
        <path id="Path_546" data-name="Path 546" d="M190.762,24.769s-9.075-9.028-16.691,1.117-30.3,43.948-30.3,43.948-4.925,8.014-2.156,10.537l.561.51c2.773,2.517,10.285-3.144,10.285-3.144s1.808-1.48,4.687-3.849c9.138-7.517,29.062-23.984,36.194-30.48,9.379-8.542-.469-16.722-.469-16.722Z" transform="translate(-140.768 -1.937)" fill="#f8a9a0" stroke="#392860" stroke-linejoin="round" stroke-miterlimit="10" stroke-width="2"/>
        <line id="Line_42" data-name="Line 42" x1="2.881" y1="4.431" transform="translate(19.519 50.863)" fill="#fff" stroke="#392860" stroke-linecap="round" stroke-linejoin="round" stroke-miterlimit="10" stroke-width="2"/>
        <line id="Line_43" data-name="Line 43" x1="1.211" y1="6.265" transform="translate(13.998 66.48)" fill="#fff" stroke="#392860" stroke-linecap="round" stroke-linejoin="round" stroke-miterlimit="10" stroke-width="2"/>
        <line id="Line_44" data-name="Line 44" x1="1.212" y1="6.265" transform="translate(32.364 50.082)" fill="#fff" stroke="#392860" stroke-linecap="round" stroke-linejoin="round" stroke-miterlimit="10" stroke-width="2"/>
        <line id="Line_45" data-name="Line 45" x1="5.089" y1="7.444" transform="translate(44.758 36.452)" fill="#fff" stroke="#392860" stroke-linecap="round" stroke-linejoin="round" stroke-miterlimit="10" stroke-width="2"/>
        <line id="Line_46" data-name="Line 46" x1="4.745" y1="4.314" transform="translate(27.346 34.588)" fill="#fff" stroke="#392860" stroke-linecap="round" stroke-linejoin="round" stroke-miterlimit="10" stroke-width="2"/>
        <path id="Path_547" data-name="Path 547" d="M183.741,29.208s-5.818-3.62-8.289-2.072" transform="translate(-137.464 -1.396)" fill="#fff" stroke="#392860" stroke-linecap="round" stroke-linejoin="round" stroke-miterlimit="10" stroke-width="2"/>
        <path id="Path_548" data-name="Path 548" d="M189,26.241l15.311-13.162-4.75-4.32L187.126,24.491Z" transform="translate(-136.352 -3.11)" fill="#fff" stroke="#392860" stroke-linecap="round" stroke-linejoin="round" stroke-miterlimit="10" stroke-width="2"/>
        <path id="Path_549" data-name="Path 549" d="M190.636,29.577l19.51-5.2-2.4-5.956-18.036,8.762Z" transform="translate(-136.106 -2.189)" fill="#fff" stroke="#392860" stroke-linecap="round" stroke-linejoin="round" stroke-miterlimit="10" stroke-width="2"/>
        <path id="Path_550" data-name="Path 550" d="M182.727,23.516,186.051,3.6l6.156,1.825L185.194,24.21Z" transform="translate(-136.771 -3.601)" fill="#fff" stroke="#392860" stroke-linecap="round" stroke-linejoin="round" stroke-miterlimit="10" stroke-width="2"/>
      </g>
      <g id="Group_700" data-name="Group 700" transform="translate(37.092 0)">
        <path id="Path_551" data-name="Path 551" d="M51.2,23.411S49.943,2.021,69.621,9.179C76.152-2.2,93.56-1.26,94.086,14.18c9.818,2.757,13.32,2.983,12.774,11.03s-6.665,9.911-14.3,8.516c-3.585,7.37-9.979,7.913-18.9,2.188,0,0-1.108,17.934-17.526,11.5,0,0,1.677,9.467-3.016,13.981a5.31,5.31,0,0,1-9.19-3.069S31.508,59.954,38.7,47.28c0,0-8.366-6.825,1.412-12.823C40.111,34.457,37.123,16.577,51.2,23.411Z" transform="translate(-35.366 -1.5)" fill="#8aac59" stroke="#392860" stroke-linecap="round" stroke-linejoin="round" stroke-miterlimit="10" stroke-width="2"/>
        <path id="Path_552" data-name="Path 552" d="M52.78,34.155s.344-9.036,7.706-7.144c0,0,2.542-14.667,13.3-9.971" transform="translate(-33.708 -0.108)" fill="none" stroke="#392860" stroke-linecap="round" stroke-linejoin="round" stroke-miterlimit="10" stroke-width="2"/>
        <path id="Path_553" data-name="Path 553" d="M86.29,19.371s5.977-2.409,9.048,2.97" transform="translate(-30.516 0.151)" fill="none" stroke="#392860" stroke-linecap="round" stroke-linejoin="round" stroke-miterlimit="10" stroke-width="2"/>
      </g>
    </g>
  </g>
</svg>
