<svg xmlns="http://www.w3.org/2000/svg" width="152.607" height="139.5" viewBox="0 0 152.607 139.5"><defs><style>.a,.c,.f{fill:#f6f9ff;}.b{fill:#e5ecfd;}.c,.d,.e,.f,.g,.h,.i{stroke:#a3aff3;stroke-linecap:round;}.c,.d,.e,.g,.h,.i{stroke-linejoin:round;stroke-miterlimit:10;}.c,.d,.f,.h,.i{stroke-width:2px;}.d,.e,.g{fill:none;}.e{stroke-width:3px;}.g{stroke-width:5px;}.h,.j{fill:#a3aff3;}.i{fill:#fff;}</style></defs><g transform="translate(0)"><path class="a" d="M77.855,1l19.02,20.14V129.32H1V3.27a2.331,2.331,0,0,1,.628-1.605A2.113,2.113,0,0,1,3.145,1H77.855" transform="translate(-1 -1)"/><path class="b" d="M119.738,21.194c0,1.113-1.278,1.716-2.319,1.716H100.672A1.954,1.954,0,0,1,98.785,20.9V3.014a2.078,2.078,0,0,1,.553-1.425A1.841,1.841,0,0,1,100.672,1C106.882,7.632,113.525,14.561,119.738,21.194Z" transform="translate(-23.823 -1)"/><g transform="translate(12.033 19.988)"><path class="c" d="M40.229,41.88A11.766,11.766,0,1,1,28.463,30.113,11.766,11.766,0,0,1,40.229,41.88Z" transform="translate(-16.697 -27.783)"/><path class="c" d="M46.141,41.17a14.1,14.1,0,0,0-14.1-14.1v14.1Z" transform="translate(-20.279 -27.074)"/><line class="d" y1="9.166" x2="7.415" transform="translate(4.395 14.1)"/></g><g transform="translate(12.035 57.052)"><rect class="c" width="8.963" height="8.964" transform="translate(1.709 4.717)"/><path class="e" d="M16.7,82.529l5.538,3.507L27.37,75.422" transform="translate(-16.7 -75.422)"/></g><g transform="translate(12.444 76.746)"><path class="f" d="M0,0H8.963V8.964H0Z" transform="translate(1.712 4.718)"/><path class="e" d="M17.233,108.221l5.543,3.507,5.132-10.614" transform="translate(-17.233 -101.114)"/></g><g transform="translate(12.798 97.386)"><rect class="c" width="8.963" height="8.964" transform="translate(1.712 4.718)"/><path class="e" d="M17.694,135.144l5.543,3.507,5.132-10.614" transform="translate(-17.694 -128.037)"/></g><line class="d" x2="27.833" transform="translate(33.733 66.25)"/><line class="g" x2="11.734" transform="translate(68.938 66.25)"/><line class="d" x2="27.833" transform="translate(34.144 85.945)"/><line class="g" x2="11.734" transform="translate(69.35 85.945)"/><line class="d" x2="27.833" transform="translate(34.498 106.585)"/><line class="d" x2="11.734" transform="translate(69.703 106.585)"/><g transform="translate(50.472 21.411)"><rect class="h" width="5.649" height="21.481"/><rect class="h" width="5.306" height="9.103" transform="translate(9.684 12.378)"/><rect class="h" width="5.306" height="14.175" transform="translate(18.951 7.306)"/><line class="i" x2="24.257" transform="translate(0 24.414)"/></g></g><g transform="translate(59.479 45.825)"><path class="h" d="M109.017,60.778a30.428,30.428,0,1,0,30.428,30.428,30.428,30.428,0,0,0-30.428-30.428Zm0,55.054a24.624,24.624,0,1,1,24.624-24.624,24.624,24.624,0,0,1-24.624,24.624Z" transform="translate(-78.589 -60.778)"/><rect class="h" width="5.661" height="11.865" transform="translate(49.78 54.333) rotate(-45)"/><path class="j" d="M188.089,163.059l-7.934,7.934a1.938,1.938,0,0,1-2.739,0l-25.68-25.68a1.938,1.938,0,0,1,0-2.739l7.934-7.934a1.938,1.938,0,0,1,2.739,0l25.68,25.68A1.937,1.937,0,0,1,188.089,163.059Z" transform="translate(-95.529 -77.886)"/></g></svg>