<svg xmlns="http://www.w3.org/2000/svg" width="138.596" height="138.591" viewBox="0 0 138.596 138.591"><defs><style>.a{fill:#e5ecfd;}.b{fill:#a3aff3;}.c,.d{fill:none;stroke-width:2px;}.c{stroke:#000;stroke-linejoin:round;stroke-miterlimit:10;}.d{stroke:#a3aff3;}</style></defs><g transform="translate(0 0)"><path class="a" d="M55.688,2.034,2.984,34.159c-3.5,2.13-2.075,7.813,1.96,7.813H115.516c3.749,0,5.062-5.29,1.8-7.254L62.958,2.013a6.967,6.967,0,0,0-7.271.021Z" transform="translate(-1 -1)"/><g transform="translate(47.201 40.971)"><path class="b" d="M84.627,54.446H62.586v5.525a1.96,1.96,0,0,0,1.7,2.139H84.627a1.96,1.96,0,0,0,1.7-2.139V54.446Z" transform="translate(-62.574 -54.446)"/><path class="c" d="M64.287,137.71H86.329v-5.526a1.96,1.96,0,0,0-1.7-2.139H64.287a1.96,1.96,0,0,0-1.7,2.139v5.526Z" transform="translate(-62.574 -72.092)"/><rect class="a" width="17.889" height="50.292" transform="translate(2.939 7.663)"/></g><g transform="translate(12.393 40.971)"><path class="b" d="M39.22,54.446H17.179v5.525a1.96,1.96,0,0,0,1.7,2.139H39.22a1.96,1.96,0,0,0,1.7-2.139V54.446Z" transform="translate(-17.168 -54.446)"/><path class="b" d="M18.881,137.71H40.922v-5.526a1.96,1.96,0,0,0-1.7-2.139H18.881a1.96,1.96,0,0,0-1.7,2.139v5.526Z" transform="translate(-17.167 -72.092)"/><rect class="a" width="17.889" height="50.292" transform="translate(2.938 7.663)"/></g><g transform="translate(81.569 40.971)"><path class="b" d="M129.46,54.446H107.419v5.525a1.96,1.96,0,0,0,1.7,2.139h20.339a1.96,1.96,0,0,0,1.7-2.139V54.446h-1.7Z" transform="translate(-107.406 -54.446)"/><path class="c" d="M109.119,137.71H131.16v-5.526a1.96,1.96,0,0,0-1.7-2.139H109.119a1.96,1.96,0,0,0-1.7,2.139v5.526Z" transform="translate(-107.405 -72.092)"/><rect class="a" width="17.889" height="50.292" transform="translate(2.94 7.663)"/></g><path class="a" d="M113.533,140.044H6.235A5.235,5.235,0,0,0,1,145.279v8.18H118.768v-8.18a5.234,5.234,0,0,0-5.236-5.235Z" transform="translate(-1 -33.454)"/><path class="d" d="M8.809,0A8.809,8.809,0,1,1,0,8.809,8.809,8.809,0,0,1,8.809,0Z" transform="translate(50.409 13.297)"/></g><g transform="translate(41.432 62.239)"><path class="b" d="M150.378,82.191H123.623a1.781,1.781,0,0,0-1.835,1.72v4.143H57.463a2.342,2.342,0,0,0-2.415,2.264v65.959a2.342,2.342,0,0,0,2.415,2.264H149.8a2.343,2.343,0,0,0,2.415-2.264V83.911a1.78,1.78,0,0,0-1.834-1.72Z" transform="translate(-55.048 -82.19)"/><path class="a" d="M132.61,127.874l-19.757-19.757a1.113,1.113,0,0,0-1.574,0L91.525,127.874a1.113,1.113,0,0,0,.786,1.9h13.537v18.421a1.339,1.339,0,0,0,1.339,1.339h9.762a1.339,1.339,0,0,0,1.339-1.339V129.773h13.537a1.113,1.113,0,0,0,.786-1.9Z" transform="translate(-63.486 -88.166)"/></g></svg>