<svg xmlns="http://www.w3.org/2000/svg" xmlns:xlink="http://www.w3.org/1999/xlink" width="603.437" height="250.919" viewBox="0 0 603.437 250.919"><defs><style>.a,.f{fill:#4f786e;}.a{stroke:#50786e;}.a,.c{stroke-miterlimit:10;}.b{fill:#599941;}.c{fill:none;stroke:#599941;}.d{fill:url(#a);}.e{fill:#2f5b4b;}.g{fill:#82a99a;}.h{fill:#8fca75;}.i{fill:#bce4e5;}.j,.t{fill:#e2e2e2;}.j{stroke:#cfcfce;}.j,.u{stroke-linejoin:round;}.k{fill:#75a55d;}.l{fill:#568e60;}.m{fill:#5dac97;}.n{fill:#579e8a;}.o{fill:#618b8b;}.p{fill:#eef5ff;stroke:#707070;}.q,.u{fill:#fff;}.r{fill:#e0e0e0;}.s{fill:#8b8987;}.u{stroke:#e2e2e2;}.v{fill:silver;}.w{fill:#565554;}.x{fill:#fbb78e;}.y{fill:#e2eafd;}.z{fill:#5b7c48;}.aa{fill:#7d84bd;}.ab{fill:#ccd1e9;}.ac{filter:url(#z);}.ad{filter:url(#x);}.ae{filter:url(#v);}.af{filter:url(#t);}.ag{filter:url(#r);}.ah{filter:url(#p);}.ai{filter:url(#n);}.aj{filter:url(#l);}.ak{filter:url(#j);}.al{filter:url(#h);}.am{filter:url(#f);}.an{filter:url(#d);}.ao{filter:url(#b);}</style><linearGradient id="a" x1="0.5" x2="0.5" y2="1" gradientUnits="objectBoundingBox"><stop offset="0" stop-color="#c8cbf0"/><stop offset="1" stop-color="#6976c4"/></linearGradient><filter id="b" x="237.065" y="190.205" width="28.036" height="28.036" filterUnits="userSpaceOnUse"><feOffset dy="2" input="SourceAlpha"/><feGaussianBlur stdDeviation="1.5" result="c"/><feFlood flood-color="#19227a" flood-opacity="0.157"/><feComposite operator="in" in2="c"/><feComposite in="SourceGraphic"/></filter><filter id="d" x="262.444" y="191.171" width="79.682" height="18.518" filterUnits="userSpaceOnUse"><feOffset dy="2" input="SourceAlpha"/><feGaussianBlur stdDeviation="1.5" result="e"/><feFlood flood-color="#19227a" flood-opacity="0.157"/><feComposite operator="in" in2="e"/><feComposite in="SourceGraphic"/></filter><filter id="f" x="262.445" y="203.005" width="42.54" height="13.577" filterUnits="userSpaceOnUse"><feOffset dy="2" input="SourceAlpha"/><feGaussianBlur stdDeviation="1.5" result="g"/><feFlood flood-color="#19227a" flood-opacity="0.157"/><feComposite operator="in" in2="g"/><feComposite in="SourceGraphic"/></filter><filter id="h" x="261.599" y="156.047" width="28.036" height="28.036" filterUnits="userSpaceOnUse"><feOffset dy="2" input="SourceAlpha"/><feGaussianBlur stdDeviation="1.5" result="i"/><feFlood flood-color="#19227a" flood-opacity="0.157"/><feComposite operator="in" in2="i"/><feComposite in="SourceGraphic"/></filter><filter id="j" x="286.978" y="157.004" width="79.681" height="18.517" filterUnits="userSpaceOnUse"><feOffset dy="2" input="SourceAlpha"/><feGaussianBlur stdDeviation="1.5" result="k"/><feFlood flood-color="#19227a" flood-opacity="0.157"/><feComposite operator="in" in2="k"/><feComposite in="SourceGraphic"/></filter><filter id="l" x="286.978" y="168.843" width="42.54" height="13.577" filterUnits="userSpaceOnUse"><feOffset dy="2" input="SourceAlpha"/><feGaussianBlur stdDeviation="1.5" result="m"/><feFlood flood-color="#19227a" flood-opacity="0.157"/><feComposite operator="in" in2="m"/><feComposite in="SourceGraphic"/></filter><filter id="n" x="260.316" y="87.725" width="28.036" height="28.036" filterUnits="userSpaceOnUse"><feOffset dy="2" input="SourceAlpha"/><feGaussianBlur stdDeviation="1.5" result="o"/><feFlood flood-color="#19227a" flood-opacity="0.157"/><feComposite operator="in" in2="o"/><feComposite in="SourceGraphic"/></filter><filter id="p" x="285.698" y="88.689" width="79.682" height="18.518" filterUnits="userSpaceOnUse"><feOffset dy="2" input="SourceAlpha"/><feGaussianBlur stdDeviation="1.5" result="q"/><feFlood flood-color="#19227a" flood-opacity="0.157"/><feComposite operator="in" in2="q"/><feComposite in="SourceGraphic"/></filter><filter id="r" x="285.7" y="100.519" width="42.54" height="13.579" filterUnits="userSpaceOnUse"><feOffset dy="2" input="SourceAlpha"/><feGaussianBlur stdDeviation="1.5" result="s"/><feFlood flood-color="#19227a" flood-opacity="0.157"/><feComposite operator="in" in2="s"/><feComposite in="SourceGraphic"/></filter><filter id="t" x="287.987" y="121.884" width="28.036" height="28.036" filterUnits="userSpaceOnUse"><feOffset dy="2" input="SourceAlpha"/><feGaussianBlur stdDeviation="1.5" result="u"/><feFlood flood-color="#19227a" flood-opacity="0.157"/><feComposite operator="in" in2="u"/><feComposite in="SourceGraphic"/></filter><filter id="v" x="313.364" y="122.853" width="79.681" height="18.518" filterUnits="userSpaceOnUse"><feOffset dy="2" input="SourceAlpha"/><feGaussianBlur stdDeviation="1.5" result="w"/><feFlood flood-color="#19227a" flood-opacity="0.157"/><feComposite operator="in" in2="w"/><feComposite in="SourceGraphic"/></filter><filter id="x" x="313.367" y="134.686" width="42.54" height="13.577" filterUnits="userSpaceOnUse"><feOffset dy="2" input="SourceAlpha"/><feGaussianBlur stdDeviation="1.5" result="y"/><feFlood flood-color="#19227a" flood-opacity="0.157"/><feComposite operator="in" in2="y"/><feComposite in="SourceGraphic"/></filter><filter id="z" x="248.767" y="40.424" width="114.691" height="42.64" filterUnits="userSpaceOnUse"><feOffset dy="2" input="SourceAlpha"/><feGaussianBlur stdDeviation="1.5" result="aa"/><feFlood flood-color="#19227a" flood-opacity="0.157"/><feComposite operator="in" in2="aa"/><feComposite in="SourceGraphic"/></filter></defs><g transform="translate(0 0.5)"><g transform="translate(150.996 113.654)"><path class="a" d="M302.687,200.806s.219-11.392-9.8-4.774.1,14.268.1,14.268a95.328,95.328,0,0,1-5.633,16.863,17.208,17.208,0,0,0-1.625-4.273c2.055-3.02,4.593-8.687-.64-12.129s-10.762,1.595-10.762,1.595-3.668,8.361,1.656,10.244,7.633.816,7.633.816a11.35,11.35,0,0,1,2.825,5.819c-1.416,4.38-7.515,20.661-7.515,20.661s.211-1.412-1.748-4.048c1.842-3.723,4.678-8.506.266-12.046s-11.919-2.51-11.338,4.719,2.14,10.993,10.114,8.642c1.143,3.771,1.986,3.18.186,8.483s-11.638,27.985-14.043,30.983a6.168,6.168,0,0,0,1.777.988s4.8-10.388,9.571-21.2a177.8,177.8,0,0,0,7.194-18.981,62.182,62.182,0,0,1,6.483-5.194c2.9,3.43,3.15,3.933,7.515,1.706s6.039-9.168,5.73-10.3c-.247-.91-1.394-1.021-2.2-1.234a8.209,8.209,0,0,0-5.374.844c-.562.257-1.151.622-1.58.825-2.152,1.008-3.439,1.461-3.932,6.783-1.611,1.2-4.9,3.826-4.9,3.826l3.652-11.344,3.186-1.986s-.485,4.034.874,3.206a19.785,19.785,0,0,1,4.615-2.037,7.626,7.626,0,0,1,3.461-.115c2.482-1.957,1.443-3.749,1.486-4.281,0,0-1.706-5.613-6.54-3.309a6.372,6.372,0,0,0-2.66,2.456c-.978,1.611-.671,1.7-1.259,2.5a3.879,3.879,0,0,1-2.108,1.271s3.021-8.729,4.369-11.63c2.908-1.29,3.267-1.721,3.267-1.721s3.881,6.633,10.376,3.057a8.727,8.727,0,0,0,3.629-7.124c-.011-4.805-7.846-6.359-10.808-2.388A38.707,38.707,0,0,0,295.155,216a27.759,27.759,0,0,1-2.65,1.5l2.093-6.742s5.968-1.187,7.372-7.185A22.478,22.478,0,0,0,302.687,200.806Z" transform="translate(-262.363 -193.965)"/><path class="b" d="M318.994,194.311l-2.36,5.928,4.876-2.578.22.929-5.345,2.514-.2.708,5.77-.955-.211.986-5.875,1.072,4.834,2.348-.471.932L315.6,203.86l-.7,2.44,3.881,1.778-1.1.948-3.071-1.7-.723,2.519-.753-.138.679-2.36-2.693,1.992-.6-.621,3.472-2.83.452-1.574-6.478.071-.212-1.164,6.835-.124.383-1.332-6.394-2.145,1.136-1.512,5.864,2.522-3.423-4.541,1.479-.887,2.36,4.259,2.255-5.374Z" transform="translate(-281.628 -194.015)"/><path class="b" d="M282.248,223.87l3.465,1.774-1-3.421.452-.22L286.284,226l.723.38.806-5.206.713-.081-.877,5.4.929.627,2.342-5.8.924.324-2.739,5.571.531.633,4.95-4.23.378.469-4.843,4.139.553.557,5.042-3.311.166.507-4.564,3.459.779,1.013,3.847-1.2-.225.785-3.291,1.055.207.659,2.213.6-.345.66-1.834-.68-.087.854.851,2.144-1.615-1.828.015-1.157-1.706,2.852-.665.023,2.129-3.417-.305-1.009-3.645,4.279-.678-.124,4-4.834a2.868,2.868,0,0,0-1.209-1.173c-.508.528-5.459,5.295-5.459,5.295l-.817-.308,5.835-5.525-.576-.6-6.768,4.935-.419-.682,6.521-4.707-.889-.494-6.121,3.414-.046-.811,5.168-2.988-.535-.345-4.554,1.994.25-1.124,3.64-1.324Z" transform="translate(-270.282 -205.479)"/><path class="b" d="M280.662,274.823a8.639,8.639,0,0,0-1.162-2.573c.9-1.077,3.108-3.9,3.36-5.909-1.6,2.067-3.431,4.809-4.055,4.6a5.994,5.994,0,0,1-.458-1.512,23.414,23.414,0,0,0,3.361-4.978c-.576.454-3.256,3.579-3.728,3.766l-.414-.734a25.219,25.219,0,0,0,2.51-4.294c-.765.388-3,3.427-3,3.427l-.4-1.1s1-1.682,1.641-3.024c-.7.276-1.891,2.187-2.174,2.088A8.231,8.231,0,0,0,274.5,261.8c.026,1.155.566,1.393.627,3.1a24.52,24.52,0,0,1-2.629-.885,5.311,5.311,0,0,0,2.66,1.915l.576,1.005A12.941,12.941,0,0,1,272.5,265.6c-1.209-.811.978,2.463,3.41,2.41a8.148,8.148,0,0,0,.73,1.236,6.058,6.058,0,0,1-4.614-.748c1.266,1.287.7,2.072,5.057,1.95a10.879,10.879,0,0,0,.622,1.045s-2.215,1.35-5.659-.475c2.674,2.072,2.5,2.053,6.365,1.846C279.8,274.011,280.662,274.823,280.662,274.823Z" transform="translate(-266.463 -222.76)"/><path class="b" d="M305.839,271.49a9.843,9.843,0,0,1,2.194-1.594c-.23-1.093-.7-3.905.058-5.5.333,2.056.526,4.69,1.141,4.723a6.478,6.478,0,0,0,1.1-1.006,15.536,15.536,0,0,1-.387-4.8c.258.518.971,3.7,1.27,3.99l.691-.429a17.239,17.239,0,0,1-.013-4.018c.445.527.837,3.511.837,3.511l.855-.71s-.016-1.577.1-2.791c.448.423.513,2.233.794,2.245a9.644,9.644,0,0,1,2.687-1.611c-.576.866-1.135.884-2,2.154,0,0,2.036.189,2.594.133a6.186,6.186,0,0,1-3.114.638l-.956.586a14.189,14.189,0,0,0,3.317-.024c1.386-.246-1.99,1.565-3.971.783a9.664,9.664,0,0,1-1.2.714,5.686,5.686,0,0,0,4.168.841c-1.662.589-1.569,1.354-5.109-.067-.6.39-1.014.6-1.014.6s1.181,1.7,4.9,1.368c-3.2.753-3.047.792-6.139-.545C306.943,271.14,305.839,271.49,305.839,271.49Z" transform="translate(-280.817 -223.209)"/><g transform="translate(32.62 16.068)"><line class="c" x1="13.942" y2="4.784" transform="translate(0 2.889)"/><line class="c" x1="1.477" y2="3.769" transform="translate(0.706 3.662)"/><line class="c" x1="1.59" y2="4.4" transform="translate(2.476 2.174)"/><path class="c" d="M331.269,221.884c-.089.077-3.416,5.713-3.416,5.713" transform="translate(-322.782 -221.884)"/><line class="c" x1="3.986" y2="5.397" transform="translate(6.187 0.153)"/><line class="c" x1="3.987" y2="4.433" transform="translate(7.726 0.589)"/><path class="c" d="M338.488,224.9l-3.182,2.726,3.382.822" transform="translate(-325.945 -223.164)"/><path class="c" d="M340.979,227.408l-1.927-.166,1.573-1.5" transform="translate(-327.535 -223.52)"/><line class="c" x1="5.655" y1="1.446" transform="translate(6.971 5.281)"/><line class="c" x1="5.537" y1="2.472" transform="translate(5.49 5.789)"/><line class="c" x1="4.541" y1="3.626" transform="translate(4.545 6.113)"/><path class="c" d="M329.677,233.119l-4.193-4.365,2.82-5.765" transform="translate(-321.776 -222.353)"/><line class="c" x2="2.502" y2="3.708" transform="translate(2.397 6.85)"/><line class="c" x2="0.96" y2="2.011" transform="translate(1.539 7.146)"/></g></g><path class="d" d="M0,301.653,38.15,267S89.466,204.844,161.2,243.346s159.054-23.654,159.054-23.654l61.795-41.806s65.556-46.758,127.347,7.7,64.215,81.688,94.041,116.068Z" transform="translate(0 -65.559)"/><g transform="translate(347.006 100.041)"><path class="e" d="M693.639,254.06c-.22-.551-2.864-4.075,0-25.775s.992-27.1,9.253-37.011S715.229,179.6,715.229,179.6a154,154,0,0,0-3.966,20.929c-.882,9.361,1.617,13.674-8.591,26.657a30.79,30.79,0,0,0-5.728,26.877Z" transform="translate(-640.877 -174.255)"/><path class="e" d="M704.283,267.457s-3.738-6.775,7-21.48,3.47-12.226,14.705-24.123,13.879-11.814,23.3-9.418,11.07,1.817,11.07,1.817-11.466,10.515-16.027,12.888c-5.1,2.651-12.723,3.683-19.993,11.342s-10.9,10.55-13.714,14.763-3.842,14.21-3.842,14.21Z" transform="translate(-645.689 -187.652)"/><path class="e" d="M673.461,170.312s10.905,12.64,7.931,35.194a215.74,215.74,0,0,0-.661,44.611h-3.8s2.974-11.4-3.47-33.541S673.461,170.312,673.461,170.312Z" transform="translate(-631.658 -170.312)"/><path class="e" d="M712.222,289.628s1.513-17.184,23.42-22.471,36.613,2.644,36.613,2.644a214.34,214.34,0,0,1-24.453,6.278c-12.144,2.231-16.44-4.048-22.306,1.4a32.608,32.608,0,0,0-8.1,12.144Z" transform="translate(-649.326 -210.649)"/><path class="e" d="M602.938,239.627s24.773-1.115,36.515,11.755a30.832,30.832,0,0,1,7.1,28.147l-3.14-.826s3.057-7.021.165-14.043-8.592-4.048-16.853-6.775S602.938,239.627,602.938,239.627Z" transform="translate(-602.938 -199.724)"/><path class="f" d="M711.957,193.59c-2.2,2.974-7.27,13.935-8.7,19.938-1.167,4.892-4.6,20.689-5.833,26.364-.28,1.288-.445,2.055-.445,2.055l6.388-24.178s2.258-7.821,3.415-10.85S711.957,193.59,711.957,193.59Z" transform="translate(-642.855 -180.193)"/><path class="f" d="M726.26,246.617s7.821-15.752,15.861-20.048,12.888-6.554,19.5-7.712l2.974-.771-11.676,4.3s-8.38,3.823-13.108,7.16S726.26,246.617,726.26,246.617Z" transform="translate(-655.285 -190.591)"/><path class="f" d="M730.853,278.6s8.372-6.664,24.454-7.05,19.717,0,19.717,0l-20.929.99S745.694,272.814,730.853,278.6Z" transform="translate(-657.235 -213.213)"/><path class="f" d="M677.837,180.958a103.424,103.424,0,0,1,3.084,24.564c-.11,12.723,0,26.547,0,26.547l-.884-18.615s-.416-13.769-.787-20.819a76.584,76.584,0,0,0-1.416-11.676Z" transform="translate(-634.731 -174.831)"/><path class="f" d="M612.954,242.874s17.845,4.064,32.5,16.406C632.341,253.394,612.954,242.874,612.954,242.874Z" transform="translate(-607.19 -201.113)"/></g><g transform="translate(357.069 112.268)"><path class="g" d="M703.489,260.747s5.025-9.952,5.468-17.663,2.685-17.445,5.989-27.359,13-18.425,13-18.425-3.525,11.453-3.745,20.709-10.573,26.436-10.573,26.436l-7.931,16.3Z" transform="translate(-655.683 -193.995)"/><path class="g" d="M698.689,191.557s-3.084,24.674-2.864,43.62,1.426,23.132,1.426,23.132h2.98S707.06,233.17,698.689,191.557Z" transform="translate(-652.425 -191.557)"/><path class="g" d="M638.415,194.236s24.784,13.329,28.419,36.571,6.053,28.64,6.053,28.64h-3.629s-7.27-4.627-9.253-15.862S651.192,210.649,638.415,194.236Z" transform="translate(-628.061 -192.694)"/><path class="g" d="M620.424,276.986s19.068-5.512,29.08,4.846,12.116,12.117,12.116,12.117h-3.084s-4.957-7.083-16.523-9.215A79.463,79.463,0,0,1,620.424,276.986Z" transform="translate(-620.424 -227.198)"/><path class="h" d="M731.357,206.06s-6.5,8.537-12.557,39.434C721.774,236.682,731.357,206.06,731.357,206.06Z" transform="translate(-662.182 -197.713)"/><path class="h" d="M701.39,205.1s3.209,36.02-.536,54.746C700.193,248.61,701.39,205.1,701.39,205.1Z" transform="translate(-654.48 -197.306)"/><path class="h" d="M651.047,205.1s12.888,12.259,15.531,29.357,8.041,26.436,8.041,26.436-6.485-9.568-9.694-25.28S651.047,205.1,651.047,205.1Z" transform="translate(-633.423 -197.306)"/><path class="h" d="M632.1,278.945s15.2-2.231,25.115,9.088C646.8,282.581,648.209,280.928,632.1,278.945Z" transform="translate(-625.38 -228.576)"/></g><path class="i" d="M213.525,339.439s36.652-1.624,81.271-56.276c0,0,47.538-56.276,139.17-25.974,0,0,62.68,32.587,142.888,43.29s86.582,38.963,86.582,38.963Z" transform="translate(-90.636 -101.043)"/><path class="j" d="M504.349,99.493H458.205a2.831,2.831,0,0,1-2.831-2.831V92.927a2.831,2.831,0,0,1,2.831-2.832h46.144a2.831,2.831,0,0,1,2.831,2.831v3.733a2.831,2.831,0,0,1-2.828,2.834Z" transform="translate(-193.295 -36.221)"/><g transform="translate(333.971 162.645)"><g transform="translate(8.498 20.659)"><path class="k" d="M616.13,367.989c-.094-.23-14.749-13.606-18.7-29.162s-1.765-18.018-1.765-18.018,2.727-10.3,9.324-3.5,9.752,27.066,11.05,35.471a79.651,79.651,0,0,1,.974,14.658Z" transform="translate(-595.055 -314.987)"/><path class="l" d="M603.563,315.174l16.178,52.891.879-.551Z" transform="translate(-598.666 -315.066)"/></g><g transform="translate(41.846 53.75)"><path class="h" d="M653.124,392.2c.187-.062,15.92,1.82,27.387-3.9s11.814-8.331,11.814-8.331,4.8-7.021-2.748-7.462-21.451,8.222-27.209,11.822A63.622,63.622,0,0,0,653,391.379Z" transform="translate(-653 -372.484)"/><path class="m" d="M693.542,375.792,653.124,393.6l-.124-.818Z" transform="translate(-653 -373.888)"/></g><g transform="translate(34.566)"><path class="m" d="M692.847,279.09s-11.788,3.7-22.378,15.482c1.745,5.416,6.975,4.2-3.038,3.6a53.148,53.148,0,0,0-7.246,9.3s1.472,3.676.821,5.96l-3.16-1.761s-16.77,32.361-17.5,44.445c1.762,2.039,34.975-20.641,45.318-46.1,4.38-10.475,4.9-12.514,4.9-12.514l-3.546-3.667,4.871.173Z" transform="translate(-640.35 -279.09)"/><g transform="translate(0.128)"><path class="n" d="M640.572,356.191c1.762,2.039,34.847-20.715,45.191-46.174,4.38-10.475,4.9-12.514,4.9-12.514l-3.546-3.667,4.871.173.958-14.919c-13.928,20.435-27.481,41.156-41.408,61.591C647.962,345.921,644.39,351.108,640.572,356.191Z" transform="translate(-640.572 -279.09)"/></g><path class="l" d="M692.941,279.09A123.225,123.225,0,0,0,674.7,303.435c-8.674,15.013-11.607,18.858-18.2,29.556s-15.928,23.2-15.928,23.2L657.953,333.8s14.336-23.424,17.869-29.1C679.325,299.066,692.941,279.09,692.941,279.09Z" transform="translate(-640.444 -279.09)"/></g><g transform="translate(27.312 7.009)"><path class="l" d="M645.265,291.269s-7.465,6.139-7.372,8l3.05,2.678-3.517-.818-1.706,1.834,3.237.753-3.556.617,4.02,3.034-5.728-1.332s-3.869,7.894-3.155,13.572l5.438,2.577-5.959-.336s-2.676,7.843-1.415,10.039l3.073,2.027-3.9.4s-.364,5.295,1.477,6.381l4.489.125-2.024,1.367,2.366.55-2.311.906s1.476,2.968,2.687,3.118c-1.259,2.594-1.047,7.894-2.345,10.086l1.512,1.4,2.576-11.082s5.191-1.156,6.781-4.33l-2.129-3.252,3.964,1.578s3.862-3.63,3.248-6.069l-3.762-2.449,4.034.15-2.018-2.044,2.539-.2s3.145-5.241,3.924-14.575l-5.826-.961,4.737-2.311-4.654-2,5.568-.806s-.195-7.067-1.339-7.792l-4.254-.333,2.7-2S648.973,294.232,645.265,291.269Z" transform="translate(-627.745 -291.269)"/><path class="h" d="M649.757,291.269s-5.6,18.97-6.132,24.27-4.67,31.229-4.67,31.229l-.626,1.949a19.444,19.444,0,0,0,3.728-9.138c.64-5.368,2.317-22.838,3.266-26.919S649.757,291.269,649.757,291.269Z" transform="translate(-632.237 -291.269)"/></g><path class="o" d="M642.851,405.475S630.1,387.586,609,391.835s-28.713,14.83-28.713,14.83h63.475Z" transform="translate(-580.29 -326.67)"/></g><g transform="translate(228.267 0)"><path class="p" d="M501.068-3.514H414.434A17.81,17.81,0,0,0,396.624,14.3h0V228.6a17.81,17.81,0,0,0,17.809,17.81h86.635a17.81,17.81,0,0,0,17.81-17.809h0V14.3a17.81,17.81,0,0,0-17.808-17.81Z" transform="translate(-396.624 3.514)"/><path class="q" d="M517.459,19.367A13.482,13.482,0,0,0,503.977,5.885h-11.61a7.171,7.171,0,0,1-7.17,7.171H438.134A6.353,6.353,0,0,1,431.782,6.7V5.885H419.506a13.482,13.482,0,0,0-13.482,13.482V32.135H517.459Z" transform="translate(-400.614 -0.476)"/><g transform="translate(16.17 8.728)"><rect class="r" width="6.103" height="3.329"/><path class="s" d="M424.72,11.651h3.908V14.98H424.72Z" transform="translate(-424.72 -11.651)"/><rect class="s" width="1.144" height="1.477" transform="translate(6.103 0.853)"/></g><g transform="translate(100.289 7.979)"><rect class="t" width="1.184" height="4.619" transform="translate(3.927)"/><rect class="t" width="1.184" height="3.287" transform="translate(1.952 1.332)"/><rect class="t" width="1.184" height="2.094" transform="translate(0 2.524)"/></g><path class="u" d="M500.92,35.873H434.838a4.819,4.819,0,0,1-4.819-4.819h0a4.819,4.819,0,0,1,4.819-4.819H500.92a4.819,4.819,0,0,1,4.819,4.819h0A4.819,4.819,0,0,1,500.92,35.873Z" transform="translate(-410.799 -9.113)"/><g transform="translate(101.012 17.362)"><ellipse class="t" cx="0.911" cy="0.911" rx="0.911" ry="0.911"/><ellipse class="t" cx="0.911" cy="0.911" rx="0.911" ry="0.911" transform="translate(0 3.157)"/><ellipse class="t" cx="0.911" cy="0.911" rx="0.911" ry="0.911" transform="translate(0 6.315)"/></g><g transform="translate(0 227.398)"><path class="q" d="M396.624,391.6c0,12.435,7.974,22.516,17.81,22.516h86.634c9.836,0,17.81-10.081,17.81-22.516Z" transform="translate(-396.624 -391.6)"/><g transform="translate(39.259 6.45)"><rect class="v" width="4.619" height="4.619" transform="translate(0 0.091)"/><ellipse class="v" cx="2.309" cy="2.309" rx="2.309" ry="2.309" transform="translate(18.207 0.091)"/><path class="v" d="M531.927,405.207v2.4l-2.078-1.2-2.079-1.2,2.079-1.2,2.078-1.2Z" transform="translate(-491.551 -402.807)"/></g></g></g><path class="m" d="M640.316,413.057" transform="translate(-271.799 -173.31)"/><path class="m" d="M731.821,279.377" transform="translate(-310.64 -116.566)"/><path class="w" d="M501.722-3.514H413.786a17.158,17.158,0,0,0-17.158,17.159h0v215.6A17.157,17.157,0,0,0,413.786,246.4h87.94a17.158,17.158,0,0,0,17.151-17.158V13.645A17.158,17.158,0,0,0,501.72-3.514ZM513.47,227.51a13.483,13.483,0,0,1-13.481,13.482H415.518a13.482,13.482,0,0,1-13.482-13.482V15.378A13.483,13.483,0,0,1,415.517,1.9h12.277v.818a6.353,6.353,0,0,0,6.353,6.353h47.062a7.171,7.171,0,0,0,7.17-7.17h11.609A13.482,13.482,0,0,1,513.47,15.378V227.51Z" transform="translate(-168.359 3.514)"/><g transform="translate(241.565 42.424)"><g transform="translate(0 149.78)"><g class="ao" transform="matrix(1, 0, 0, 1, -241.56, -192.7)"><ellipse class="x" cx="9.518" cy="9.518" rx="9.518" ry="9.518" transform="translate(241.56 192.7)"/></g><g transform="translate(25.379 0.966)"><g class="an" transform="matrix(1, 0, 0, 1, -266.94, -193.67)"><path class="x" d="M532.221,341.646h-66.1a2.289,2.289,0,0,1-2.289-2.288h0v-4.94a2.289,2.289,0,0,1,2.288-2.289h66.1a2.289,2.289,0,0,1,2.289,2.289h0v4.94a2.289,2.289,0,0,1-2.289,2.289Z" transform="translate(-196.88 -138.46)"/></g></g><g transform="translate(25.381 12.8)"><g class="am" transform="matrix(1, 0, 0, 1, -266.95, -205.5)"><path class="x" d="M496.276,357.268H464.924a1.093,1.093,0,0,1-1.094-1.094v-2.39a1.093,1.093,0,0,1,1.094-1.093h31.353a1.093,1.093,0,0,1,1.094,1.093v2.39a1.093,1.093,0,0,1-1.094,1.094Z" transform="translate(-196.88 -147.19)"/></g></g></g><g transform="translate(24.535 115.623)"><g class="al" transform="matrix(1, 0, 0, 1, -266.1, -158.55)"><ellipse class="x" cx="9.518" cy="9.518" rx="9.518" ry="9.518" transform="translate(266.1 158.55)"/></g><g transform="translate(25.378 0.957)"><g class="ak" transform="matrix(1, 0, 0, 1, -291.48, -159.5)"><path class="x" d="M574.848,282.28h-66.1a2.29,2.29,0,0,1-2.289-2.289v-4.94a2.289,2.289,0,0,1,2.289-2.289h66.1a2.29,2.29,0,0,1,2.289,2.289v4.94A2.29,2.29,0,0,1,574.848,282.28Z" transform="translate(-214.98 -113.26)"/></g></g><g transform="translate(25.378 12.796)"><g class="aj" transform="matrix(1, 0, 0, 1, -291.48, -171.34)"><path class="x" d="M538.9,297.91H507.549a1.093,1.093,0,0,1-1.093-1.094v-2.39a1.093,1.093,0,0,1,1.093-1.093H538.9A1.094,1.094,0,0,1,540,294.427v2.39A1.093,1.093,0,0,1,538.9,297.91Z" transform="translate(-214.98 -121.99)"/></g></g></g><g transform="translate(23.251 47.301)"><g class="ai" transform="matrix(1, 0, 0, 1, -264.82, -90.22)"><path class="x" d="M469.648,152.387a9.518,9.518,0,1,1-9.518,9.518h0a9.518,9.518,0,0,1,9.518-9.518Z" transform="translate(-195.31 -62.16)"/></g><g transform="translate(25.382 0.964)"><g class="ah" transform="matrix(1, 0, 0, 1, -290.2, -91.19)"><path class="x" d="M572.627,163.58h-66.1a2.289,2.289,0,0,1-2.289-2.288v-4.94a2.289,2.289,0,0,1,2.288-2.289h66.105a2.29,2.29,0,0,1,2.289,2.289h0v4.94a2.29,2.29,0,0,1-2.289,2.289Z" transform="translate(-214.03 -62.87)"/></g></g><g transform="translate(25.384 12.794)"><g class="ag" transform="matrix(1, 0, 0, 1, -290.2, -103.02)"><path class="x" d="M536.681,179.2H505.329a1.093,1.093,0,0,1-1.094-1.093v-2.392a1.093,1.093,0,0,1,1.094-1.094h31.353a1.094,1.094,0,0,1,1.094,1.094v2.39a1.094,1.094,0,0,1-1.094,1.094Z" transform="translate(-214.04 -71.6)"/></g></g></g><g transform="translate(50.922 81.46)"><g class="af" transform="matrix(1, 0, 0, 1, -292.49, -124.38)"><ellipse class="x" cx="9.518" cy="9.518" rx="9.518" ry="9.518" transform="translate(292.49 124.38)"/></g><g transform="translate(25.377 0.969)"><g class="ae" transform="matrix(1, 0, 0, 1, -317.86, -125.35)"><path class="x" d="M620.7,222.94h-66.1a2.289,2.289,0,0,1-2.289-2.289v-4.94a2.289,2.289,0,0,1,2.289-2.289h66.1a2.29,2.29,0,0,1,2.289,2.289v4.94a2.289,2.289,0,0,1-2.289,2.289Z" transform="translate(-234.44 -88.07)"/></g></g><g transform="translate(25.379 12.802)"><g class="ad" transform="matrix(1, 0, 0, 1, -317.87, -137.19)"><path class="x" d="M584.753,238.561H553.4a1.094,1.094,0,0,1-1.094-1.094v-2.39a1.094,1.094,0,0,1,1.094-1.093h31.353a1.094,1.094,0,0,1,1.093,1.093v2.39a1.094,1.094,0,0,1-1.093,1.094Z" transform="translate(-234.44 -96.8)"/></g></g></g><g transform="translate(11.702 0)"><g class="ac" transform="matrix(1, 0, 0, 1, -253.27, -42.92)"><path class="y" d="M534.851,103.841H450.966c-6.022,0-10.9-3.787-10.9-8.46V78.66c0-4.671,4.882-8.46,10.9-8.46h83.884c6.022,0,10.9,3.787,10.9,8.46V95.38C545.754,100.054,540.872,103.841,534.851,103.841Z" transform="translate(-186.8 -27.28)"/></g></g></g><g transform="translate(79.705 119.696)"><g transform="translate(0 40.7)"><path class="z" d="M184.718,340.81c-.216-.27-25.266-12.6-36.679-32.026s-9.413-23.587-9.413-23.587-.325-14.931,11.253-8.331,23.75,32.675,28.781,43.5a111.3,111.3,0,0,1,7.033,19.368Z" transform="translate(-138.491 -275.181)"/><path class="h" d="M144.944,276.317l42.515,64.977.973-1.082Z" transform="translate(-141.23 -275.663)"/></g><g transform="translate(45.582)"><path class="k" d="M235.325,204.463s-10.171,10.5-14.388,28.564c4.977,4.547,9.738.325-1.082,5.41a60.922,60.922,0,0,0-2.164,13.633s3.679,2.921,4.328,5.626h-4.328s1.3,42.63,7.574,55.4c3.03,1.082,24.561-41.007,20.558-72.925-1.515-13.2-2.164-15.581-2.164-15.581l-5.843-1.731,5.194-2.6Z" transform="translate(-217.691 -204.463)"/><path class="z" d="M240.91,204.463a132.754,132.754,0,0,0-5.194,35.272c-.325,20.287-1.136,25.887-1.784,40.574s-3.084,32.784-3.084,32.784l5.031-32.784s2.442-32.134,1.708-39.925S240.91,204.463,240.91,204.463Z" transform="translate(-223.276 -204.463)"/><path class="h" d="M230.851,313.094c3.03,1.082,24.561-41.007,20.558-72.925-1.515-13.2-2.164-15.581-2.164-15.581l-5.843-1.731,5.194-2.6-7.684-15.8a396.385,396.385,0,0,0-4.086,44.948C236.116,273.2,235.274,284.745,230.851,313.094Z" transform="translate(-223.277 -204.463)"/></g><g transform="translate(36.395 51.185)"><path class="b" d="M212.08,348.689c-.031-.245-10.636-17.016-10.344-33.064s3.05-17.845,3.05-17.845,5.348-9.214,9.916-.915,2.264,28.68,1.3,37.129a79.648,79.648,0,0,1-2.928,14.4Z" transform="translate(-201.73 -293.4)"/><path class="z" d="M216.852,293.4l1.647,55.288.992-.3Z" transform="translate(-208.149 -293.4)"/></g><path class="aa" d="M212.946,401.174s-13.858-19.446-36.792-14.83-31.21,16.12-31.21,16.12h69Z" transform="translate(-141.23 -281.366)"/><g transform="translate(55.879 8.622)"><g transform="translate(0.029)"><path class="h" d="M235.633,324.187s12.551-31.378,17.745-38.3c4.761,5.41,4.977,10.387,4.112-3.679s60.266-49.987,69.247-53.666c4.328,3.9,4.761,8.439,5.41-1.3,0,0,8.331-4,27.482-7.79,0,0,16.013-2.056-48.472,59.725,0,0-14.282-5.951-10.171-1.515s5.843,5.41,5.843,5.41-40.249,32.46-71.192,44.361Z" transform="translate(-235.633 -219.444)"/><path class="z" d="M235.633,324.328s21.592-22.526,45.315-45.367c23.274-22.41,57.1-44.786,58.325-45.361l.4-.265,20.676-13.558-19.876,15.049s-33.392,25.715-56.439,45.921S235.633,324.328,235.633,324.328Z" transform="translate(-235.633 -219.585)"/></g><g transform="translate(0 0.098)"><path class="k" d="M360.382,219.615a1.575,1.575,0,0,1,.685.508c.651.725.244,2.086-.134,3.1a19.613,19.613,0,0,1-3.28,6.04c-3.138,4.852-7.278,9.252-11.122,13.7-14.462,16.748-18.814,19.149-35.426,36.244-4.983-1.957-10.379-3.835-10.877-2.9-.131.249.062.691.705,1.381,4.112,4.436,5.843,5.41,5.843,5.41s-40.249,32.46-71.192,44.361C245.093,305.37,360.382,219.615,360.382,219.615Z" transform="translate(-235.583 -219.615)"/></g></g><path class="ab" d="M204.023,407.272s11.793-27.083,31.309-20.653a45.581,45.581,0,0,1,26.557,22.448H203.177Z" transform="translate(-165.949 -281.365)"/></g></g></svg>