<svg xmlns="http://www.w3.org/2000/svg" xmlns:xlink="http://www.w3.org/1999/xlink" width="391" height="147" viewBox="0 0 391 147">
  <defs>
    <clipPath id="clip-path">
      <circle id="Ellipse_15" data-name="Ellipse 15" cx="31.5" cy="31.5" r="31.5" fill="#eef5ff"/>
    </clipPath>
    <clipPath id="clip-path-2">
      <circle id="Ellipse_15-2" data-name="Ellipse 15" cx="31.5" cy="31.5" r="31.5" transform="translate(-0.477)" fill="#eef5ff"/>
    </clipPath>
    <clipPath id="clip-path-3">
      <circle id="Ellipse_15-3" data-name="Ellipse 15" cx="31.5" cy="31.5" r="31.5" transform="translate(-0.477 -0.165)" fill="#f8f8f8"/>
    </clipPath>
    <clipPath id="clip-path-4">
      <circle id="Ellipse_15-4" data-name="Ellipse 15" cx="31.5" cy="31.5" r="31.5" transform="translate(0.045 -0.165)" fill="#eef5ff"/>
    </clipPath>
    <clipPath id="clip-path-5">
      <circle id="Ellipse_15-5" data-name="Ellipse 15" cx="31.5" cy="31.5" r="31.5" transform="translate(0 -0.165)" fill="#eef5ff"/>
    </clipPath>
  </defs>
  <g id="Group_1226" data-name="Group 1226" transform="translate(-1036 -3461)">
    <g id="Mask_Group_9" data-name="Mask Group 9" transform="translate(1036 3461)" clip-path="url(#clip-path)">
      <g id="_1trebo_shopping-02" data-name="1trebo_shopping-02" transform="translate(0 0)">
        <circle id="Ellipse_68" data-name="Ellipse 68" cx="31.5" cy="31.5" r="31.5" fill="#e2eafd"/>
        <g id="Group_357" data-name="Group 357" transform="translate(9.077 9.474)">
          <path id="Path_725" data-name="Path 725" d="M47.434,19.567H6.842a1.909,1.909,0,0,1-1.909-1.909V14.089a1.909,1.909,0,0,1,1.909-1.909H47.434a1.909,1.909,0,0,1,1.909,1.909v3.569A1.909,1.909,0,0,1,47.434,19.567Z" transform="translate(-4.933 0.76)" fill="#6e81b1"/>
          <path id="Path_726" data-name="Path 726" d="M25.916,16.195H6.388l3.2,18.177a2.113,2.113,0,0,0,2.081,1.747h28.5a2.113,2.113,0,0,0,2.081-1.747l3.2-18.177H25.916Z" transform="translate(-3.711 4.132)" fill="#92a3cd"/>
          <line id="Line_83" data-name="Line 83" x2="7.953" y2="13.775" transform="translate(25.672)" fill="none" stroke="#92a3cd" stroke-linecap="round" stroke-miterlimit="10" stroke-width="4"/>
          <line id="Line_84" data-name="Line 84" x1="8.05" y2="13.943" transform="translate(11.26)" fill="none" stroke="#92a3cd" stroke-linecap="round" stroke-miterlimit="10" stroke-width="4"/>
          <path id="Path_727" data-name="Path 727" d="M16.547,18.122h3.115a.824.824,0,0,1,.859.873l-1.243,11.96H16.741L15.688,18.983A.825.825,0,0,1,16.547,18.122Z" transform="translate(4.1 5.751)" fill="#6e81b1"/>
          <path id="Path_728" data-name="Path 728" d="M21.438,18.122h3.115a.824.824,0,0,1,.859.873l-1.9,11.96H21.076l-.5-11.971A.825.825,0,0,1,21.438,18.122Z" transform="translate(8.209 5.751)" fill="#6e81b1"/>
          <path id="Path_729" data-name="Path 729" d="M14.587,18.122H11.472a.824.824,0,0,0-.859.873l1.9,11.96h2.436l.5-11.971A.825.825,0,0,0,14.587,18.122Z" transform="translate(-0.164 5.751)" fill="#6e81b1"/>
        </g>
      </g>
    </g>
    <g id="Mask_Group_10" data-name="Mask Group 10" transform="translate(1118.477 3461)" clip-path="url(#clip-path-2)">
      <g id="_2trebo_housing-02" data-name="2trebo_housing-02" transform="translate(0.02 -0.231)">
        <path id="Path_732" data-name="Path 732" d="M31.292,0A31.292,31.292,0,1,1,0,31.292,31.292,31.292,0,0,1,31.292,0Z" transform="translate(0 0)" fill="#b5f4d3"/>
        <g id="Group_358" data-name="Group 358" transform="translate(9.642 6.823)">
          <path id="Path_730" data-name="Path 730" d="M39.886,23.7V42.051H9.525V23.7L24.706,8.617Z" transform="translate(-3.056 -0.865)" fill="#fefefe"/>
          <path id="Path_731" data-name="Path 731" d="M48.459,24.388,30.85,6.778c-.02-.023-.027-.052-.049-.074l-2.13-2.13a1.889,1.889,0,0,0-2.641,0L23.9,6.7c-.03.03-.039.069-.066.1L6.241,24.392a1.847,1.847,0,0,0,0,2.612l2.13,2.13a1.847,1.847,0,0,0,2.612,0L27.353,12.764,43.718,29.129a1.847,1.847,0,0,0,2.612,0L48.459,27A1.847,1.847,0,0,0,48.459,24.388Z" transform="translate(-5.7 -4.034)" fill="#76c98e"/>
          <rect id="Rectangle_570" data-name="Rectangle 570" width="7.823" height="15.925" transform="translate(17.738 25.26)" fill="#76c98e"/>
        </g>
      </g>
    </g>
    <g id="_3trebo_entertainment-02" data-name="3trebo_entertainment-02" transform="translate(1199.955 3461)">
      <circle id="Ellipse_66" data-name="Ellipse 66" cx="31.5" cy="31.5" r="31.5" transform="translate(0.045)" fill="#fbc9aa"/>
      <path id="Path_721" data-name="Path 721" d="M9.6,16.873s-1.444-3.639,1.155-4.852,3.366,1.155,3.366,1.155-1.052-2.339.029-3.639a3.714,3.714,0,0,1,3.131-.982,1.365,1.365,0,0,1,1.386.982c.491,1.126-.2-1.733.693-3.292S22.279,6.188,21.9,8.21s-.318,1.438-.318,1.438-1.039-2.564,1.531-2.015,3.03,1.255,2.368,3.35c-.491,1.552-.377,1.405-.377,1.405s-.577-1.579,1.82-2.5,2.917.335,3.061,1.352.78-1.871,2.368-1.467,2.31,1.819,1.733,2.714l-.578.9s2.714-1.242,2.252.953L35.3,16.527Z" transform="translate(7.776 4.721)" fill="#fef4ef"/>
      <path id="Path_722" data-name="Path 722" d="M36.728,12.7a2.574,2.574,0,0,0-2.787-2.287A2.574,2.574,0,0,0,31.154,12.7a1.825,1.825,0,0,0,.031.247h-.061a1.864,1.864,0,0,0,.031-.247,2.574,2.574,0,0,0-2.787-2.287A2.574,2.574,0,0,0,25.581,12.7a1.825,1.825,0,0,0,.031.247h-.061a1.863,1.863,0,0,0,.031-.247,2.574,2.574,0,0,0-2.787-2.287A2.574,2.574,0,0,0,20.008,12.7a1.824,1.824,0,0,0,.031.247h-.061a1.864,1.864,0,0,0,.031-.247,2.574,2.574,0,0,0-2.787-2.287,2.576,2.576,0,0,0-2.786,2.277,2.577,2.577,0,0,0-2.787-2.277A2.574,2.574,0,0,0,8.863,12.7a1.824,1.824,0,0,0,.031.247H8.863l4.622,28.546H32.106l4.622-28.546H36.7A1.823,1.823,0,0,0,36.728,12.7Zm-22.292.01a1.849,1.849,0,0,0,.029.238h-.059A1.849,1.849,0,0,0,14.435,12.709Z" transform="translate(7.49 8.766)" fill="#fd671a"/>
    </g>
    <g id="Mask_Group_11" data-name="Mask Group 11" transform="translate(1200.477 3545.165)" clip-path="url(#clip-path-3)">
      <g id="_4trebo_health-02" data-name="4trebo_health-02" transform="translate(0.02 -0.411)">
        <path id="Path_735" data-name="Path 735" d="M31.292,0A31.292,31.292,0,1,1,0,31.292,31.292,31.292,0,0,1,31.292,0Z" transform="translate(0 0)" fill="#fde2f9"/>
        <g id="Group_359" data-name="Group 359" transform="translate(12.465 16.67)">
          <path id="Path_733" data-name="Path 733" d="M44.61,18.438A10.583,10.583,0,0,0,34.027,7.855c-3.518,0-6.613,2.666-8.537,5.308-1.924-2.642-5.019-5.308-8.537-5.308A10.583,10.583,0,0,0,6.369,18.438c0,.1.027.2.03.3h-.03c0,10.56,19.12,22.677,19.12,22.677S44.61,29.294,44.61,18.734h-.03C44.583,18.633,44.61,18.539,44.61,18.438Z" transform="translate(-6.369 -7.855)" fill="#e265b8"/>
        </g>
      </g>
    </g>
    <g id="Mask_Group_12" data-name="Mask Group 12" transform="translate(1281.955 3461.165)" clip-path="url(#clip-path-4)">
      <g id="_5trebo_restaurants-02" data-name="5trebo_restaurants-02" transform="translate(0 0)">
        <circle id="Ellipse_69" data-name="Ellipse 69" cx="31.5" cy="31.5" r="31.5" transform="translate(0.045 -0.165)" fill="#e2eafd"/>
        <g id="Group_360" data-name="Group 360" transform="translate(18.201 11.677)">
          <path id="Path_736" data-name="Path 736" d="M28.631,13.6c0-3.909-2.2-7.078-4.924-7.078S18.783,9.7,18.783,13.6c0,3.374,1.646,6.186,3.845,6.9L21.006,40.566c0,2.495,1.209,4.517,2.7,4.517s2.7-2.022,2.7-4.517l-2.037-19.98C26.774,20.116,28.631,17.187,28.631,13.6Z" transform="translate(-2.371 -6.294)" fill="#6e81b1"/>
          <path id="Path_737" data-name="Path 737" d="M18.956,18.073l-.807-10.8L17.218,6.4s-.1,8.171-.1,9.662a.975.975,0,0,1-1.765.024L14.983,6.4H13.84l-.372,9.686a.975.975,0,0,1-1.765-.024c0-1.49-.1-9.662-.1-9.662l-.931.869-.807,10.8a4.543,4.543,0,0,0,3.686,3.081L11.99,40.826c0,2.538,1.209,4.6,2.7,4.6s2.7-2.057,2.7-4.6L15.419,21.135A4.454,4.454,0,0,0,18.956,18.073Z" transform="translate(-9.867 -6.4)" fill="#6e81b1"/>
        </g>
      </g>
    </g>
    <g id="Mask_Group_13" data-name="Mask Group 13" transform="translate(1282 3545.165)" clip-path="url(#clip-path-5)">
      <g id="_6trebo_transport-02" data-name="6trebo_transport-02" transform="translate(0 0)">
        <circle id="Ellipse_70" data-name="Ellipse 70" cx="31.5" cy="31.5" r="31.5" transform="translate(0 -0.165)" fill="#fbc9aa"/>
        <g id="Group_361" data-name="Group 361" transform="translate(7.879 17.126)">
          <path id="Path_738" data-name="Path 738" d="M49.593,12.142c-.324-1.787-1.963-2.656-3.747-2.656H7.51a3.23,3.23,0,0,0-3.23,3.23v15.76a3.23,3.23,0,0,0,3.23,3.23h3.32a5.124,5.124,0,0,1,10.247,0H32.45a5.124,5.124,0,0,1,10.247,0h5.18a3.209,3.209,0,0,0,3.23-3.23V23.442C50.8,19.726,49.947,15.639,49.593,12.142ZM14.4,16.771a2.2,2.2,0,0,1-2.2,2.2H9.425a2.2,2.2,0,0,1-2.2-2.2V14a2.2,2.2,0,0,1,2.2-2.2H12.2A2.2,2.2,0,0,1,14.4,14Zm9.059,0a2.2,2.2,0,0,1-2.2,2.2H18.484a2.2,2.2,0,0,1-2.2-2.2V14a2.2,2.2,0,0,1,2.2-2.2h2.773a2.2,2.2,0,0,1,2.2,2.2v2.774Zm9.248,0a2.2,2.2,0,0,1-2.2,2.2H27.732a2.2,2.2,0,0,1-2.2-2.2V14a2.2,2.2,0,0,1,2.2-2.2h2.773a2.2,2.2,0,0,1,2.2,2.2Zm9.248,0a2.2,2.2,0,0,1-2.2,2.2H36.98a2.2,2.2,0,0,1-2.2-2.2V14a2.2,2.2,0,0,1,2.2-2.2h2.774a2.2,2.2,0,0,1,2.2,2.2Zm6.874,7.074h-2.27A2.146,2.146,0,0,1,44.415,21.7V13.9a2.146,2.146,0,0,1,2.146-2.146h.785a.516.516,0,0,1,.511.446l.123.9,1.363,10.157A.516.516,0,0,1,48.831,23.845Z" transform="translate(-4.28 -9.486)" fill="#fd671a"/>
          <path id="Path_739" data-name="Path 739" d="M12.578,19.207a4.328,4.328,0,1,0,4.328,4.328A4.327,4.327,0,0,0,12.578,19.207Zm0,6.491a2.164,2.164,0,1,1,2.164-2.164A2.164,2.164,0,0,1,12.578,25.7Z" transform="translate(-0.943 -1.313)" fill="#fd671a"/>
          <path id="Path_740" data-name="Path 740" d="M24.375,19.207A4.328,4.328,0,1,0,28.7,23.534,4.327,4.327,0,0,0,24.375,19.207Zm0,6.491a2.164,2.164,0,1,1,2.164-2.164A2.164,2.164,0,0,1,24.375,25.7Z" transform="translate(8.975 -1.313)" fill="#fd671a"/>
        </g>
      </g>
    </g>
    <g id="Group_1224" data-name="Group 1224" transform="translate(1035.803 3544.507)">
      <circle id="Ellipse_155" data-name="Ellipse 155" cx="31.5" cy="31.5" r="31.5" transform="translate(0.197 0.493)" fill="#fbc9aa"/>
      <g id="Group_565" data-name="Group 565" transform="translate(8.599 8.901)">
        <path id="Path_909" data-name="Path 909" d="M4.48,17.619,27.8,4.44,51.116,17.619V29.747L27.8,36.544,4.48,28.449Z" transform="translate(-4.48 -4.44)" fill="#fd671a"/>
        <rect id="Rectangle_620" data-name="Rectangle 620" width="37.712" height="24.644" transform="translate(3.84 4.585)" fill="#fff"/>
        <rect id="Rectangle_621" data-name="Rectangle 621" width="14.781" height="1.906" transform="translate(6.907 7.656)" fill="#fbaf80"/>
        <rect id="Rectangle_622" data-name="Rectangle 622" width="31.662" height="1.906" transform="translate(6.907 10.695)" fill="#fbaf80"/>
        <path id="Path_910" data-name="Path 910" d="M4.48,9.21V35.982H51.116Z" transform="translate(-4.48 3.971)" fill="#fbaf80"/>
        <path id="Path_911" data-name="Path 911" d="M51.116,9.21V35.982H4.48Z" transform="translate(-4.48 3.971)" fill="#fbaf80"/>
        <path id="Path_912" data-name="Path 912" d="M4.48,27.432,27.8,14.06,51.116,27.432Z" transform="translate(-4.48 12.52)" fill="#fd671a"/>
      </g>
    </g>
    <g id="Group_1222" data-name="Group 1222" transform="translate(1236.282 3508.507)">
      <g id="Group_570" data-name="Group 570" transform="translate(-118 36)">
        <circle id="Ellipse_154" data-name="Ellipse 154" cx="31.5" cy="31.5" r="31.5" transform="translate(-0.282 0.493)" fill="#e2eafd"/>
        <g id="Group_564" data-name="Group 564" transform="translate(5.666 13.761)">
          <path id="Path_904" data-name="Path 904" d="M5.72,13.18V26.9c8.9,8.338,20.608,8.338,29.506,0V13.574Z" transform="translate(5.355 2.673)" fill="#6e81b1"/>
          <path id="Path_905" data-name="Path 905" d="M1.78,19.4,27.828,32.445,53.436,19.4,27.6,7.54Z" transform="translate(-1.78 -7.54)" fill="#92a3cd"/>
          <path id="Path_906" data-name="Path 906" d="M12.92,11.97l14.926,6.3V29.229" transform="translate(11.178 0.482)" fill="none" stroke="#fbc9aa" stroke-linecap="round" stroke-miterlimit="10" stroke-width="0.5"/>
          <path id="Path_907" data-name="Path 907" d="M18.688,18.02l-.169.928-.759,3.542" transform="translate(19.155 11.44)" fill="none" stroke="#fbc9aa" stroke-linecap="round" stroke-miterlimit="10" stroke-width="0.5"/>
          <path id="Path_908" data-name="Path 908" d="M19.95,23l-.394-4.975L17.28,21.59" transform="translate(18.3 11.44)" fill="none" stroke="#fbc9aa" stroke-linecap="round" stroke-miterlimit="10" stroke-width="0.5"/>
          <line id="Line_104" data-name="Line 104" x2="1.012" y2="4.301" transform="translate(38.266 29.459)" fill="none" stroke="#fbc9aa" stroke-linecap="round" stroke-miterlimit="10" stroke-width="0.5"/>
          <line id="Line_105" data-name="Line 105" x2="2.052" y2="3.12" transform="translate(38.123 29.35)" fill="none" stroke="#fbc9aa" stroke-linecap="round" stroke-miterlimit="10" stroke-width="0.5"/>
        </g>
      </g>
    </g>
    <g id="Group_1221" data-name="Group 1221" transform="translate(1359.519 3537)">
      <path id="Path_957" data-name="Path 957" d="M31.5,0A31.5,31.5,0,1,1,0,31.5,31.5,31.5,0,0,1,31.5,0Z" transform="translate(4.481 8)" fill="#65b07a" opacity="0.63"/>
      <path id="Path_917" data-name="Path 917" d="M9.37,23.9V21.379l8.9-3.849,8.411,3.645V23.9Z" transform="translate(17.869 32.726)" fill="#fefefe"/>
      <path id="Path_918" data-name="Path 918" d="M20.489,11.382c0-3.8-2.141-6.882-4.792-6.882S10.88,7.584,10.88,11.382Z" transform="translate(20.208 12.545)" fill="#fefefe"/>
      <path id="Path_919" data-name="Path 919" d="M33.417,10.41H24.7L2.5,15v2.727l22.99,2.651h7.137l22.99-2.651V15Z" transform="translate(7.229 21.699)" fill="#fefefe"/>
      <path id="Path_920" data-name="Path 920" d="M15.7,7.2H10.88S12.205,38.807,15.7,43.752,20.489,7.2,20.489,7.2Z" transform="translate(20.208 16.729)" fill="#b5f4d3"/>
    </g>
    <g id="Group_1225" data-name="Group 1225" transform="translate(1358.519 3455.507)">
      <circle id="Ellipse_157" data-name="Ellipse 157" cx="31.5" cy="31.5" r="31.5" transform="translate(5.481 5.493)" fill="#fbc9aa"/>
      <g id="Group_568" data-name="Group 568" transform="translate(14.202 14.478)">
        <g id="Group_567" data-name="Group 567" transform="translate(0 0)">
          <ellipse id="Ellipse_158" data-name="Ellipse 158" cx="22.751" cy="22.751" rx="22.751" ry="22.751" fill="#fd671a"/>
          <path id="Path_914" data-name="Path 914" d="M8.51,5a46.53,46.53,0,0,1,1.879,40.691" transform="translate(3.191 -2.094)" fill="none" stroke="#fff" stroke-miterlimit="10" stroke-width="1"/>
          <path id="Path_915" data-name="Path 915" d="M20.746,5a46.63,46.63,0,0,0-1.879,40.691" transform="translate(13.08 -2.094)" fill="none" stroke="#fff" stroke-miterlimit="10" stroke-width="1"/>
          <path id="Path_916" data-name="Path 916" d="M3.85,13.408a318.608,318.608,0,0,1,45.477,0" transform="translate(-3.825 9.345)" fill="none" stroke="#fff" stroke-linejoin="round" stroke-width="1"/>
        </g>
      </g>
    </g>
  </g>
</svg>
