<svg xmlns="http://www.w3.org/2000/svg" width="157.974" height="137.181" viewBox="0 0 157.974 137.181"><defs><style>.a,.e{fill:#a3aff3;}.b{fill:#e5ecfd;}.c{fill:#f6f9ff;}.d{fill:none;}.d,.e,.f{stroke:#a3aff3;stroke-linecap:round;stroke-linejoin:round;stroke-miterlimit:10;stroke-width:2px;}.f{fill:#fff;}</style></defs><g transform="translate(0 24.126)"><path class="a" d="M151.241,138.86H12.167a3.82,3.82,0,0,1-3.82-3.82V36.249a3.82,3.82,0,0,1,3.82-3.82H151.24a3.82,3.82,0,0,1,3.82,3.82V135.04a3.82,3.82,0,0,1-3.819,3.82Z" transform="translate(-2.716 -32.429)"/><path class="b" d="M149.306,137.707H16.485a3.031,3.031,0,0,1-3.031-3.031V39.989a3.031,3.031,0,0,1,3.031-3.031H149.307a3.031,3.031,0,0,1,3.031,3.031v94.689a3.032,3.032,0,0,1-3.032,3.029Z" transform="translate(-3.908 -33.486)"/><path class="a" d="M156.165,177.889H3.812a1.5,1.5,0,0,1-1.4-.971L1.1,173.425a1.385,1.385,0,0,1-.055-.884,1.8,1.8,0,0,1,1.725-1.278H157.2a1.8,1.8,0,0,1,1.725,1.278,1.384,1.384,0,0,1-.055.884l-1.307,3.493A1.5,1.5,0,0,1,156.165,177.889Z" transform="translate(-1.002 -64.834)"/></g><g transform="translate(31.045 0)"><g transform="translate(0)"><path class="c" d="M118.361,1l19.02,20.14V129.32H41.5V3.27a2.331,2.331,0,0,1,.628-1.605A2.113,2.113,0,0,1,43.649,1h74.712" transform="translate(-41.5 -0.967)"/><path class="b" d="M160.206,21.07c0,1.113-1.242,1.832-2.284,1.832h-16.75a1.954,1.954,0,0,1-1.887-2.014V3.008a2.078,2.078,0,0,1,.553-1.425,1.95,1.95,0,0,1,.294-.256,2.249,2.249,0,0,1,1.115-.367C147.459,7.593,153.995,14.44,160.206,21.07Z" transform="translate(-64.323 -0.961)"/></g><g transform="translate(8.487 13.474)"><path class="d" d="M52.57,23.289l4.756-4.756,4.756,4.756" transform="translate(-52.57 -18.533)"/><path class="d" d="M147.224,75.713l4.756,4.756-4.756,4.756" transform="translate(-74.663 -31.879)"/><path class="d" d="M131.335,67.251H58.774V19.082" transform="translate(-54.018 -18.661)"/><path class="e" d="M74.6,68.015V35.222a1.765,1.765,0,0,0-1.842-1.677h0a1.765,1.765,0,0,0-1.842,1.677V68.015Z" transform="translate(-56.851 -22.036)"/><path class="e" d="M83.081,72.192V53.252a1.842,1.842,0,0,0-1.842-1.842h0A1.842,1.842,0,0,0,79.4,53.252v18.94Z" transform="translate(-58.832 -26.206)"/><path class="e" d="M99.9,73.5V58.858a1.842,1.842,0,0,0-1.842-1.842h0a1.842,1.842,0,0,0-1.842,1.842V73.5Z" transform="translate(-62.757 -27.515)"/><path class="e" d="M108.382,68.925V39.268a1.842,1.842,0,0,0-1.842-1.842h0a1.842,1.842,0,0,0-1.842,1.842V68.925Z" transform="translate(-64.737 -22.943)"/><path class="e" d="M126.049,66.207V27.625a1.842,1.842,0,0,0-1.842-1.842h0a1.842,1.842,0,0,0-1.842,1.842V66.207Z" transform="translate(-68.861 -20.225)"/><path class="e" d="M134.349,70.521V46.106a1.842,1.842,0,0,0-1.842-1.842h0a1.842,1.842,0,0,0-1.842,1.842V70.521Z" transform="translate(-70.798 -24.539)"/></g><g transform="translate(13.243 73.544)"><ellipse class="a" cx="3.459" cy="3.459" rx="3.459" ry="3.459" transform="translate(0 0)"/><line class="f" x2="57.068" transform="translate(12.988 3.459)"/><ellipse class="a" cx="3.459" cy="3.459" rx="3.459" ry="3.459" transform="translate(0 12.159)"/><line class="f" x2="57.068" transform="translate(12.988 15.618)"/><ellipse class="a" cx="3.459" cy="3.459" rx="3.459" ry="3.459" transform="translate(0 25.057)"/><line class="f" x2="57.068" transform="translate(12.988 28.517)"/><ellipse class="a" cx="3.459" cy="3.459" rx="3.459" ry="3.459" transform="translate(0.118 37.39)"/><line class="f" x2="57.068" transform="translate(13.115 40.849)"/></g></g></svg>