<svg xmlns="http://www.w3.org/2000/svg" width="534.657" height="412.184" viewBox="0 0 534.657 412.184"><defs><style>.a{fill:#e4ecfd;}.b{fill:#e9ebff;}.c{fill:#94c6c6;}.d{fill:#fbb78e;}.e{fill:#bce4e5;}.f{fill:#d3d0cf;}.f,.v{stroke:#fff;}.af,.ag,.aj,.f,.v{stroke-linejoin:round;}.af,.ag,.ai,.aj,.am,.ao,.aq,.f,.i,.v,.w{stroke-miterlimit:10;}.g{fill:#8fca75;}.h{fill:#75a55d;}.af,.ao,.i,.w{fill:none;}.i{stroke:#6b9156;stroke-width:2px;}.af,.ag,.i,.w{stroke-linecap:round;}.j{fill:#93aad8;}.k{fill:#758baf;}.l{fill:#91d5d9;}.m{fill:#967a75;}.n{fill:#b2948d;}.o{fill:#5b7c48;}.p{fill:#78c1c9;}.q{fill:#a89b9a;}.r{fill:#f26722;}.s{fill:#261126;}.t{fill:#1f4747;}.u{fill:#edd9ce;}.v{fill:#9a9897;}.w{stroke:#1d3d3b;}.x,.y{fill:#6e72b6;}.x{opacity:0.48;}.y{opacity:0.49;}.al,.z{fill:#eef5ff;}.z{opacity:0.65;}.aa,.ab{fill:#616db3;}.aa{opacity:0.29;}.ab{opacity:0.37;}.ac{fill:#9facb7;}.ad{fill:#e7ebf1;}.ae,.ai{fill:#c8d4e2;}.af,.ag,.aj{stroke:#cfcfce;}.ag,.aj{fill:#fff;}.ah,.am,.ap,.aq{fill:#eff4fb;}.ai{stroke:#bdc6d0;}.ak{fill:#bc92a0;}.al{opacity:0.56;}.am{stroke:#c5cbd2;}.an{fill:#b4bbc1;}.ao,.ap,.aq{stroke:#9facb7;}.ar{fill:#3e103c;}.as{fill:#c2b3b0;}.at{fill:#d1c1bd;}.au{fill:#c1b4b2;}.av{fill:#d1d1d1;}.aw{fill:#a3a3a3;}</style></defs><path class="a" d="M533.477,541.354l-48.422-30.9a1.22,1.22,0,0,0-.658-.195H210.9a1.22,1.22,0,0,0-.658.195l-48.422,30.9a1.523,1.523,0,0,0,.658,2.782H532.818A1.523,1.523,0,0,0,533.477,541.354Z" transform="translate(-45.623 -131.952)"/><path class="b" d="M104.407,368.823c31.655-29.687,37.231-32.477,49.7-36.411s36.411-5.249,55.275,18.206S304.09,424.691,348.7,426.494s59.317-21.471,87.036-38.527,40.82-24.063,54.1-15.369,26.953,32.325,26.953,32.325l32.35,54.11H46.674S72.751,398.513,104.407,368.823Z" transform="translate(-14.488 -86.06)"/><path class="c" d="M563.34,492.1s-30.233-27.535-98.251-15.8-109.266,23.279-109.266,23.279H572.295Z" transform="translate(-100.739 -120.876)"/><path class="d" d="M433.785,482.6H146.149s34.77-100.025,121.568-59.525C267.714,423.077,366.949,479.95,433.785,482.6Z" transform="translate(-41.377 -103.9)"/><path class="e" d="M0,493.279S15.8,436.9,87.313,455.2s69.851,28,120.852,32.987,67.356,5.094,67.356,5.094Z" transform="translate(0 -114.055)"/><path class="f" d="M395.915,325.692s3.77,13.508,1.181,23.88l-1.181,4.732" transform="translate(-112.09 -79.061)"/><g transform="translate(147.096 187.966)"><g transform="translate(2.386 0)"><path class="g" d="M208.519,244.548s23.611-3.847,31.57,6.632l-1.857,7.693,5.306-5.571s19.632,18.305,13.8,39.794c-6.9,14.328-36.345,12.2-38.733-10.346l10.348-.529-10.877-5.571S222.314,252.9,208.519,244.548Z" transform="translate(-208.516 -243.858)"/><path class="h" d="M245.686,301.879c.092.518-4.688,1.1-9.412.145-16.956-3.432-17.328-17.894-17.675-19l10.346-.53-10.877-5.571s4.244-23.744-9.552-32.1c2.886,1.633,8.64,1.874,12.469,5.04,2,1.656,4.484,7.043,8.959,12.7C238.844,273.816,244.373,294.539,245.686,301.879Z" transform="translate(-208.515 -244.13)"/><path class="i" d="M225.912,251.851S250.585,280.9,253.5,317.379s2.387,69.772,2.387,69.772" transform="translate(-213.441 -246.121)"/></g><g transform="translate(0 94.561)"><path class="g" d="M205.188,377.929s11.144-2.52,16.183-2.122v4.247l2.919-4.287s18.305,3.005,16.183,11.539-1.989,10.258-11.673,9.727-3.051-7.826-11.673-12.2S205.188,377.929,205.188,377.929Z" transform="translate(-205.188 -375.764)"/><path class="h" d="M205.188,378.846s3.317,2.521,11.938,6.9,1.989,11.673,11.673,12.2c2.3.127,6.021.951,8.375-1.2C237.174,396.75,232.515,383.373,205.188,378.846Z" transform="translate(-205.188 -376.637)"/><path class="i" d="M219.251,381.745s22.816,7.96,27.591,27.06,3.449,15.122,3.449,15.122" transform="translate(-209.17 -377.457)"/></g><g transform="translate(47.097 66.133)"><path class="g" d="M304.222,339.642s12.736-5.969,27.06-2.387c0,0-1.326,1.592-4.245,11.673a55.4,55.4,0,0,1-9.285,17.775l-9.285-1.857,7.163,6.1s-14.328,11.54-23.081,0-2.919-17.512,0-22.02,8.489-6.9,8.489-6.9l4.51,3.979Z" transform="translate(-275.709 -336.11)"/><path class="h" d="M294.23,371.748c9.2,11.188,23.081,0,23.081,0l-7.163-6.1,9.285,1.857a55.4,55.4,0,0,0,9.287-17.775c2.919-10.081,4.244-11.673,4.244-11.673-3.608,2.186-9.144,2.8-14.994,7.024-6.739,4.867-11.343,8.741-12.79,10.034C297.479,361.991,292.417,369.543,294.23,371.748Z" transform="translate(-277.39 -336.661)"/><path class="i" d="M321.417,341.777s-22.057,4.952-37.4,35.039-13,35.793-13,35.793" transform="translate(-270.885 -337.715)"/></g><path class="j" d="M232.293,442.785l5.279,48.386a4.989,4.989,0,0,0,4.96,4.448h32.947a4.989,4.989,0,0,0,4.963-4.471l5.059-48.385a4.989,4.989,0,0,0-4.963-5.508H237.254a4.989,4.989,0,0,0-4.961,5.531Z" transform="translate(-212.854 -298.612)"/><path class="k" d="M280.537,437.255H237.254a4.989,4.989,0,0,0-4.96,5.531l3.3,30.24S244.96,445.078,280.537,437.255Z" transform="translate(-212.854 -298.612)"/></g><path class="f" d="M459.536,325.176s-3.7,13.879-1.255,24.249l1.116,4.732" transform="translate(-129.51 -78.915)"/><path class="l" d="M507.73,338.548v-.091" transform="translate(-143.746 -82.675)"/><path class="m" d="M470.587,458.92l15.253,42.373a2.42,2.42,0,0,1-2.275,3.236h-3.927a2.42,2.42,0,0,1-2.283-1.622l-14.732-42.261a2.42,2.42,0,0,1,2.2-3.212l3.408-.111A2.42,2.42,0,0,1,470.587,458.92Z" transform="translate(-130.939 -116.328)"/><path class="n" d="M481.822,474.988l15.253,42.373A2.42,2.42,0,0,1,494.8,520.6h-3.927a2.42,2.42,0,0,1-2.283-1.622l-14.735-42.261a2.42,2.42,0,0,1,2.2-3.212l3.408-.111a2.42,2.42,0,0,1,2.354,1.6Z" transform="translate(-134.119 -120.877)"/><path class="m" d="M384.274,458.921l-15.255,42.373a2.42,2.42,0,0,0,2.275,3.236h3.927a2.42,2.42,0,0,0,2.283-1.622l14.735-42.261a2.42,2.42,0,0,0-2.2-3.211l-3.408-.111A2.42,2.42,0,0,0,384.274,458.921Z" transform="translate(-104.435 -116.328)"/><g transform="translate(376.726 336.166)"><path class="m" d="M547.552,501.448h-2.36a.892.892,0,0,1-.892-.892V458.209a.891.891,0,0,1,.892-.892h2.363a.892.892,0,0,1,.892.892v42.348a.891.891,0,0,1-.895.892Z" transform="translate(-530.826 -452.492)"/><path class="m" d="M596.99,501.448h-2.363a.892.892,0,0,1-.892-.892V458.209a.892.892,0,0,1,.892-.892h2.363a.891.891,0,0,1,.891.892v42.348A.892.892,0,0,1,596.99,501.448Z" transform="translate(-544.821 -452.492)"/><path class="n" d="M600.967,507.049H598.6a.892.892,0,0,1-.892-.892V458.2a.892.892,0,0,1,.892-.892h2.363a.892.892,0,0,1,.892.892V506.16a.891.891,0,0,1-.892.89Z" transform="translate(-545.947 -452.49)"/><path class="n" d="M543.532,507.049h-2.363a.892.892,0,0,1-.892-.892V458.2a.892.892,0,0,1,.892-.892h2.363a.892.892,0,0,1,.892.892V506.16a.892.892,0,0,1-.892.89Z" transform="translate(-529.686 -452.49)"/><path class="n" d="M590.207,456.189H526.745a1.241,1.241,0,0,1-1.241-1.241v-3.12a1.241,1.241,0,0,1,1.241-1.241h63.462a1.241,1.241,0,0,1,1.24,1.241v3.12A1.241,1.241,0,0,1,590.207,456.189Z" transform="translate(-525.504 -450.588)"/><rect class="n" width="37.033" height="2.321" transform="translate(14.454 17.929)"/></g><path class="n" d="M373.039,474.988l-15.253,42.373a2.42,2.42,0,0,0,2.275,3.236h3.923a2.42,2.42,0,0,0,2.283-1.622L381,476.714a2.42,2.42,0,0,0-2.2-3.212l-3.408-.111a2.42,2.42,0,0,0-2.35,1.6Z" transform="translate(-101.255 -120.877)"/><path class="o" d="M576.695,358.828s1.175,1.5,2.151-1.1,8.7-10.5,11.551-11.8,0,2.35,0,2.35l-5.55,6.35s-1.8,2.525,1.25.65,6.026-4.125,9-4.951,6.649.154,4.4.65a19.153,19.153,0,0,0-4.951,2.5s-1.332.76,1.45.9c2.172.11,3.775.05,1.55,1.25s-4.8,1.425-2,1.6,4.45.486,2.5,2.031-5.5.369-5.5.369-3.566-1.35-4.171-.5,2.42,2.45,2.42,2.45,4.776,2.975-.55,2.9c-4.139-.059-5.894-1.418-6.469-2.019a1.848,1.848,0,0,0-.664-.46c-.951-.367-3.1-1.038-2.568.629a30.45,30.45,0,0,0,5.058,2.484,1.975,1.975,0,0,1,.562.343c1.034.892,4.468,4.1.03,3.623-4.113-.439-5.611-2.409-6.05-3.184a1.96,1.96,0,0,0-.532-.616c-.742-.557-2.385-1.633-3.221-.949-1.1.9.85,2.1.85,2.1s3.475,1.15,4.6,3.2,2.275,2.875,1.65,4.551c-.549,1.471-3.8-1.183-4.58-1.853a1.879,1.879,0,0,1-.276-.29,10.063,10.063,0,0,0-4.345-3.208c-2.85-1.025-3.275,1.3-1.8,1.55a23.05,23.05,0,0,1,6.951,3.6c1.225,1.125,4.649,2.4,2.65,3.248s-6.75-.3-8.051-1.7-4.076-3.7-4.851-2.3c-.693,1.252,3.011,2.743,3.8,3.045a1.865,1.865,0,0,1,.3.148c.818.492,4.577,2.821,4.644,4.158.064,1.214-3.315.823-4.607.63a1.983,1.983,0,0,1-.87-.354c-.491-.353-1.441-1.026-2.724-1.876-1.925-1.274-3.275-3.05-3.3-1.1-.022,1.731,3.618,2.871,4.438,3.105a1.853,1.853,0,0,1,.364.146c.664.35,2.763,1.6,3.1,3.55.4,2.325.6,2.125-2.9,1.15s.8,1.3.8,1.3,2.089,1.71-1.923,1.565a1.63,1.63,0,0,1-.637-.127c-1.431-.686-2.293-1.186-2.293-1.186s-3.125-1.35-2.05.65,3.35,5.726,3.35,5.726,1.45,1.725-2,1.325-4.3-1.2-4.05-2.8.725-4.276-.6-5.45-1.95,1.95-1.95,1.95-2.525.775-1.05-1.95,2.575-2.65,1.3-3.8.85-2.6.85-2.6,2.075-2.575,1.25-3.6c-.739-.918-1.88,1.614-2.109,2.152a1.944,1.944,0,0,1-.094.191c-.509.914-4.589,8.222-5.2,10.307-.65,2.225-.85,3.15-.85,3.15s-1.125,2.65-1.05-.6c.069-2.976,4.288-9.013,5-10.01a1.943,1.943,0,0,0,.18-.31l1.671-3.581s-.55-1.325-2.051,1.3a13.679,13.679,0,0,1-3.1,3.85s-1.4-.175-.55-1.55c.709-1.146-.809.141-1.332.6a1.892,1.892,0,0,0-.289.318c-.558.768-2.929,3.948-4.38,4.585-1.65.725-3.275,2.15-3.85.25s1.55-3.6,1.55-3.6l3.4-2.7s1.625-.65-1.05-2.4-3.475-1.85-3.4-3.4,3.55-1.5,3.55-1.5,1.95.75,1.05-.95a19.515,19.515,0,0,1-1.418-4.346,1.944,1.944,0,0,1-.042-.331c-.034-.813-.031-4.109,2.41-2.724a14.168,14.168,0,0,1,4.05,3.248s2.8,2.05,2.15-.4-1.95-1.5-1.55-3.5,1.125-.675.6-3.4-.3-2.826.45-4.15,2.826-3.025,3,.05a28.7,28.7,0,0,0,.728,4.989,2.033,2.033,0,0,0,.26.613c.441.7,1.607,2.281,2.52,1.249,1.15-1.3-.35-3.5-.35-3.5s-1.45-1.8-.6-3a3.855,3.855,0,0,0,.9-3.248,3.186,3.186,0,0,1,.85-2.338l1.45-1.512s1.6-1.3,1.55.55-.55,2.35-.25,4.7.127,3.8.9,4.351,1.05-1.1,1.05-1.1l-.15-3.75a4.9,4.9,0,0,1,.45-2.7,6.431,6.431,0,0,0,.6-2.8,1.7,1.7,0,0,1,1.6-1.5c1.425-.05,1.783.127,1.5,2.25s-.455,4.351-.455,4.351-.375,5.3.9,5.151,1.4-.95,1.4-1.8-.828-3.525.05-4.7a27.358,27.358,0,0,0,1.937-3.371,2.023,2.023,0,0,1,.284-.426l2.179-2.5s.95-1.1.75.7c-.166,1.488-.536,4.034-.659,4.874a1.992,1.992,0,0,1-.157.532l-1.535,3.395S576.02,358.154,576.695,358.828Z" transform="translate(-154.11 -84.711)"/><g transform="translate(244.099 215.301)"><path class="l" d="M357.389,319.965l9.622,72.422,43.779-.05,43.779.05,9.7-72.516h.012v-.091h0c-.07-20.856-23.987-37.749-53.485-37.749s-53.35,16.791-53.42,37.647Z" transform="translate(-345.276 -282.001)"/><path class="p" d="M360.86,361.851,368,414.986l46.424-.191S374.386,406.351,360.86,361.851Z" transform="translate(-346.264 -304.599)"/><path class="p" d="M481.691,361.954l-7.14,53.135-46.424-.191S468.165,406.454,481.691,361.954Z" transform="translate(-365.308 -304.628)"/><path class="l" d="M466,392.575h-8.43c-3.054,0-4.929,2.34-5.528,5.622l-3.455,29.372s-.069,14.195-42.569,14.195-42.569-14.195-42.569-14.195l-3.456-29.375c-.6-3.281-2.475-5.622-5.528-5.622h-8.431a5.575,5.575,0,0,0-5.531,5.622l3.357,31.7a27.093,27.093,0,0,0,2.668,9.28c3.043,6.081,9.455,14.231,21.2,14.6,18.036.562,38.285.632,38.285.632s20.251-.07,38.285-.632c11.747-.366,18.159-8.517,21.2-14.6a27.1,27.1,0,0,0,2.668-9.28l3.357-31.7A5.576,5.576,0,0,0,466,392.575Z" transform="translate(-340.5 -313.296)"/><path class="e" d="M359.991,398.308c-.6-3.281-2.475-5.622-5.528-5.622h-8.431a5.575,5.575,0,0,0-5.528,5.622l.623,5.491s.738-6.425,5.04-6.65,8.6,0,8.6,0,5.152,1.592,5.811,6.65C360.213,399.827,359.991,398.308,359.991,398.308Z" transform="translate(-340.501 -313.329)"/><path class="e" d="M495.855,398.194c.6-3.281,2.475-5.622,5.528-5.622h8.431a5.575,5.575,0,0,1,5.528,5.622l-.623,5.491s-.738-6.425-5.04-6.65-8.6,0-8.6,0-5.152,1.592-5.811,6.65C495.634,399.717,495.855,398.194,495.855,398.194Z" transform="translate(-384.316 -313.296)"/><path class="p" d="M458.426,435.319l-45.282-.057-45.282.057s-4.656-.124,1.394,11.6c5.922,11.482,43.813,11.961,43.813,11.961s37.206,0,44.258-10.953C464.647,436.545,458.426,435.319,458.426,435.319Z" transform="translate(-347.762 -325.383)"/><path class="l" d="M457.72,435.947l-43.779-.046-43.779.046s-4.5.124,1.348,9.754c5.727,9.429,42.431,8.661,42.431,8.661s36.7.769,42.431-8.661C462.225,436.071,457.72,435.947,457.72,435.947Z" transform="translate(-348.429 -325.564)"/><path class="e" d="M410.792,281.989c-29.5,0-53.35,15.831-53.42,35.494l.021.271c13.257-32.5,53.11-29.081,53.11-29.081s41.685-4.978,53.683,29.081l.021-.271C464.141,297.82,440.288,281.989,410.792,281.989Z" transform="translate(-345.277 -281.989)"/></g><path class="q" d="M391.857,451.206l.617-.326-9.65-14.295-.627.017" transform="translate(-108.206 -110.457)"/><g transform="translate(385.812 304.831)"><path class="r" d="M565.147,421.715A13.6,13.6,0,0,0,554.929,410.8h0v-2.331h.7a.534.534,0,0,0,.534-.534v-1.406a.534.534,0,0,0-.534-.534h-7.744a.534.534,0,0,0-.534.534v1.406a.534.534,0,0,0,.534.534h.7V410.8h.015a13.564,13.564,0,0,0-6.965,22.243l3.051,3.843a1.81,1.81,0,0,0,1.417.684h11.37a1.67,1.67,0,0,0,1.309-.632l3.233-4.071c.23-.266.446-.543.655-.828l.2-.255h-.012a13.549,13.549,0,0,0,2.284-10.066Z" transform="translate(-538.178 -405.99)"/><ellipse class="d" cx="6.825" cy="5.55" rx="6.825" ry="5.55" transform="translate(4.52 6.825)"/></g><path class="s" d="M410.082,424.686l3.326,7.188,20.126-7.188Z" transform="translate(-116.101 -107.088)"/><path class="t" d="M442.709,336.665c-4.155-8.676-7.72-9.926-7.72-9.926l-12.7-5.294s-.069,4.62-9.3,4.62-9.17-4.619-9.17-4.619l-12.7,5.294s-3.566,1.25-7.72,9.926c-3.853,8.046-11.625,26.525-12.736,29.166a1.705,1.705,0,0,0-.133.661h0a1.71,1.71,0,0,0,.388,1.083L385.3,385.114H440.8l14.392-17.538a1.71,1.71,0,0,0,.388-1.083h0a1.705,1.705,0,0,0-.133-.661C454.334,363.191,446.561,344.71,442.709,336.665Z" transform="translate(-104.9 -77.859)"/><g transform="translate(294.333 345.064)"><path class="u" d="M428.133,477.959a32.183,32.183,0,0,0,4.483,7.629c2.891,3.426,11.074,13.269,13.6,15.976a2.552,2.552,0,0,1,.688,1.755l-.1,9.266a2.484,2.484,0,0,1-1.206,2.093l-3.19,1.669v0l-.222.111-.22.115v0l-3.218,1.616a2.484,2.484,0,0,1-2.4-.243l-7.584-5.326a2.552,2.552,0,0,1-1.023-1.583c-.721-3.635-3.935-16.025-5.031-20.372a32.177,32.177,0,0,0-3.577-8.093l-8.559-15.391L419.2,463Z" transform="translate(-410.572 -463)"/><path class="t" d="M453.047,516.737a2.552,2.552,0,0,1,.688,1.755l-.1,9.266a2.484,2.484,0,0,1-1.206,2.093l-3.19,1.669v0l-.222.111-.22.115v0l-3.218,1.616a2.484,2.484,0,0,1-2.4-.243l-7.583-5.326c-.525-.369-1.628-1.337-1.023-1.583,3.344-1.344,6.628-2.05,9.782-3.666C447.355,521,450.275,518.477,453.047,516.737Z" transform="translate(-417.315 -478.214)"/><path class="t" d="M424.91,493.038l8.672-4.306a.735.735,0,0,1,.928.235l1.727,2.455a.736.736,0,0,1-.267,1.078l-9.365,4.788a.736.736,0,0,1-1.028-.41l-1.034-2.934A.735.735,0,0,1,424.91,493.038Z" transform="translate(-414.516 -470.263)"/></g><g transform="translate(259.566 322.849)"><path class="u" d="M403.815,445.891a32.18,32.18,0,0,0-8.406,2.766c-3.96,2.1-15.312,8.014-18.494,9.914a2.552,2.552,0,0,1-1.861.3l-9.03-2.062a2.484,2.484,0,0,1-1.79-1.621l-.955-3.471h0l-.064-.24-.064-.24h0l-.9-3.487a2.484,2.484,0,0,1,.746-2.3l6.81-6.285a2.552,2.552,0,0,1,1.764-.666c3.7.064,16.493-.454,20.975-.6a32.176,32.176,0,0,0,8.667-1.783l12.008-4.106,2.524,9.715Z" transform="translate(-362.115 -432.012)"/><path class="t" d="M376.792,461.077a2.552,2.552,0,0,1-1.861.3l-9.034-2.063a2.483,2.483,0,0,1-1.79-1.621l-.955-3.471h0l-.064-.24-.064-.239h0l-.9-3.487a2.484,2.484,0,0,1,.746-2.3l6.81-6.285c.471-.435,1.656-1.308,1.764-.665.606,3.552.6,6.912,1.512,10.336C373.828,454.612,375.677,458,376.792,461.077Z" transform="translate(-362.079 -434.494)"/><path class="v" d="M409.679,438.415l2.686,10.63-4.123,1.745-3.13-11.8Z" transform="translate(-374.26 -433.825)"/></g><path class="w" d="M398.5,330.168a41.547,41.547,0,0,1-.017,27.708" transform="translate(-112.818 -80.329)"/><path class="w" d="M460.523,330.036s-5.349,13.339.05,27.8" transform="translate(-129.712 -80.291)"/><path class="x" d="M368.016,8.53c-26.039,7.151-53.655,35.143-65.988,58.1-10.61,19.746-14.876,46.678,3.489,80.042,27.634,47.277,57.218,46.543,86.176,50.426s46.529,4.246,44.778,27.335-24.333,54.178-24.333,54.178l7.726,1.716S446.042,238,453.014,222c6.986-16.032,31.469-22.048,52.691-22.515,22.256-.489,72.194-20.393,72.894-66.917s-3.961-104.2-79.142-119.176C458.606,5.251,413.605-3.99,368.016,8.53Z" transform="translate(-82.251 -0.548)"/><path class="y" d="M349.226,6.976c-26.039,7.151-51.309,30.217-63.642,53.17-10.61,19.746-14.876,46.678,3.489,80.042,27.634,47.277,66.463,49.657,95.146,52.813s50.022,9.1,48.27,32.187-24.333,54.178-24.333,54.178h8.762s23.993-38.176,30.964-54.178c6.986-16.032,22.154-26.467,43.376-26.933,22.256-.489,71.36-19.239,72.059-65.763S549.648,28.536,474.467,13.56C433.617,5.423,394.813-5.544,349.226,6.976Z" transform="translate(-78.27 -1.308)"/><path class="z" d="M578.338,159.154s-14.744-6.187-1.031-14.641c0,0,1.753-9.42,10.517-3.988,0,0,12.476-13.23,18.149.9,0,0,12.269-3.22,12.579,5.608,0,0,15.466,2.435,3.093,12.126s-18.353,0-18.353,0-11.96,5.668-17.734-2.268C585.556,156.886,581,160.621,578.338,159.154Z" transform="translate(-149.056 -37.145)"/><path class="aa" d="M474.725,305.677s14.016-21.431,20.988-37.431c6.986-16.032,26.6-24.321,47.821-24.787,14.444-.318,40.127-4.795,59.688-23.875,3.668-4.577,5.273-4.123,11.938-15.1a59.425,59.425,0,0,0,7.372-26.656c.278-18.468.581-26.287-2.685-44.825,1.592,13.848.5,28.108-7.689,50.137-4.348,11.7-29.053,25.782-40.868,26.754-8.108.667-28.521,5.408-31.283,6.741-9.41,4.539-22.124,2.005-28.882,14.506-11.526,21.321-21.37,36.96-21.37,36.96Z" transform="translate(-126.269 -44.133)"/><path class="ab" d="M448.863,263.58c-6.972,16-32.809,57.1-32.809,57.1l-7.136-2.6s22.8-31.414,24.554-54.5-15.464-23.992-44.148-27.147-84.938-9.5-108.81-80.766c0,0,10.527,32.93,44.546,45.15,0,0,48.325,17.593,83.246,10.253,42.2-8.871,49.676,19.019,48.51,28.768C455.57,250.239,448.863,263.58,448.863,263.58Z" transform="translate(-79.252 -39.698)"/><g transform="translate(338.166 73.569)"><path class="ac" d="M453.051,151.414l2.675,25.232a2.058,2.058,0,0,0,2.538,1.783l7.549-1.856a2.058,2.058,0,0,0,1.554-2.222l-2.784-25.462a2.058,2.058,0,0,0-2.6-1.758l-7.439,2.084a2.058,2.058,0,0,0-1.491,2.2Z" transform="translate(-450.508 -123.708)"/><g transform="translate(18.154 0)"><path class="ad" d="M474.831,149.141V115.585a1.1,1.1,0,0,1,1.1-1.1h29.049a1.1,1.1,0,0,1,1.1,1.1v32.661a1.1,1.1,0,0,1-1.065,1.1l-29.05.9a1.1,1.1,0,0,1-1.132-1.1Z" transform="translate(-474.831 -114.487)"/><g transform="translate(3.004 3.104)"><rect class="ae" width="11.818" height="9.013"/><g transform="translate(14.522 0.451)"><line class="af" x2="11.117"/><line class="af" x2="11.117" transform="translate(0 2.704)"/><line class="af" x2="11.117" transform="translate(0 5.408)"/><line class="af" x2="11.117" transform="translate(0 8.112)"/></g><line class="ag" x2="17.877" transform="translate(7.761 11.579)"/><line class="ag" x2="17.877" transform="translate(7.761 14.352)"/></g></g><g transform="translate(0 8.053)"><path class="ah" d="M465.723,166.96l-15.956-24.231a1.561,1.561,0,0,1,.446-2.165l22.152-14.584a1.561,1.561,0,0,1,2.165.446l15.529,23.583a1.561,1.561,0,0,1-.408,2.137L467.927,167.38a1.561,1.561,0,0,1-2.2-.42Z" transform="translate(-449.508 -125.721)"/><g transform="translate(6.332 13.807)"><path class="ai" d="M466.369,148.24a4.337,4.337,0,1,1-5.968-1.414,4.337,4.337,0,0,1,5.968,1.414Z" transform="translate(-458.341 -145.32)"/><line class="ai" y1="5.07" x2="0.552" transform="translate(3.799 4.43)"/><path class="ai" d="M467.736,147.45a5.2,5.2,0,0,0-7.15-1.695h0l2.728,4.422Z" transform="translate(-458.977 -144.981)"/></g><g transform="translate(16.586 7.47)"><rect class="ae" width="2.082" height="7.918" transform="translate(0 2.403) rotate(-31.671)"/><rect class="ae" width="1.956" height="3.355" transform="translate(5.433 4.412) rotate(-31.671)"/><rect class="ae" width="1.956" height="5.225" transform="translate(7.36 1.027) rotate(-31.671)"/><line class="aj" y1="4.694" x2="7.611" transform="translate(4.723 5.36)"/></g></g><path class="ae" d="M458.3,172.8l7.686-21.309a1.356,1.356,0,0,1,1.052-.877l6.5-1.083a1.355,1.355,0,0,0,1.019-.8l3.7-8.549a1.356,1.356,0,0,1,.984-.792l29.544-5.782a1.356,1.356,0,0,1,1.508,1.859l-12.389,29.2a1.356,1.356,0,0,1-.924.787L459.9,174.572a1.356,1.356,0,0,1-1.6-1.775Z" transform="translate(-451.975 -119.893)"/></g><path class="ak" d="M614.632,201.846l3.412.456a.11.11,0,0,1,0,.217l-3.412.456a.109.109,0,0,0-.094.094l-.456,3.412a.11.11,0,0,1-.217,0l-.456-3.412a.109.109,0,0,0-.094-.094l-3.412-.456a.11.11,0,0,1,0-.217l3.412-.456a.109.109,0,0,0,.094-.094l.456-3.412a.11.11,0,0,1,.217,0l.456,3.412a.109.109,0,0,0,.094.094Z" transform="translate(-155.453 -55.715)"/><path class="al" d="M371.35,81.361s10.744-20.738,31.731-5.5c0,0,16.99-2.5,20.738,8.745,0,0,23.94,6.958,2.382,13.742-3.023.951-8.628-.5-12.376,2.748s-12.493,0-12.493,0-8.12,8-22.487-.25c0,0-15.241,3.248-19.741-7S371.35,81.361,371.35,81.361Z" transform="translate(-89.351 -1.016)"/><path class="z" d="M388.868,167.088s-8.6-16.6-25.4-4.4c0,0-13.6-2-16.6,7,0,0-19.161,5.569-1.907,11,2.42.764,6.906-.4,9.906,2.2s10,0,10,0,6.5,6.4,18-.2c0,0,12.2,2.6,15.8-5.6S388.868,167.088,388.868,167.088Z" transform="translate(-60.542 -33.075)"/><path class="z" d="M480.9,10.36s-11.126-19.372-32.86-5.135c0,0-17.6-2.334-21.477,8.169,0,0-24.792,6.5-2.466,12.838,3.131.892,8.936-.467,12.817,2.568s12.938,0,12.938,0,8.41,7.469,23.288-.234c0,0,15.784,3.034,20.442-6.536S480.9,10.36,480.9,10.36Z" transform="translate(-117.429 13.147)"/><g transform="translate(266.525 58.381)"><path class="ae" d="M403.121,77.307a.583.583,0,0,1-.06.262c-.559,1.134-5.066,9.489-15.013,6.2-8.148-2.7-13.343-.241-15.339,1.067a.6.6,0,0,1-.927-.5V70.122a.6.6,0,0,1,.181-.432c.935-.914,5.534-4.7,14.965-1.575,7.951,2.632,13.049-2.179,15.128-4.795a.6.6,0,0,1,1.066.382v13.6Z" transform="translate(-371.782 -63.099)"/><path class="ah" d="M401.728,79.276a.625.625,0,0,1-.06.267c-.436.917-3.4,6.274-12.221,3.83-7.269-2.014-11.936-.657-13.787.127a.648.648,0,0,1-.906-.595v-9.7a.65.65,0,0,1,.289-.541c1.1-.738,5.342-2.993,13.186-.293,6.676,2.3,10.7-.238,12.482-1.925a.647.647,0,0,1,1.083.487Z" transform="translate(-372.624 -65.132)"/><g transform="translate(11.514 9.025)"><ellipse class="am" cx="3.626" cy="3.626" rx="3.626" ry="3.626" transform="translate(0 0)"/><g transform="translate(1.383 1.247)"><path class="an" d="M393.2,81.889a1.91,1.91,0,0,1-1.055.293,1.854,1.854,0,0,1-1.434-.637,2.186,2.186,0,0,1-.5-1.219h-.438V79.98h.4v-.106c0-.113.008-.219.015-.318h-.417V79.2h.467a2.246,2.246,0,0,1,.585-1.193,1.866,1.866,0,0,1,1.4-.582,2.011,2.011,0,0,1,.941.23l-.143.466a1.631,1.631,0,0,0-.792-.2,1.232,1.232,0,0,0-.935.382,1.675,1.675,0,0,0-.428.9l1.974.008v.353l-2.038-.008c-.007.092-.015.2-.015.3v.127l2.052.008v.346l-2-.008a1.7,1.7,0,0,0,.386.928,1.344,1.344,0,0,0,1,.415,1.836,1.836,0,0,0,.864-.23Z" transform="translate(-389.772 -77.426)"/></g></g></g><g transform="translate(258.136 38.232)"><path class="ae" d="M391.42,49.2a.582.582,0,0,1-.06.262c-.559,1.134-5.066,9.489-15.013,6.2-8.148-2.7-13.342-.241-15.339,1.067a.6.6,0,0,1-.927-.5v-14.2a.6.6,0,0,1,.181-.432c.935-.914,5.534-4.7,14.965-1.575,7.951,2.632,13.049-2.179,15.128-4.795a.6.6,0,0,1,1.066.382V49.2Z" transform="translate(-360.081 -34.993)"/><path class="ah" d="M390.027,51.169a.625.625,0,0,1-.06.267c-.436.917-3.4,6.274-12.221,3.83-7.269-2.014-11.936-.657-13.787.127a.648.648,0,0,1-.906-.6V45.1a.65.65,0,0,1,.289-.541c1.1-.738,5.342-2.993,13.186-.293,6.676,2.3,10.7-.238,12.482-1.925a.647.647,0,0,1,1.083.487Z" transform="translate(-360.923 -37.026)"/><g transform="translate(11.514 9.025)"><ellipse class="am" cx="3.626" cy="3.626" rx="3.626" ry="3.626" transform="translate(0 0)"/><g transform="translate(1.383 1.247)"><path class="an" d="M381.5,53.783a1.91,1.91,0,0,1-1.055.293,1.854,1.854,0,0,1-1.434-.637,2.185,2.185,0,0,1-.5-1.219h-.438v-.346h.4v-.106c0-.113.008-.219.015-.318h-.417V51.1h.467a2.246,2.246,0,0,1,.585-1.193,1.866,1.866,0,0,1,1.4-.582,2.011,2.011,0,0,1,.941.23l-.143.466a1.631,1.631,0,0,0-.792-.2,1.232,1.232,0,0,0-.935.382,1.676,1.676,0,0,0-.428.9l1.974.008v.353l-2.038-.008c-.007.092-.015.2-.015.3v.127l2.052.008v.346l-2-.008a1.7,1.7,0,0,0,.386.928,1.344,1.344,0,0,0,1,.415,1.837,1.837,0,0,0,.864-.23Z" transform="translate(-378.072 -49.32)"/></g></g></g><g transform="translate(236.241 46.34)"><path class="ae" d="M360.878,60.511a.583.583,0,0,1-.06.262c-.559,1.134-5.066,9.489-15.013,6.2-8.148-2.7-13.342-.241-15.339,1.067a.6.6,0,0,1-.927-.5V53.326a.6.6,0,0,1,.182-.432c.935-.914,5.534-4.7,14.965-1.575,7.951,2.632,13.049-2.179,15.128-4.795a.6.6,0,0,1,1.066.382v13.6Z" transform="translate(-329.539 -46.303)"/><path class="ah" d="M359.485,62.481a.625.625,0,0,1-.06.267c-.436.917-3.4,6.274-12.221,3.83-7.269-2.014-11.936-.657-13.787.127a.648.648,0,0,1-.906-.595v-9.7a.65.65,0,0,1,.289-.541c1.1-.738,5.342-2.993,13.186-.293,6.676,2.3,10.7-.238,12.482-1.925a.647.647,0,0,1,1.083.487Z" transform="translate(-330.381 -48.336)"/><g transform="translate(11.514 9.026)"><ellipse class="am" cx="3.626" cy="3.626" rx="3.626" ry="3.626" transform="translate(0 0)"/><g transform="translate(1.383 1.246)"><path class="an" d="M350.961,65.093a1.91,1.91,0,0,1-1.055.293,1.854,1.854,0,0,1-1.434-.637,2.185,2.185,0,0,1-.5-1.219h-.438v-.346h.4v-.106c0-.113.008-.219.015-.318h-.417v-.353H348a2.246,2.246,0,0,1,.585-1.193,1.866,1.866,0,0,1,1.4-.582,2.011,2.011,0,0,1,.941.23l-.143.466a1.631,1.631,0,0,0-.792-.2,1.232,1.232,0,0,0-.935.382,1.675,1.675,0,0,0-.428.9l1.974.008v.353l-2.038-.008c-.007.092-.015.2-.015.3v.127l2.052.008v.346l-2-.008a1.7,1.7,0,0,0,.386.928,1.344,1.344,0,0,0,1,.415,1.837,1.837,0,0,0,.864-.23Z" transform="translate(-347.529 -60.63)"/></g></g></g><g transform="translate(213.374 87.684)"><path class="ah" d="M292.808,103.953s6.3-2.222,8.348,6.446,4.625,45.049,15.085,44.163c0,0,9.12.567,5.381-8.91l27.936-15.7-6.505,3.655s-2.9-3.213-5.031-12.3c-2.272-9.676-2.376-19.62-4.547-26.244-2.749-8.387-11.829-4.323-11.829-4.323Z" transform="translate(-289.267 -89.761)"/><path class="an" d="M291.881,109.193s-6.44,2.954-3,7.012c2.923,3.45,2.848,3.364,2.848,3.364l7.924-4.113S298.41,108.38,291.881,109.193Z" transform="translate(-287.869 -95.244)"/><path class="ae" d="M307.993,108.541a23.331,23.331,0,0,1,3.116,10.762c6.988-3.623,8.52-4.687,8.52-4.687s-.243-6.646-3.439-10.143C311.559,106.611,307.993,108.541,307.993,108.541Z" transform="translate(-293.566 -93.927)"/><path class="ae" d="M333.972,94.935l-10.542,5.226a5.425,5.425,0,0,1,1.91,3.478l10.33-5.211S336.121,96.6,333.972,94.935Z" transform="translate(-297.936 -91.226)"/><path class="ae" d="M337.106,101.395l-10.542,5.225a18.6,18.6,0,0,1,.772,3.809l10.507-5.4S338.285,103.742,337.106,101.395Z" transform="translate(-298.824 -93.055)"/><path class="ae" d="M312.564,124.773l.451,3.543,23.123-11.746-.422-3.553Z" transform="translate(-294.86 -96.345)"/><path class="ae" d="M313.661,132.25l.587,3.474,23.064-11.717-.5-3.514Z" transform="translate(-295.171 -98.462)"/><path class="ae" d="M315.13,139.387l.7,3.932,22.95-12.171-.679-3.422Z" transform="translate(-295.587 -100.51)"/><path class="ae" d="M336.094,141.606l8.331-4.6s2.906,12.218,5.3,13.579l-8.365,4.706S338.167,151.542,336.094,141.606Z" transform="translate(-301.522 -103.137)"/><path class="ae" d="M320.375,149.79l8.459-4.388s2.691,11.612,5.725,13.653c-4.721,2.656-8.721,4.942-8.721,4.942S322.144,159.733,320.375,149.79Z" transform="translate(-297.072 -105.514)"/><path class="an" d="M330.459,169.582l30.575-17.6s3.268-2.191.109-6.831c-5.012,2.816-29.032,16.239-29.032,16.239S335.237,166.451,330.459,169.582Z" transform="translate(-299.926 -105.443)"/></g><g transform="translate(365.143 34.933)"><g transform="translate(0 0)"><path class="ah" d="M397.22,185.977a10.8,10.8,0,1,1,20,8.155c-1.133,2.778-3.422,4.487-5.859,5.895h0l-6.045,3.146-2.929-1.256-2.974-1.153-2.12-6.476h0C396.528,191.574,396.087,188.755,397.22,185.977Z" transform="translate(-396.532 -179.254)"/><path class="ac" d="M399.128,215.067l7.253,2.958c.008-.019.725-.592.733-.611s-.087-.973-.078-.995l-7.252-2.958-.73.637Z" transform="translate(-397.503 -192.434)"/><path class="ae" d="M398.063,217.684l7.253,2.958c.008-.019.725-.592.733-.611s-.087-.973-.078-.995l-7.253-2.958-.73.637Z" transform="translate(-397.092 -193.442)"/><path class="ac" d="M398.265,220.5l5.688,2.361,1.41-1.216-7.251-2.957Z" transform="translate(-397.141 -194.448)"/></g><path class="ao" d="M406.561,206.178s1.974-5.438,3.861-7.69,6.55-3.814,5.6-5.046c-.792-1.03-3.494.191-4.36.617a.955.955,0,0,0-.432.427c-.279.557-.642,1.656,1.358.858,2.48-.989-.42-5.489-.42-5.489l-.146-.216-.262.049s-5.222,1.188-4.139,3.63c.872,1.968,1.38.93,1.57.336a.955.955,0,0,0-.01-.608c-.318-.912-1.4-3.672-2.685-3.49-1.539.218.7,4.6.476,7.525s-2.618,8.2-2.618,8.2" transform="translate(-399.547 -183.22)"/></g><g transform="translate(400.732 128.111)"><g transform="translate(0 16.627)"><path class="ah" d="M584.519,198.328a3.08,3.08,0,0,1-.578,2.165.56.56,0,0,1-.9-.178c-.5-1.109-2.022-2.426-2.9-1.173-.929,1.323-.027,2.4,1.544,3.042a.569.569,0,0,1,.31.758c-.9,1.933-2.782,1.484-3.762,1.083a.568.568,0,0,1-.311-.309c-2.589-6.231-11.093-9.735-20.195-7.96a24.224,24.224,0,0,0-6.136,2.067.56.56,0,0,1-.681-.131,6.2,6.2,0,0,0-7.585-2.013.58.58,0,0,0-.308.786l2.57,5.3a.573.573,0,0,1-.09.627,14.372,14.372,0,0,0-2.823,4.668.569.569,0,0,1-.6.382l-1.371-.156a1.556,1.556,0,0,0-.844.123,2.416,2.416,0,0,0-1.239,2.671l1.019,5.212a2.386,2.386,0,0,0,2.387,2.012,1.392,1.392,0,0,0,.532-.16l.732-.364a.573.573,0,0,1,.723.188,14.165,14.165,0,0,0,5.943,4.6.563.563,0,0,1,.29.284l1.621,3.6c.564,1.2,1.373,2.175,2.5,1.955l3.018-.589c1.127-.22,1.509-1.432,1.581-2.752l.018-.867a24.7,24.7,0,0,0,8.024-1.588l.367.814c.564,1.2,1.373,2.175,2.5,1.955l3.018-.589c1.127-.22,1.509-1.432,1.581-2.752l.083-4.04-.208.035c3.292-3.211,4.967-7.295,4.183-11.33-.015-.075-.035-.148-.052-.222a3.683,3.683,0,0,0,4.943-2.951.559.559,0,0,1,.375-.421,3.039,3.039,0,0,0,1.928-2.874C585.86,197.677,584.458,197.331,584.519,198.328Zm-3.757,1.414c.609-1.019,1.974,1.78,1.974,1.78s-2.582-.763-1.972-1.779Z" transform="translate(-538.559 -195.107)"/><ellipse class="ae" cx="1.048" cy="1.048" rx="1.048" ry="1.048" transform="translate(7.128 9.545)"/><path class="ae" d="M561.558,198.2a20.721,20.721,0,0,1,6.235-1.2.573.573,0,0,1,.581.466h0a.569.569,0,0,1-.534.682,21.121,21.121,0,0,0-5.869,1.191.573.573,0,0,1-.737-.369l-.02-.064A.573.573,0,0,1,561.558,198.2Z" transform="translate(-544.967 -195.643)"/></g><path class="ap" d="M3.253,0A3.253,3.253,0,1,1,0,3.253,3.253,3.253,0,0,1,3.253,0Z" transform="translate(16.545 12.125)"/><ellipse class="aq" cx="3.253" cy="3.253" rx="3.253" ry="3.253" transform="translate(17.671 3.142)"/><ellipse class="aq" cx="3.253" cy="3.253" rx="3.253" ry="3.253" transform="translate(8.609 0)"/></g><path class="z" d="M568.4,78.727H541.9a7.647,7.647,0,0,1-5.922-2.679,7.848,7.848,0,0,1-1.646-6.023c.464-4.642,4.45-6.337,7.095-6.952a7.807,7.807,0,0,0,3.928-2.257c2.306-2.453,6.823-5.972,11.341-2.207a22.877,22.877,0,0,1,2.556,2.268,7.976,7.976,0,0,0,4.878,2.443c1.56.183,3.226.736,3.976,2.165a8.269,8.269,0,0,0,3.843,3.455c1.719.831,3.392,2.221,3.184,4.451a5.674,5.674,0,0,1-3.315,4.551A7.485,7.485,0,0,1,568.4,78.727Z" transform="translate(-144.885 1.479)"/><g transform="translate(428.403 52.654)"><path class="ah" d="M579.534,133.467l-29.813-11.845a1.565,1.565,0,0,1-.876-2.031l16.053-40.4a1.565,1.565,0,0,1,2.031-.876l29.813,11.845a1.565,1.565,0,0,1,.876,2.031l-16.053,40.4a1.565,1.565,0,0,1-2.031.876Z" transform="translate(-548.734 -78.206)"/><rect class="ac" width="27.147" height="6.46" transform="translate(19.067 4.577) rotate(21.673)"/><rect class="d" width="5.114" height="2.569" transform="translate(15.437 13.206) rotate(21.673)"/><rect class="ae" width="5.114" height="2.569" transform="translate(22.416 15.98) rotate(21.673)"/><rect class="ae" width="5.114" height="2.569" transform="translate(29.331 18.727) rotate(21.673)"/><rect class="ae" width="5.114" height="2.569" transform="translate(36.31 21.501) rotate(21.673)"/><rect class="an" width="5.021" height="5.021" transform="translate(12.523 20.529) rotate(21.673)"/><rect class="an" width="5.021" height="5.021" transform="translate(19.544 23.32) rotate(21.673)"/><rect class="an" width="5.021" height="5.021" transform="translate(26.46 26.068) rotate(21.673)"/><rect class="an" width="5.021" height="5.021" transform="translate(33.439 28.841) rotate(21.673)"/><rect class="an" width="5.021" height="5.021" transform="translate(16.457 30.573) rotate(21.673)"/><rect class="an" width="5.021" height="5.021" transform="translate(23.372 33.321) rotate(21.673)"/><rect class="an" width="5.021" height="5.021" transform="translate(30.351 36.095) rotate(21.673)"/><rect class="an" width="5.021" height="5.021" transform="translate(13.644 37.559) rotate(21.673)"/><rect class="an" width="5.021" height="5.021" transform="translate(20.56 40.308) rotate(21.673)"/><rect class="an" width="5.021" height="5.021" transform="translate(27.538 43.08) rotate(21.673)"/><rect class="ae" width="4.928" height="12.552" transform="translate(9.659 27.872) rotate(21.673)"/></g><g transform="translate(222.382 33.08)"><path class="d" d="M570.972,51.821l6.766.9a.217.217,0,0,1,0,.43l-6.766.9a.217.217,0,0,0-.187.187l-.9,6.765a.217.217,0,0,1-.43,0l-.9-6.764a.217.217,0,0,0-.186-.187l-6.768-.9a.217.217,0,0,1,0-.43l6.766-.9a.217.217,0,0,0,.186-.187l.9-6.766a.217.217,0,0,1,.43,0l.907,6.765A.217.217,0,0,0,570.972,51.821Z" transform="translate(-380.689 -44.684)"/><path class="d" d="M520.127,184.5l6.675.892a.214.214,0,0,1,0,.424l-6.675.892a.214.214,0,0,0-.184.184l-.892,6.675a.214.214,0,0,1-.424,0l-.892-6.675a.214.214,0,0,0-.184-.184l-6.675-.892a.214.214,0,0,1,0-.424l6.675-.892a.214.214,0,0,0,.184-.184l.892-6.675a.214.214,0,0,1,.424,0l.892,6.675a.215.215,0,0,0,.184.184Z" transform="translate(-356.141 -83.548)"/><path class="d" d="M364.986,135.746l3.412.456a.11.11,0,0,1,0,.217l-3.412.456a.11.11,0,0,0-.094.094l-.456,3.412a.11.11,0,0,1-.217,0l-.456-3.412a.109.109,0,0,0-.094-.094l-3.412-.456a.11.11,0,0,1,0-.217l3.412-.456a.11.11,0,0,0,.094-.094l.456-3.412a.11.11,0,0,1,.217,0l.456,3.412a.109.109,0,0,0,.094.094Z" transform="translate(-323.713 -69.445)"/><path class="d" d="M314.142,75.46l3.412.456a.11.11,0,0,1,0,.217l-3.412.456a.109.109,0,0,0-.094.094l-.456,3.412a.11.11,0,0,1-.217,0l-.456-3.412a.11.11,0,0,0-.094-.094l-3.412-.456a.11.11,0,0,1,0-.217l3.412-.456a.11.11,0,0,0,.094-.094l.456-3.412a.11.11,0,0,1,.217,0l.456,3.412A.109.109,0,0,0,314.142,75.46Z" transform="translate(-309.318 -52.377)"/><path class="d" d="M425.367,55.875l3.412.456a.11.11,0,0,1,0,.217L425.367,57a.11.11,0,0,0-.094.094l-.456,3.412a.11.11,0,0,1-.217,0l-.456-3.412A.11.11,0,0,0,424.05,57l-3.412-.456a.11.11,0,0,1,0-.217l3.412-.456a.11.11,0,0,0,.094-.094l.456-3.412a.11.11,0,0,1,.217,0l.456,3.412A.11.11,0,0,0,425.367,55.875Z" transform="translate(-340.807 -46.832)"/><path class="d" d="M530.024,105.1l3.412.456a.11.11,0,0,1,0,.217l-3.412.456a.11.11,0,0,0-.094.094l-.456,3.412a.11.11,0,0,1-.217,0l-.456-3.412a.11.11,0,0,0-.094-.094l-3.412-.456a.11.11,0,0,1,0-.217l3.412-.456a.11.11,0,0,0,.094-.094l.456-3.412a.11.11,0,0,1,.217,0l.456,3.412A.11.11,0,0,0,530.024,105.1Z" transform="translate(-343.054 -37.843)"/><path class="d" d="M387.218,225.228l5.31.709a.17.17,0,0,1,0,.338l-5.31.709a.17.17,0,0,0-.147.146l-.709,5.31a.17.17,0,0,1-.338,0l-.709-5.31a.17.17,0,0,0-.146-.146l-5.31-.709a.17.17,0,0,1,0-.338l5.31-.709a.17.17,0,0,0,.146-.146l.709-5.31a.17.17,0,0,1,.337,0l.709,5.31a.169.169,0,0,0,.146.146Z" transform="translate(-329.246 -94.211)"/><path class="d" d="M387.218,225.228l5.31.709a.17.17,0,0,1,0,.338l-5.31.709a.17.17,0,0,0-.147.146l-.709,5.31a.17.17,0,0,1-.338,0l-.709-5.31a.17.17,0,0,0-.146-.146l-5.31-.709a.17.17,0,0,1,0-.338l5.31-.709a.17.17,0,0,0,.146-.146l.709-5.31a.17.17,0,0,1,.337,0l.709,5.31a.169.169,0,0,0,.146.146Z" transform="translate(-240.729 -81.475)"/><path class="d" d="M409.636,117.428l8.105,1.083a.26.26,0,0,1,0,.515l-8.105,1.083a.26.26,0,0,0-.223.223l-1.083,8.105a.26.26,0,0,1-.515,0l-1.083-8.105a.26.26,0,0,0-.223-.223l-8.105-1.083a.26.26,0,0,1,0-.515l8.105-1.083a.26.26,0,0,0,.223-.223l1.083-8.105a.26.26,0,0,1,.515,0l1.083,8.105a.26.26,0,0,0,.223.223Z" transform="translate(-334.476 -62.857)"/><path class="d" d="M628.664,155.778l5.229.7a.167.167,0,0,1,0,.332l-5.229.7a.167.167,0,0,0-.144.144l-.7,5.229a.168.168,0,0,1-.332,0l-.7-5.229a.167.167,0,0,0-.144-.144l-5.229-.7a.167.167,0,0,1,0-.332l5.229-.7a.167.167,0,0,0,.144-.144l.7-5.229a.167.167,0,0,1,.332,0l.7,5.229a.167.167,0,0,0,.144.144Z" transform="translate(-384.899 -86.672)"/><path class="d" d="M625.087,249.945l5.31.709a.17.17,0,0,1,0,.338l-5.31.709a.17.17,0,0,0-.146.146l-.709,5.31a.17.17,0,0,1-.338,0l-.709-5.31a.171.171,0,0,0-.146-.146l-5.31-.709a.17.17,0,0,1,0-.338l5.31-.709a.17.17,0,0,0,.146-.146l.709-5.31a.17.17,0,0,1,.338,0l.709,5.31A.17.17,0,0,0,625.087,249.945Z" transform="translate(-396.59 -101.209)"/></g><g transform="translate(279.455 190.61)"><path class="ar" d="M420.025,249.073l.606-.637a1.508,1.508,0,0,1,1.051-.473c2.274-.071,10.062.059,13.153,4.884,3.639,5.68,8.526,29.135,9.926,38.272.207,1.35.33,2.307.4,2.985a1.517,1.517,0,0,1-1.477,1.679l-52.318,1.07a1.513,1.513,0,0,1-1.536-1.7c.791-6.25,3.658-27.712,6.843-36.972,3.75-10.9,15.881-11.316,18.749-10.225a13.326,13.326,0,0,1,2.671,1.322A1.5,1.5,0,0,0,420.025,249.073Z" transform="translate(-389.819 -247.548)"/><path class="u" d="M432.481,314.964c-.313-1.982,1.049-4.772,1.049-4.772s-1.847,1.656-7.612,1.62c-5.764.036-7.612-1.62-7.612-1.62s1.361,2.79,1.049,4.772S416,318.552,416,318.552s1.8,5.831,9.921,5.892c8.126-.064,10.209-5.784,10.209-5.784S432.793,316.947,432.481,314.964Z" transform="translate(-397.232 -265.284)"/><path class="as" d="M426.884,312.049c-5.764.036-7.667-1.856-7.667-1.856s1.362,2.79,1.049,4.772c.22-.431.637-1.049,2.2-1.521a25.064,25.064,0,0,1,8.661,0,4.3,4.3,0,0,1,2.271,1.521c-.313-1.982,1.049-4.772,1.049-4.772s-1.971,1.892-7.735,1.856" transform="translate(-398.143 -265.284)"/><path class="u" d="M407.574,276.94c-.3-3-.386-5.146-.386-5.146h22.776l1.652-7.234,2.539,7.234H438s-.623,15.275-4.207,21.206c0,0-2.406,3.893-5.234,5.685a1.1,1.1,0,0,1-.484.159c-3.259.3-5.031.282-5.031.282h-.9s-.643,0-2.013-.077q-.431-.024-.959-.057-.855-.055-1.97-.143a1.4,1.4,0,0,1-.65-.211A21.079,21.079,0,0,1,411.393,293c-1.455-2.409-2.42-6.357-3.057-10.2-.008.012-.011.029-.019.041-.757,1.083-2.33.023-2.593-.367-.185-.276-1.85-5.6-1.85-5.6-.409-2.36,3.63.234,3.63.234Z" transform="translate(-393.791 -252.364)"/><g transform="translate(10.961 19.426)"><path class="at" d="M407.034,283.406s-2.561-2.794-1.776-.772a27.993,27.993,0,0,1,1.115,3.456s.97,1.669,1.652.66c-.909-.66-2.008-1.66-1.458-2.263A1.4,1.4,0,0,0,407.034,283.406Z" transform="translate(-405.108 -276.7)"/><path class="at" d="M446.5,287.953s-.783,8.383-3.286,11.669c-.677,1-1.177,1.682-1.177,1.682l-.564.716a15.119,15.119,0,0,1-1.053,1.265c-.469.478-1.359,1.227-1.359,1.227a8.131,8.131,0,0,1-1.152.836c-.136.154-.5.127-.5.127l-.336.029,2.434-2.643S445.436,296.337,446.5,287.953Z" transform="translate(-414.161 -278.414)"/><path class="at" d="M409.775,287.953s.783,8.383,3.286,11.669c.677,1,1.177,1.682,1.177,1.682l.564.716a15.126,15.126,0,0,0,1.053,1.265c.469.478,1.359,1.227,1.359,1.227a8.126,8.126,0,0,0,1.152.836c.136.154.5.127.5.127l.336.029-2.434-2.643S410.843,296.337,409.775,287.953Z" transform="translate(-406.43 -278.414)"/><path class="au" d="M408.53,274.646l.047,1.652H430.5l.331-1.652Z" transform="translate(-406.077 -274.646)"/><path class="au" d="M446.716,274.646l.2,1.652h3.188l.047-1.652Z" transform="translate(-416.889 -274.646)"/></g></g><g transform="translate(332.01 138.766)"><path class="ah" d="M493.911,227.389l-9.18,8.979a1.581,1.581,0,0,1-2.235-.025l-14.475-14.806a1.581,1.581,0,0,1,.025-2.235l9.18-8.979a1.581,1.581,0,0,1,2.235.025l14.475,14.8a1.582,1.582,0,0,1-.025,2.238Z" transform="translate(-467.57 -209.872)"/><path class="ao" d="M482.113,220.226l-1.269,1.241a.822.822,0,0,1-1.162-.013l-1.92-1.963a.822.822,0,0,1,.013-1.162l1.269-1.241a.822.822,0,0,1,1.162.013l1.92,1.963A.822.822,0,0,1,482.113,220.226Z" transform="translate(-470.389 -211.849)"/><line class="ao" x2="5.143" y2="5.306" transform="translate(14.961 7.341)"/><line class="ao" x2="2.418" y2="2.495" transform="translate(21.371 13.954)"/><line class="ao" x2="2.954" y2="3.048" transform="translate(3.37 10.515)"/><line class="ao" x2="3.108" y2="3.208" transform="translate(7.743 15.027)"/><line class="ao" x2="2.264" y2="2.336" transform="translate(12.407 19.838)"/></g><g transform="translate(350.101 136.146)"><path class="ae" d="M504.182,235.762l-12.1-4.3a1.581,1.581,0,0,1-.961-2.019l6.929-19.511a1.581,1.581,0,0,1,2.019-.961l12.1,4.3a1.581,1.581,0,0,1,.961,2.019L506.2,234.8A1.581,1.581,0,0,1,504.182,235.762Z" transform="translate(-491.03 -208.883)"/><rect class="ac" width="3.086" height="23.866" transform="translate(17.137 2.954) rotate(19.549)"/><path class="ac" d="M496.244,237.2l-.255-.089a1.576,1.576,0,0,1-.955-2.012l.914-2.573a1.576,1.576,0,0,1,2.012-.955l.255.089a1.576,1.576,0,0,1,.955,2.012l-.914,2.573A1.575,1.575,0,0,1,496.244,237.2Z" transform="translate(-492.138 -215.281)"/><rect class="ac" width="2.035" height="10.662" transform="translate(12.681 3.473) rotate(19.549)"/></g><g transform="translate(279.387 277.547)"><path class="av" d="M419.029,369.936h-27.85a1.454,1.454,0,0,0-1.451,1.553l2.356,34.9a1.454,1.454,0,0,0,1.451,1.357h50.991a1.454,1.454,0,0,0,1.451-1.357l2.356-34.9a1.454,1.454,0,0,0-1.451-1.553Z" transform="translate(-389.724 -369.936)"/><path class="aw" d="M445.6,424.064H394.261a1.188,1.188,0,0,1-1.188-1.188v-.064a1.188,1.188,0,0,1,1.188-1.188H445.6a1.188,1.188,0,0,1,1.188,1.188v.064A1.188,1.188,0,0,1,445.6,424.064Z" transform="translate(-390.623 -383.816)"/></g><path class="ar" d="M385.792,400.98c-2.7-.335-6.623,1.82-7.356,2.24s-4.611,2.657-5.719,5.142a11.717,11.717,0,0,0,1.442,11.477c2.69,3.722,32.585,48.236,32.585,48.236l5.568-3.125L404.8,449.907l8.939,14.24,5.609-3.184s-22.671-48.593-24.468-52.818a11.717,11.717,0,0,0-9.085-7.164Z" transform="translate(-105.273 -100.367)"/><path class="ar" d="M465.666,430.542c1.059-2.506.057-6.869-.146-7.689s-1.3-5.158-3.385-6.9A11.717,11.717,0,0,0,450.7,414.2c-4.315,1.572-55.3,18.179-55.3,18.179l1.486,6.209,14.957-2.31-14.573,3.9,1.533,6.266s52.936-8.544,57.492-9.119A11.717,11.717,0,0,0,465.666,430.542Z" transform="translate(-111.944 -103.9)"/></svg>