<svg xmlns="http://www.w3.org/2000/svg" width="477.437" height="65.386" viewBox="0 0 477.437 65.386">
  <g id="Group_1219" data-name="Group 1219" transform="translate(-456 -3459.014)">
    <g id="trebo_logo_colour-02" transform="translate(456 3459.014)">
      <path id="Path_953" data-name="Path 953" d="M104.23,62.293a15.911,15.911,0,0,0,15.029-9.248l6.135,2.314c-3.821,8.359-11.653,13.176-20.991,13.176-13.958,0-22.943-9.882-22.943-25.166,0-15.745,8.894-25.529,22.77-25.529,14.23,0,22.5,10.228,22.053,27.217H88.493C89.02,55.976,94.62,62.293,104.23,62.293ZM88.583,39.523h30.865C118.378,29.2,113.3,23.786,104.411,23.786c-9.33,0-14.774,5.715-15.836,15.737Z" transform="translate(-14.378 -3.149)" fill="#10bbb4"/>
      <path id="Path_954" data-name="Path 954" d="M190.743,39.932c0,14.411-7.823,25.438-21.345,25.438a18.372,18.372,0,0,1-15.647-7.914v6.588H147.88V0h6.489V21.7c3.467-4.447,8.63-7.024,15.3-7.024C182.92,14.675,190.743,25.611,190.743,39.932Zm-6.934,0c0-10.846-4.8-19.212-15.21-19.212-9.956,0-14.823,8-14.823,19.212s4.776,19.36,15,19.36C178.827,59.292,183.809,50.876,183.809,39.932Z" transform="translate(-26.101)" fill="#10bbb4"/>
      <path id="Path_955" data-name="Path 955" d="M208.57,43.077c0-15.029,8.721-25.257,22.77-25.257,14.321,0,22.77,10.409,22.77,25.257,0,15.119-8.54,25.438-22.77,25.438S208.57,58.023,208.57,43.077Zm38.606,0c0-11.529-5.336-19.031-15.836-19.031-10.763,0-15.828,7.823-15.828,19.031,0,11.653,5.427,19.212,15.828,19.212,10.582,0,15.836-7.823,15.836-19.212Z" transform="translate(-36.812 -3.145)" fill="#10bbb4"/>
      <path id="Path_956" data-name="Path 956" d="M50.6,19.694a15.375,15.375,0,0,0-3.73,4.447v-7.56H41V46.688h0a12.1,12.1,0,0,1-24.186,0h0V22.181H31.491v-5.6H16.816V3.24H10.228V16.581H0v5.6H10.228V47.174a9.66,9.66,0,0,0,.082,1.219,18.644,18.644,0,0,0,37.214-1.581c0-.576.058-1.169.058-1.8V40.685c0-5.765.716-12.015,5.517-15.836a13.5,13.5,0,0,1,11.529-2.133V16.581C60.4,15.51,54.351,16.49,50.6,19.694Z" transform="translate(0 -0.572)" fill="#10bbb4"/>
    </g>
    <g id="trebo_logo_colour-02-2" data-name="trebo_logo_colour-02" transform="translate(702.577 3484.784)">
      <path id="Path_953-2" data-name="Path 953" d="M95.256,44.773a9.64,9.64,0,0,0,9.106-5.6l3.717,1.4a13.526,13.526,0,0,1-12.718,7.983c-8.457,0-13.9-5.987-13.9-15.248,0-9.54,5.389-15.467,13.8-15.467,8.622,0,13.631,6.2,13.362,16.49h-22.9C86.04,40.946,89.433,44.773,95.256,44.773Zm-9.48-13.8h18.7c-.649-6.252-3.722-9.535-9.111-9.535-5.653,0-8.951,3.463-9.595,9.535Z" transform="translate(-40.816 -8.939)" fill="#10bbb4"/>
      <path id="Path_954-2" data-name="Path 954" d="M173.85,24.194c0,8.732-4.74,15.412-12.933,15.412a11.132,11.132,0,0,1-9.48-4.795V38.8H147.88V0h3.932V13.147a11.235,11.235,0,0,1,9.27-4.256C169.11,8.891,173.85,15.517,173.85,24.194Zm-4.2,0c0-6.571-2.909-11.64-9.216-11.64-6.032,0-8.981,4.85-8.981,11.64s2.894,11.73,9.091,11.73C166.63,35.924,169.649,30.825,169.649,24.194Z" transform="translate(-74.096)" fill="#10bbb4"/>
      <path id="Path_955-2" data-name="Path 955" d="M208.57,33.123c0-9.106,5.284-15.3,13.8-15.3,8.677,0,13.8,6.307,13.8,15.3,0,9.161-5.174,15.412-13.8,15.412S208.57,42.179,208.57,33.123Zm23.391,0c0-6.985-3.233-11.531-9.595-11.531-6.521,0-9.59,4.74-9.59,11.531,0,7.06,3.288,11.64,9.59,11.64,6.411,0,9.595-4.74,9.595-11.64Z" transform="translate(-104.505 -8.929)" fill="#10bbb4"/>
      <path id="Path_956-2" data-name="Path 956" d="M30.66,13.209A9.315,9.315,0,0,0,28.4,15.9v-4.58H24.843V29.564h0a7.33,7.33,0,0,1-14.654,0h0V14.716H19.08V11.323H10.189V3.24H6.2v8.083H0v3.393H6.2V29.859a5.853,5.853,0,0,0,.05.738,11.3,11.3,0,0,0,22.547-.958c0-.349.035-.709.035-1.088V25.927c0-3.493.434-7.28,3.343-9.595a8.178,8.178,0,0,1,6.985-1.292V11.323A10.224,10.224,0,0,0,30.66,13.209Z" transform="translate(0 -1.623)" fill="#10bbb4"/>
    </g>
    <g id="trebo_logo_colour-02-3" data-name="trebo_logo_colour-02" transform="translate(860.577 3502.476)">
      <path id="Path_953-3" data-name="Path 953" d="M89.095,32.745a5.335,5.335,0,0,0,5.039-3.1l2.057.776a7.486,7.486,0,0,1-7.038,4.418c-4.68,0-7.693-3.313-7.693-8.438,0-5.279,2.982-8.56,7.635-8.56,4.771,0,7.544,3.429,7.395,9.126H83.818C83.995,30.627,85.872,32.745,89.095,32.745ZM83.848,25.11H94.2c-.359-3.46-2.06-5.277-5.042-5.277-3.128,0-4.954,1.916-5.31,5.277Z" transform="translate(-58.967 -12.914)" fill="#10bbb4"/>
      <path id="Path_954-3" data-name="Path 954" d="M162.252,13.389c0,4.832-2.623,8.529-7.157,8.529a6.16,6.16,0,0,1-5.246-2.654v2.209H147.88V0h2.176V7.276a6.217,6.217,0,0,1,5.13-2.355C159.629,4.92,162.252,8.587,162.252,13.389Zm-2.325,0c0-3.637-1.61-6.442-5.1-6.442-3.338,0-4.97,2.684-4.97,6.442s1.6,6.492,5.031,6.492C158.257,19.881,159.927,17.059,159.927,13.389Z" transform="translate(-107.047)" fill="#10bbb4"/>
      <path id="Path_955-3" data-name="Path 955" d="M208.57,26.289c0-5.039,2.924-8.469,7.635-8.469,4.8,0,7.635,3.49,7.635,8.469,0,5.07-2.863,8.529-7.635,8.529S208.57,31.3,208.57,26.289Zm12.945,0c0-3.866-1.789-6.381-5.31-6.381-3.609,0-5.307,2.623-5.307,6.381,0,3.907,1.82,6.442,5.307,6.442,3.548,0,5.31-2.623,5.31-6.442Z" transform="translate(-150.979 -12.9)" fill="#10bbb4"/>
      <path id="Path_956-3" data-name="Path 956" d="M16.968,8.757a5.155,5.155,0,0,0-1.251,1.491V7.713H13.748V17.808h0a4.056,4.056,0,0,1-8.11,0h0V9.591h4.92V7.713H5.638V3.24H3.429V7.713H0V9.591H3.429v8.38a3.239,3.239,0,0,0,.028.409,6.251,6.251,0,0,0,12.478-.53c0-.193.019-.392.019-.6V15.8c0-1.933.24-4.029,1.85-5.31A4.526,4.526,0,0,1,21.67,9.77V7.713A5.658,5.658,0,0,0,16.968,8.757Z" transform="translate(0 -2.345)" fill="#10bbb4"/>
    </g>
  </g>
</svg>
